<svg width="500" height="500" viewBox="0 0 500 500" fill="none" xmlns="http://www.w3.org/2000/svg">
<g clip-path="url(#clip0_73_2)">
<rect width="500" height="500" fill="white"/>
<path d="M106.14 317.85C98.8221 317.85 91.6685 315.68 85.5839 311.614C79.4993 307.549 74.7569 301.77 71.9565 295.009C69.156 288.249 68.4233 280.809 69.851 273.632C71.2786 266.454 74.8025 259.862 79.9771 254.687C85.1516 249.513 91.7444 245.989 98.9217 244.561C106.099 243.133 113.538 243.866 120.299 246.667C127.06 249.467 132.839 254.209 136.904 260.294C140.97 266.379 143.14 273.532 143.14 280.85C143.14 290.663 139.242 300.074 132.303 307.013C125.364 313.952 115.953 317.85 106.14 317.85ZM106.14 245.57C99.154 245.568 92.3242 247.638 86.5146 251.518C80.7049 255.398 76.1763 260.913 73.5015 267.367C70.8267 273.821 70.1258 280.922 71.4875 287.775C72.8492 294.627 76.2123 300.921 81.1515 305.862C86.0907 310.802 92.3841 314.167 99.2358 315.531C106.087 316.894 113.19 316.195 119.644 313.522C126.099 310.849 131.615 306.322 135.497 300.514C139.378 294.705 141.45 287.876 141.45 280.89C141.439 271.528 137.716 262.552 131.097 255.93C124.478 249.309 115.502 245.583 106.14 245.57Z" fill="#EBEBEB"/>
<path d="M104.28 323.08C103.72 323.08 103.16 323.02 102.6 322.98L102.74 321.34C103.27 321.34 103.81 321.42 104.35 321.44L104.28 323.08ZM110.16 322.93L110 321.3C110.54 321.25 111.07 321.18 111.61 321.11L111.83 322.74C111.28 322.82 110.73 322.88 110.16 322.93ZM96.78 322.08C96.23 321.96 95.69 321.82 95.14 321.68L95.57 320.09C96.09 320.23 96.62 320.36 97.14 320.48L96.78 322.08ZM117.61 321.55L117.16 319.96C117.68 319.82 118.16 319.66 118.71 319.49L119.22 321.06L117.61 321.55ZM89.61 319.75C89.09 319.53 88.61 319.3 88.07 319.06L88.77 317.57C89.26 317.81 89.77 318.03 90.25 318.24L89.61 319.75ZM124.7 318.85L123.98 317.37C124.47 317.13 124.98 316.89 125.42 316.63L126.2 318.08C125.68 318.34 125.18 318.6 124.67 318.85H124.7ZM82.94 316.17C82.47 315.86 82 315.54 81.55 315.17L82.55 313.83C82.98 314.15 83.43 314.46 83.88 314.75L82.94 316.17ZM131.17 314.93L130.17 313.6L131.45 312.6L132.45 313.88C132 314.25 131.59 314.6 131.14 314.93H131.17ZM77 311.45C76.59 311.06 76.19 310.67 75.8 310.26L77 309.12C77.38 309.51 77.76 309.89 78.15 310.26L77 311.45ZM136.82 309.92L135.63 308.79C136 308.4 136.36 308 136.72 307.59L137.95 308.67C137.57 309.1 137.2 309.51 136.81 309.92H136.82ZM72 305.76C71.67 305.31 71.35 304.85 71 304.38L72.37 303.47C72.67 303.91 72.98 304.36 73.3 304.79L72 305.76ZM141.5 304L140.13 303.1C140.42 302.65 140.71 302.19 140.99 301.73L142.4 302.57C142.11 303 141.81 303.51 141.5 304ZM68.11 299.3C67.86 298.79 67.63 298.3 67.4 297.77L68.91 297.11C69.13 297.61 69.35 298.11 69.58 298.58L68.11 299.3ZM145.11 297.3L143.6 296.66C143.81 296.16 144.01 295.66 144.2 295.15L145.74 295.73C145.49 296.26 145.28 296.78 145.06 297.3H145.11ZM65.48 292.2C65.33 291.66 65.2 291.12 65.07 290.57L66.67 290.19C66.79 290.72 66.92 291.24 67.07 291.76L65.48 292.2ZM147.41 290.08L145.81 289.72C145.93 289.2 146.03 288.67 146.13 288.14L147.75 288.43C147.6 289 147.49 289.53 147.36 290.08H147.41ZM64.13 284.76C64.0767 284.2 64.0367 283.64 64.01 283.08L65.6 283C65.6 283.54 65.64 284.08 65.72 284.62L64.13 284.76ZM148.38 282.57L146.74 282.51C146.74 281.97 146.74 281.43 146.74 280.89V280.72H148.39V280.88C148.37 281.46 148.36 282 148.33 282.57H148.38ZM65.7 277.33L64.06 277.19C64.06 276.63 64.17 276.07 64.24 275.52L65.87 275.72C65.81 276.26 65.75 276.79 65.7 277.33ZM146.31 275.08C146.23 274.55 146.15 274.01 146.05 273.49L147.67 273.19C147.77 273.74 147.86 274.29 147.94 274.85L146.31 275.08ZM67 270.17L65.41 269.74C65.5633 269.2 65.7233 268.66 65.89 268.12L67.46 268.62C67.27 269.13 67.12 269.65 67 270.17ZM144.64 268C144.46 267.48 144.28 267 144.09 266.47L145.63 265.89C145.83 266.41 146.02 266.94 146.2 267.47L144.64 268ZM69.52 263.35L68 262.65C68.24 262.14 68.49 261.65 68.76 261.14L70.21 261.91C70 262.39 69.75 262.87 69.52 263.36V263.35ZM141.72 261.35C141.46 260.88 141.19 260.41 140.91 259.95L142.32 259.1C142.61 259.58 142.89 260.1 143.16 260.56L141.72 261.35ZM73.24 257.11L71.91 256.11C72.24 255.66 72.58 255.21 72.91 254.77L74.2 255.77C73.89 256.24 73.56 256.67 73.24 257.11ZM137.66 255.32C137.32 254.9 136.987 254.49 136.66 254.09L137.9 253C138.27 253.42 138.63 253.85 138.98 254.28L137.66 255.32ZM78 251.62L76.86 250.43C77.27 250.04 77.68 249.66 78.1 249.29L79.19 250.52C78.81 250.88 78.41 251.24 78 251.62ZM132.57 250.11C132.16 249.75 131.74 249.41 131.32 249.11L132.32 247.82C132.76 248.17 133.19 248.52 133.62 248.89L132.57 250.11ZM83.67 247.11L82.76 245.74L84.18 244.83L85.04 246.24C84.6 246.48 84.14 246.77 83.69 247.07L83.67 247.11ZM126.67 245.91L125.26 245.12L126.03 243.67C126.53 243.94 127.03 244.21 127.5 244.5L126.67 245.91ZM90.08 243.6L89.43 242.09C89.94 241.87 90.43 241.66 90.98 241.46L91.58 242.99C91.07 243.19 90.57 243.39 90.08 243.6ZM120.08 242.77C119.57 242.58 119.08 242.41 118.54 242.24L119.05 240.67C119.58 240.85 120.12 241.03 120.64 241.22L120.08 242.77ZM97 241.34L96.63 239.74C97.17 239.61 97.72 239.5 98.28 239.39L98.58 241.01C98 241.11 97.51 241.22 97 241.34ZM113.07 240.89C112.54 240.8 112.01 240.72 111.47 240.65L111.68 239.02C112.24 239.09 112.8 239.18 113.35 239.27L113.07 240.89ZM104.2 240.35L104.12 238.71C104.68 238.71 105.24 238.71 105.81 238.66V240.31C105.27 240.31 104.73 240.32 104.19 240.35H104.2Z" fill="#EBEBEB"/>
<path d="M100.47 303.75H111.86V286.57H129.04V275.18H111.86V258H100.47V275.18H83.29V286.57H100.47V303.75Z" fill="#EBEBEB"/>
<path d="M416.83 129.39C410.665 137.632 402.801 144.453 393.77 149.39C384.76 144.447 376.916 137.627 370.77 129.39C362.65 118.65 363.05 101.83 374.66 98.19C387.5 94.19 393.81 113.5 393.81 113.5C393.81 113.5 400.21 94.05 412.97 98.19C424.5 102 424.94 118.65 416.83 129.39Z" fill="#EBEBEB"/>
<path d="M384.72 140.9L381.22 126.33L378.93 131.47H364.8V129.82H377.87L381.68 121.23L384.41 132.59L388.27 109.05L391.68 127.67L394.37 119.9L398.61 132.63L399.55 129.82H422.77V131.46H400.74L398.61 137.82L394.34 125.01L391.18 134.13L388.36 118.68L384.72 140.9Z" fill="white"/>
<path d="M393.81 156.3C386.492 156.3 379.339 154.13 373.254 150.064C367.169 145.999 362.427 140.22 359.626 133.459C356.826 126.698 356.093 119.259 357.521 112.081C358.949 104.904 362.473 98.3114 367.647 93.1369C372.822 87.9623 379.414 84.4384 386.592 83.0108C393.769 81.5831 401.208 82.3158 407.969 85.1163C414.73 87.9167 420.509 92.6591 424.574 98.7437C428.64 104.828 430.81 111.982 430.81 119.3C430.81 129.113 426.912 138.524 419.973 145.463C413.034 152.402 403.623 156.3 393.81 156.3ZM393.81 84.0198C386.824 84.0198 379.996 86.0913 374.187 89.9723C368.379 93.8533 363.852 99.3696 361.179 105.823C358.505 112.277 357.806 119.379 359.169 126.23C360.532 133.082 363.895 139.375 368.835 144.315C373.775 149.254 380.068 152.618 386.919 153.981C393.771 155.344 400.873 154.645 407.326 151.971C413.78 149.298 419.297 144.771 423.178 138.963C427.059 133.154 429.13 126.325 429.13 119.34C429.127 109.971 425.406 100.987 418.783 94.3607C412.161 87.7343 403.178 84.0078 393.81 83.9998V84.0198Z" fill="#EBEBEB"/>
<path d="M392 161.53C391.44 161.53 390.88 161.47 390.32 161.42L390.46 159.78C390.99 159.83 391.53 159.86 392.08 159.89L392 161.53ZM397.89 161.38L397.73 159.74C398.27 159.69 398.81 159.63 399.34 159.56L399.56 161.19C399 161.26 398.4 161.33 397.84 161.38H397.89ZM384.5 160.53C383.95 160.41 383.41 160.27 382.87 160.13L383.29 158.54C383.81 158.68 384.34 158.81 384.87 158.93L384.5 160.53ZM405.33 159.99L404.88 158.41C405.4 158.26 405.88 158.11 406.43 157.94L406.94 159.51C406.36 159.68 405.82 159.84 405.28 160L405.33 159.99ZM377.33 158.2C376.81 157.98 376.33 157.75 375.79 157.51L376.49 156.02L377.97 156.69L377.33 158.2ZM412.43 157.29L411.71 155.81C412.19 155.58 412.71 155.33 413.14 155.08L413.92 156.52C413.35 156.79 412.85 157.05 412.35 157.29H412.43ZM370.66 154.61C370.19 154.3 369.73 153.98 369.27 153.61L370.27 152.27C370.71 152.59 371.15 152.89 371.6 153.19L370.66 154.61ZM418.89 153.37L417.89 152.05C418.33 151.73 418.75 151.4 419.17 151.05L420.17 152.34C419.71 152.7 419.27 153 418.81 153.37H418.89ZM364.74 149.9C364.33 149.51 363.93 149.11 363.54 148.71L364.73 147.57C365.103 147.95 365.483 148.33 365.87 148.71L364.74 149.9ZM424.56 148.37L423.37 147.23C423.74 146.84 424.1 146.44 424.46 146.04L425.7 147.12C425.25 147.54 424.87 148 424.48 148.37H424.56ZM359.75 144.21C359.42 143.75 359.1 143.3 358.75 142.83L360.11 141.91C360.41 142.36 360.72 142.8 361.04 143.24L359.75 144.21ZM429.26 142.43L427.88 141.53C428.17 141.07 428.46 140.62 428.74 140.15L430.15 141C429.78 141.48 429.48 142 429.18 142.43H429.26ZM355.86 137.72C355.61 137.22 355.38 136.72 355.16 136.2L356.66 135.54C356.88 136.03 357.1 136.54 357.34 137.01L355.86 137.72ZM432.86 135.72L431.35 135.08C431.56 134.59 431.76 134.08 431.95 133.58L433.49 134.16C433.16 134.7 433 135.23 432.73 135.74L432.86 135.72ZM353.24 130.63C353.09 130.09 352.95 129.54 352.82 129L354.42 128.62C354.54 129.15 354.68 129.67 354.82 130.19L353.24 130.63ZM435 128.53L433.39 128.17C433.51 127.64 433.62 127.11 433.71 126.58L435.33 126.87C435.27 127.43 435.16 128 435 128.53ZM351.71 123.2C351.657 122.647 351.617 122.087 351.59 121.52L353.23 121.44C353.23 121.98 353.3 122.52 353.35 123.05L351.71 123.2ZM436 121L434.35 120.94C434.35 120.4 434.35 119.86 434.35 119.32V119.15H436V119.31C436 119.9 436 120.46 436 121ZM353.36 115.76L351.73 115.62C351.73 115.06 351.83 114.5 351.9 113.94L353.54 114.15C353.48 114.7 353.42 115.24 353.37 115.78L353.36 115.76ZM434 113.53C433.93 112.99 433.84 112.46 433.74 111.93L435.36 111.63C435.46 112.18 435.55 112.74 435.63 113.29L434 113.53ZM354.67 108.62L353.08 108.19C353.23 107.64 353.39 107.11 353.56 106.57L355.13 107.07C355 107.58 354.79 108.1 354.65 108.62H354.67ZM432.33 106.45C432.16 105.94 431.97 105.45 431.78 104.93L433.32 104.34C433.52 104.873 433.71 105.403 433.89 105.93L432.33 106.45ZM357.21 101.8L355.73 101.09C355.97 100.58 356.23 100.09 356.49 99.5899L357.94 100.36C357.67 100.83 357.43 101.32 357.19 101.8H357.21ZM429.41 99.7999C429.15 99.3199 428.88 98.8599 428.6 98.3999L430.01 97.5499C430.3 98.0199 430.58 98.5499 430.85 98.9999L429.41 99.7999ZM360.94 95.5499L359.6 94.5499C359.933 94.0899 360.267 93.6399 360.6 93.1999L361.89 94.1999C361.56 94.6799 361.23 95.1199 360.92 95.5499H360.94ZM425.35 93.7699C425.01 93.3499 424.66 92.9399 424.3 92.5299L425.54 91.4499C425.91 91.8699 426.27 92.2899 426.62 92.7299L425.35 93.7699ZM365.71 90.0599L364.57 88.8799C364.98 88.4899 365.39 88.1099 365.81 87.7399L366.88 88.9999C366.48 89.3299 366.08 89.6899 365.69 90.0599H365.71ZM420.28 88.5499C419.87 88.1999 419.45 87.8599 419.03 87.5499L420.03 86.2599C420.47 86.6099 420.9 86.9699 421.33 87.3399L420.28 88.5499ZM371.39 85.5499L370.47 84.1899C370.94 83.8699 371.41 83.5699 371.89 83.2799L372.75 84.6899C372.27 84.9299 371.81 85.2199 371.37 85.5099L371.39 85.5499ZM414.39 84.3599C413.93 84.0899 413.46 83.8199 412.98 83.5699L413.75 82.1199C414.25 82.3799 414.75 82.6599 415.22 82.9399L414.39 84.3599ZM377.8 82.0899L377.15 80.5799C377.657 80.3599 378.177 80.1499 378.71 79.9499L379.3 81.4799C378.74 81.6299 378.25 81.8399 377.75 82.0499L377.8 82.0899ZM407.8 81.2499C407.29 81.0699 406.8 80.8899 406.27 80.7299L406.77 79.1599C407.31 79.3299 407.84 79.5099 408.37 79.7099L407.8 81.2499ZM384.7 79.8299L384.33 78.2199C384.87 78.0999 385.42 77.9799 385.98 77.8799L386.28 79.4899C385.71 79.5499 385.18 79.6699 384.66 79.7899L384.7 79.8299ZM400.77 79.3799C400.24 79.2899 399.71 79.2099 399.17 79.1399L399.38 77.5099C399.94 77.5799 400.5 77.6599 401.05 77.7599L400.77 79.3799ZM391.9 78.8399L391.83 77.1899C392.38 77.1899 392.94 77.1899 393.51 77.1899V78.8299C392.94 78.7599 392.4 78.7699 391.86 78.7999L391.9 78.8399Z" fill="#EBEBEB"/>
<path d="M147.412 114.125C154.221 89.3401 139.648 63.7285 114.863 56.9201C90.0773 50.1117 64.4656 64.6848 57.6572 89.47C50.8489 114.255 65.422 139.867 90.2072 146.675C114.992 153.484 140.604 138.911 147.412 114.125Z" fill="#EBEBEB"/>
<path d="M121.434 143.969C144.146 134.71 155.052 108.792 145.792 86.08C136.533 63.3679 110.615 52.4624 87.9031 61.7217C65.191 70.9811 54.2855 96.899 63.5449 119.611C72.8042 142.323 98.7221 153.229 121.434 143.969Z" fill="#DBDBDB"/>
<path d="M104.67 144.44C127.645 144.44 146.27 125.815 146.27 102.84C146.27 79.8649 127.645 61.24 104.67 61.24C81.695 61.24 63.07 79.8649 63.07 102.84C63.07 125.815 81.695 144.44 104.67 144.44Z" fill="white"/>
<path opacity="0.5" d="M145.34 94C126.34 105.48 95.25 124.31 77.85 134.63C72.9315 130.482 69.0399 125.253 66.48 119.35L124 66C129.386 68.8259 134.087 72.7971 137.774 77.6344C141.461 82.4718 144.043 88.0578 145.34 94Z" fill="#EBEBEB"/>
<path opacity="0.5" d="M146.25 104.29C146.099 108.919 145.17 113.49 143.5 117.81L91.61 142.35C89.3483 141.608 87.1565 140.667 85.06 139.54C100.73 130.48 129.37 114 146.25 104.29Z" fill="#EBEBEB"/>
<path d="M105.07 64.26H104.27V70.57H105.07V64.26Z" fill="#C7C7C7"/>
<path d="M85.726 69.2157L85.0332 69.6157L88.1882 75.0803L88.881 74.6803L85.726 69.2157Z" fill="#C7C7C7"/>
<path d="M71.4531 83.1915L71.0531 83.8843L76.5177 87.0393L76.9177 86.3465L71.4531 83.1915Z" fill="#C7C7C7"/>
<path d="M72.4 102.44H66.09V103.24H72.4V102.44Z" fill="#C7C7C7"/>
<path d="M76.5189 118.628L71.0543 121.783L71.4543 122.476L76.9189 119.321L76.5189 118.628Z" fill="#C7C7C7"/>
<path d="M88.1873 130.582L85.0361 136.049L85.7292 136.448L88.8804 130.982L88.1873 130.582Z" fill="#C7C7C7"/>
<path d="M105.07 135.12H104.27V141.43H105.07V135.12Z" fill="#C7C7C7"/>
<path d="M121.154 130.589L120.461 130.989L123.616 136.453L124.309 136.053L121.154 130.589Z" fill="#C7C7C7"/>
<path d="M133.288 118.089L132.888 118.785L138.378 121.94L138.778 121.244L133.288 118.089Z" fill="#C7C7C7"/>
<path d="M143.26 102.44H136.95V103.24H143.26V102.44Z" fill="#C7C7C7"/>
<path d="M137.892 83.2097L132.427 86.3647L132.827 87.0576L138.292 83.9026L137.892 83.2097Z" fill="#C7C7C7"/>
<path d="M123.617 69.2218L120.464 74.6875L121.157 75.0873L124.31 69.6215L123.617 69.2218Z" fill="#C7C7C7"/>
<path d="M105.28 67.1101L106.65 105.65L102.7 105.6L104.21 67.1001L105.28 67.1101Z" fill="#C7C7C7"/>
<path d="M129.28 89.4L103.36 105.95L101.47 102.48L128.77 88.46L129.28 89.4Z" fill="#A6A6A6"/>
<path d="M106 102.84C106 103.107 105.921 103.368 105.773 103.59C105.624 103.812 105.413 103.985 105.167 104.087C104.92 104.19 104.649 104.216 104.387 104.164C104.125 104.112 103.884 103.984 103.695 103.795C103.507 103.606 103.378 103.365 103.326 103.104C103.274 102.842 103.301 102.57 103.403 102.324C103.505 102.077 103.678 101.866 103.9 101.718C104.122 101.569 104.383 101.49 104.65 101.49C105.008 101.49 105.351 101.632 105.605 101.886C105.858 102.139 106 102.482 106 102.84Z" fill="#C7C7C7"/>
<path d="M82.59 327.06L69.47 327.33L62.81 327.45C60.58 327.45 58.34 327.45 56.11 327.5H55.67V327.06L55.61 315.87V315.36H56.11L69.35 315.42C73.77 315.42 78.18 315.53 82.59 315.58H82.87V315.85C82.87 317.74 82.78 319.63 82.74 321.5L82.59 327.06ZM82.59 327.06L82.45 321.4C82.45 319.54 82.34 317.7 82.32 315.87L82.59 316.14C78.18 316.19 73.77 316.3 69.35 316.3L56.11 316.37L56.61 315.87V327.06L56.16 326.61C58.34 326.61 60.52 326.61 62.71 326.66L69.29 326.78L82.59 327.06Z" fill="#EBEBEB"/>
<path d="M67.82 341.17L54.7 341.44L48.04 341.56C45.81 341.56 43.57 341.56 41.34 341.61H40.9V341.17L40.84 330V329.49H41.34L54.58 329.55C58.99 329.55 63.41 329.66 67.82 329.71H68.1V330C68.1 331.89 68.02 333.78 67.97 335.65L67.82 341.17ZM67.82 341.17L67.68 335.51C67.63 333.65 67.57 331.81 67.55 329.98L67.82 330.25C63.41 330.3 58.99 330.41 54.58 330.41L41.34 330.47L41.84 329.98L41.79 341.17L41.34 340.72C43.52 340.72 45.7 340.72 47.89 340.72L54.47 340.84L67.82 341.17Z" fill="#EBEBEB"/>
<path d="M338.6 202.49L325.47 202.77L318.81 202.88C316.59 202.93 314.35 202.88 312.12 202.94H311.68V202.49L311.63 191.3V190.8H312.13L325.37 190.87C329.78 190.87 334.2 190.98 338.61 191.03H338.89V191.3C338.89 193.2 338.81 195.09 338.76 196.96L338.6 202.49ZM338.6 202.49L338.46 196.84C338.46 194.98 338.35 193.13 338.33 191.3L338.6 191.58C334.19 191.58 329.77 191.73 325.36 191.74L312.12 191.8L312.62 191.3L312.56 202.49L312.12 202.05C314.3 202.05 316.48 202.05 318.66 202.05L325.24 202.16L338.6 202.49Z" fill="#EBEBEB"/>
<path d="M323.83 216.6L310.7 216.88L304 217C301.78 217 299.54 217 297.31 217.06H296.86V216.61V205.42V204.92H297.36L310.6 204.99C315.01 204.99 319.42 205.1 323.84 205.15H324.11V205.42C324.11 207.32 324.02 209.21 323.98 211.08L323.83 216.6ZM323.83 216.6L323.69 210.95C323.64 209.09 323.57 207.24 323.55 205.41L323.83 205.69C319.41 205.74 315 205.84 310.59 205.85L297.35 205.91L297.85 205.41L297.79 216.6L297.35 216.16C299.53 216.16 301.71 216.16 303.89 216.21L310.47 216.32L323.83 216.6Z" fill="#EBEBEB"/>
<path d="M309.11 202.49L295.99 202.77L289.33 202.88C287.1 202.93 284.87 202.88 282.63 202.94H282.19V202.49L282.13 191.3V190.8H282.63L295.87 190.87C300.29 190.87 304.7 190.98 309.11 191.03H309.39V191.3C309.39 193.2 309.3 195.09 309.26 196.96L309.11 202.49ZM309.11 202.49L308.97 196.84C308.97 194.98 308.86 193.13 308.84 191.3L309.11 191.58C304.7 191.58 300.29 191.73 295.87 191.74L282.63 191.8L283.13 191.3L283.08 202.49L282.63 202.05C284.82 202.05 286.99 202.05 289.18 202.05L295.76 202.16L309.11 202.49Z" fill="#EBEBEB"/>
<path d="M458.66 341.17L445.53 341.44L438.87 341.56C436.65 341.56 434.41 341.56 432.18 341.61H431.73V341.17L431.68 330V329.49H432.18L445.42 329.55C449.83 329.55 454.25 329.66 458.66 329.71H458.93V330C458.93 331.89 458.85 333.78 458.8 335.65L458.66 341.17ZM458.66 341.17L458.52 335.51C458.52 333.65 458.4 331.81 458.39 329.98L458.66 330.25C454.25 330.3 449.83 330.41 445.42 330.41L432.18 330.47L432.68 329.98L432.62 341.17L432.18 340.72C434.36 340.72 436.54 340.72 438.72 340.72L445.3 340.84L458.66 341.17Z" fill="#EBEBEB"/>
<path d="M443.89 67.49L430.76 67.76L424.1 67.88C421.88 67.88 419.64 67.88 417.41 67.93H417V67.48V56.29V55.78H417.51L430.75 55.84C435.16 55.84 439.57 55.95 443.99 56H444.26V56.27C444.26 58.17 444.17 60.05 444.13 61.92L443.89 67.49ZM443.89 67.49L443.75 61.83C443.7 59.97 443.63 58.13 443.61 56.3L443.89 56.57C439.47 56.57 435.06 56.73 430.65 56.73L417.41 56.8L417.91 56.3L417.85 67.49L417.41 67.04C419.59 67.04 421.76 67.04 423.95 67.1L430.53 67.21L443.89 67.49Z" fill="#EBEBEB"/>
<path d="M458.66 81.6001L445.53 81.8701L438.87 81.9901C436.65 81.9901 434.41 81.9901 432.18 82.0401H431.73V81.6001L431.68 70.4101V69.9001H432.18L445.42 69.9601C449.83 69.9601 454.25 70.0701 458.66 70.1201H458.93V70.3901C458.93 72.2801 458.85 74.1701 458.8 76.0401L458.66 81.6001ZM458.66 81.6001L458.52 75.9401C458.52 74.0801 458.4 72.2401 458.39 70.4101L458.66 70.6801C454.25 70.6801 449.83 70.8401 445.42 70.8401L432.18 70.9101L432.68 70.4101L432.62 81.6001L432.18 81.1501C434.36 81.1501 436.54 81.1501 438.72 81.2101L445.3 81.3201L458.66 81.6001Z" fill="#EBEBEB"/>
<path d="M82.59 67.49L69.47 67.76L62.81 67.88C60.58 67.88 58.34 67.88 56.11 67.93H55.67V67.48L55.61 56.3V55.79H56.11L69.35 55.85C73.77 55.85 78.18 55.96 82.59 56.01H82.87V56.28C82.87 58.18 82.78 60.06 82.74 61.93L82.59 67.49ZM82.59 67.49L82.45 61.83C82.45 59.97 82.34 58.13 82.32 56.3L82.59 56.57C78.18 56.57 73.77 56.73 69.35 56.73L56.11 56.8L56.61 56.3V67.49L56.11 67C58.29 67 60.47 67 62.66 67.06L69.24 67.17L82.59 67.49Z" fill="#EBEBEB"/>
<path d="M250 458.03C359.358 458.03 448.01 447.768 448.01 435.11C448.01 422.452 359.358 412.19 250 412.19C140.642 412.19 51.99 422.452 51.99 435.11C51.99 447.768 140.642 458.03 250 458.03Z" fill="#EBEBEB"/>
<path d="M109.62 220.22H97V206.65H83.46V194.07H97V180.49H109.58V194.07H123.15V206.65H109.62V220.22ZM98.83 218.43H107.83V204.86H121.4V195.86H107.83V182.28H98.83V195.86H85.25V204.86H98.83V218.43Z" fill="#2AC5C5"/>
<path d="M414.65 309.92H402.06V296.35H388.49V283.77H402.06V270.19H414.65V283.77H428.22V296.35H414.65V309.92ZM403.86 308.13H412.86V294.56H426.43V285.56H412.86V272H403.86V285.58H390.28V294.58H403.86V308.13Z" fill="#2AC5C5"/>
<path d="M348.54 78.59V91.17H334.97V104.75H322.39V91.17H308.81V78.59H322.39V65.02H334.97V78.59H348.54Z" fill="#2AC5C5"/>
<path d="M227.11 81.1802C229.72 81.1002 240.65 78.0302 249.69 86.9602C258.25 95.4102 265.38 124.15 267.89 130.26C270.4 136.37 278.89 136 282 143C284.7 149.07 280.46 152.14 280.72 156.86C280.93 160.53 285.43 165.36 282.99 171.22C280.78 176.55 275.35 176.37 272.41 178.4C269.47 180.43 268.67 188.1 263.1 191.03C257.53 193.96 251.48 189.42 248.36 189.95C245.24 190.48 243.07 200.65 232.75 201.44C222.43 202.23 218.11 194.08 213.63 193.05C209.15 192.02 199.06 196.65 193.4 192.16C187.74 187.67 185.79 180.79 183.2 178.56C180.61 176.33 176.14 177.46 172.49 171.91C168.84 166.36 173.78 161.68 173.74 156.37C173.74 152.67 169.97 149.86 171.34 143.98C173.23 135.9 182.77 136.04 185.07 127.68C186.87 121.13 188.36 93.6802 203.37 84.5302C213.77 78.2802 227.11 81.1802 227.11 81.1802Z" fill="#263238"/>
<path d="M267.34 128.78C268.169 130.032 269.291 131.062 270.61 131.78L274.38 134.11C276.929 135.496 279.244 137.274 281.24 139.38C282.169 140.385 282.853 141.592 283.238 142.905C283.623 144.218 283.699 145.603 283.46 146.95C283.139 148.317 282.61 149.625 281.89 150.83C281.054 152.153 280.417 153.592 280 155.1C279.86 156.761 280.275 158.421 281.18 159.82C281.87 161.16 282.61 162.42 283.23 163.72C284.48 166.28 285.15 169.11 284.23 171.72C283.826 173.017 282.999 174.14 281.88 174.91C280.684 175.668 279.353 176.187 277.96 176.44C276.54 176.77 275.08 176.96 273.61 177.21C272.112 177.337 270.687 177.912 269.52 178.86C270.764 178.08 272.202 177.664 273.67 177.66C275.14 177.53 276.62 177.47 278.11 177.25C279.64 177.059 281.118 176.569 282.46 175.81C283.838 174.961 284.894 173.677 285.46 172.16C286.73 169.16 285.87 165.74 284.61 163.05C283.99 161.67 283.25 160.36 282.61 159.05C281.889 157.956 281.539 156.659 281.61 155.35C282.11 152.89 284.4 150.35 284.92 147.21C285.194 145.638 285.085 144.023 284.603 142.502C284.121 140.981 283.279 139.598 282.15 138.47C279.967 136.385 277.466 134.66 274.74 133.36L270.74 131.36C269.433 130.757 268.273 129.877 267.34 128.78Z" fill="#263238"/>
<path d="M191 101.93C188.94 106.84 188 112.11 186.58 117.17C185.86 119.7 185.23 122.26 184.33 124.7C183.926 125.895 183.393 127.042 182.74 128.12C182.608 128.37 182.436 128.596 182.23 128.79C182.048 129.009 181.836 129.201 181.6 129.36C181.1 129.74 180.6 130.09 180.01 130.43C177.723 131.811 175.507 133.307 173.37 134.91C171.11 136.58 169.426 138.911 168.55 141.58C168.142 142.947 168.087 144.396 168.39 145.79C168.757 147.128 169.374 148.383 170.21 149.49C171.8 151.62 173.32 153.76 173.82 156.41C173.72 153.71 172.24 151.27 170.9 149.04C170.202 147.984 169.707 146.808 169.44 145.57C169.25 144.356 169.374 143.113 169.8 141.96C170.715 139.614 172.288 137.583 174.33 136.11C176.456 134.579 178.659 133.157 180.93 131.85C181.49 131.48 182.05 131.1 182.6 130.67C183.172 130.211 183.647 129.643 184 129C184.702 127.807 185.269 126.539 185.69 125.22C186.536 122.685 187.224 120.1 187.75 117.48L189.27 109.68C189.695 107.065 190.272 104.477 191 101.93Z" fill="#263238"/>
<path d="M180.46 177.22C181.81 178.54 182.27 180.47 182.98 182.22C183.69 183.97 184.35 185.76 185.13 187.51C185.888 189.295 186.834 190.995 187.95 192.58C189.095 194.255 190.629 195.628 192.42 196.58C196.35 198.29 200.53 197.34 204.08 196.09C205.89 195.45 207.63 194.72 209.41 194.09C211.143 193.373 213.021 193.079 214.89 193.23C213.015 192.747 211.045 192.768 209.18 193.29C207.31 193.73 205.51 194.29 203.69 194.81C200.15 195.81 196.29 196.44 193.14 195.01C191.586 194.176 190.247 192.991 189.23 191.55C188.125 190.069 187.142 188.5 186.29 186.86C185.39 185.21 184.58 183.51 183.73 181.86C183.29 181.01 182.84 180.17 182.35 179.35C181.911 178.491 181.261 177.758 180.46 177.22Z" fill="#263238"/>
<path d="M278.65 406.09H192.03L186.88 298.95H264.28L278.65 406.09Z" fill="#37474F"/>
<path d="M240.04 298.95L230.89 371.51L230.88 371.62L230.68 373.13L230.31 376.1L229.89 379.41L229.74 380.59L229.62 381.54L226.53 406.09H192.03L186.88 298.95H240.04Z" fill="#263238"/>
<path d="M261.06 406.09H258.77C258.65 405.14 258.54 404.2 258.42 403.25C255.34 378.25 252.35 353.25 249.75 328.25C249.51 325.96 249.27 323.66 249.04 321.37C249.04 321.01 249.62 320.94 249.67 321.3C249.88 322.84 250.1 324.38 250.3 325.92C254 352.62 257.52 379.36 261.06 406.09Z" fill="#263238"/>
<path d="M256.42 298.87C256.423 298.897 256.423 298.924 256.42 298.95C256.19 300.02 253.66 311.76 250.32 325.95C250.14 326.72 249.96 327.5 249.77 328.28C248.29 334.47 246.68 341.02 245.05 347.28C241.53 360.87 237.92 373.05 235.46 377.06C235.192 377.557 234.82 377.99 234.37 378.33C233.57 378.8 231.87 379.64 229.76 380.63L228.36 381.28L227.16 381.83C222.36 384.03 216.59 386.55 213.92 387.66V387.87L212.99 406.11H131.4L140.04 354.11L150.47 298.92L256.42 298.87Z" fill="#37474F"/>
<path d="M241.42 374.76C231.928 378.215 222.753 382.488 214 387.53C213.933 387.569 213.883 387.631 213.86 387.705C213.837 387.779 213.842 387.859 213.875 387.929C213.907 387.999 213.965 388.054 214.036 388.084C214.107 388.114 214.187 388.116 214.26 388.09C223.49 384.09 232.91 380.33 241.91 375.86C242.056 375.795 242.17 375.675 242.227 375.526C242.284 375.377 242.28 375.211 242.215 375.065C242.15 374.919 242.03 374.805 241.881 374.748C241.732 374.691 241.566 374.695 241.42 374.76Z" fill="#263238"/>
<path d="M244.2 311.52C244.2 311.2 243.62 311.13 243.62 311.52C243.69 322.52 242.99 332.12 242.07 342.37C241.64 347.12 237.82 373.37 229.57 371.49C228.19 371.17 227.48 369.81 227.27 367.73C227.01 365.22 227.95 362.16 228.36 359.67C229.28 354.17 230.01 348.67 230.48 343.09C231.445 332.743 231.335 322.324 230.15 312C230.138 311.939 230.105 311.883 230.057 311.844C230.008 311.804 229.948 311.782 229.885 311.782C229.822 311.782 229.762 311.804 229.713 311.844C229.665 311.883 229.632 311.939 229.62 312C229.62 326.36 229.25 340.69 227.11 354.92C226.11 361.75 222.63 372.04 229.78 373.1C236.93 374.16 241.78 356.93 242.66 352.21C245.14 339 245.24 324.84 244.2 311.52Z" fill="#263238"/>
<path d="M229.79 372.16C229.051 373.931 228.43 375.748 227.93 377.6C227.404 379.035 227.143 380.553 227.16 382.08C227.16 382.37 227.58 382.4 227.73 382.2C228.589 380.857 229.236 379.39 229.65 377.85C230.28 376.16 230.94 374.49 231.52 372.79C231.604 372.561 231.593 372.308 231.489 372.086C231.386 371.865 231.199 371.694 230.97 371.61C230.741 371.527 230.487 371.538 230.266 371.641C230.045 371.744 229.874 371.931 229.79 372.16Z" fill="#263238"/>
<path d="M168.76 377.62C167.94 387.12 166.97 396.62 165.95 406.09H165.06C166.06 396.59 167.2 387.09 168.43 377.61C168.46 377.4 168.78 377.4 168.76 377.62Z" fill="#263238"/>
<path d="M224.75 203.06C232.22 227.42 264.55 314.43 286.23 327.69C300.42 336.36 371.69 341.29 385.4 334.93C393.01 331.39 390.64 273.83 381.67 273.51C370.48 273.11 315.47 271.63 309.38 268.72C303.29 265.81 262.2 210.86 246.54 194.21C219.55 165.49 219.77 186.84 224.75 203.06Z" fill="#AD6359"/>
<path d="M364.62 269.19L354.46 339.59C354.46 339.59 296.58 341.29 280.8 328.38C258.31 310 226.06 217 222.4 202.45C213.73 167.95 233.05 173.71 248.25 190.45C258.12 201.35 296.95 257.11 311.33 267.38C315.41 270.33 364.62 269.19 364.62 269.19Z" fill="#EBEBEB"/>
<path d="M340.2 336.14C341.39 325.69 347.82 283.14 349.83 274.01C349.97 273.38 350.41 273.31 350.35 274.01C347.54 305.4 342.35 326.01 340.62 336.19C340.57 336.43 340.17 336.41 340.2 336.14Z" fill="#263238"/>
<path d="M264.31 272.81L273.98 339.31C273.98 339.31 165.6 340.91 138.69 339.02C138.69 339.02 160.64 214.69 189.57 183.27C204.04 167.56 221.03 168.74 231.86 179.72C234.6 182.5 267.29 225.72 270.73 242.21C273.73 256.77 264.31 272.81 264.31 272.81Z" fill="#2AC5C5"/>
<path d="M222.08 265.39C227.858 264.869 233.667 264.772 239.46 265.1C242.33 265.31 245.18 265.64 248.03 266.04C249.45 266.24 250.88 266.39 252.3 266.53C253.794 266.715 255.306 266.715 256.8 266.53C256.93 266.53 256.96 266.71 256.8 266.74C255.416 267.057 254.013 267.284 252.6 267.42C251.228 267.515 249.852 267.515 248.48 267.42C245.56 267.24 242.65 266.93 239.73 266.72C233.85 266.3 227.97 265.87 222.07 265.88C221.82 265.88 221.81 265.42 222.08 265.39Z" fill="#263238"/>
<path d="M209 273C213.603 271.66 218.277 270.578 223 269.76C225.36 269.36 227.73 269.1 230.12 268.9C231.25 268.81 232.4 268.73 233.54 268.67C234.68 268.61 236.06 268.67 237.31 268.67C237.44 268.67 237.48 268.86 237.31 268.88C236.13 268.99 234.96 269.3 233.79 269.49L230.25 270.03C227.9 270.4 225.55 270.8 223.18 271.15C218.46 271.84 213.76 272.58 209.06 273.44C208.76 273.41 208.72 273.05 209 273Z" fill="#263238"/>
<path d="M208.38 406.09H122.87C132.87 343.27 144.87 278.93 156.42 246.55C181.28 176.74 201.57 174.07 201.57 174.07V174.15C201.68 177.1 204.57 256.23 206.79 339.92C207.39 362.1 207.94 384.6 208.38 406.09Z" fill="#EBEBEB"/>
<path d="M194.26 368.6C194.26 366.16 193.72 354.6 193.5 352.27C193.5 352 193.4 351.46 193.18 351.46C189.99 351.46 178.92 352.59 167.77 352.59C159.797 352.44 151.84 351.819 143.94 350.73C143.57 350.84 143.57 363.54 143.37 369.68C142.97 382.49 143.56 396.98 146.29 399.68C151.39 404.68 164.98 404.25 169.29 404.21C173.6 404.17 188.79 404.16 192.36 396.32C193.88 392.81 194.3 374.93 194.26 368.6ZM192.26 381.6C192.08 387.92 191.88 393.6 189.45 396.93C187.37 399.74 181.5 402.57 167.99 402.56C158.23 402.56 149.99 400.77 147.74 398.17C145.04 395.06 144.74 386.12 144.74 380.78C144.74 373.41 144.74 367.52 144.74 360.16C163.61 364.54 184.37 362.38 192.24 360.79C192.27 361.1 192.44 376.65 192.29 381.6H192.26ZM192.31 359.6C167.8 362.75 152.63 360.12 144.77 358.6C144.77 356.24 144.77 354.4 144.77 352.03C148.14 352.88 159.48 354.23 167.98 354.23C175.89 354.23 187.51 353.13 192.44 352.54C192.3 354.48 192.4 358.7 192.34 359.59L192.31 359.6Z" fill="#DBDBDB"/>
<path d="M199 206.89C194.19 226.8 169.45 297.62 163.3 303.76C155.97 311.08 124.01 333.59 112.87 303.62C105.15 282.87 157.61 210.13 182.4 186.62C194.5 175.21 207.05 173.53 199 206.89Z" fill="#EBEBEB"/>
<path d="M190.54 243.17C189.04 245.94 187.39 248.63 185.77 251.33C186.15 250.33 186.52 249.33 186.88 248.33C188.44 244.02 189.88 239.66 191.47 235.33C191.53 235.19 191.31 235.14 191.25 235.27C189.58 239.02 187.81 242.74 186.18 246.52C184.55 250.3 183.18 253.94 181.7 257.69C178.79 265.24 175.84 272.78 173.14 280.41C171.542 284.626 170.174 288.926 169.04 293.29C169.04 293.41 169.19 293.5 169.25 293.38C171.04 289.77 172.45 285.97 173.89 282.21C175.33 278.45 176.77 274.73 178.17 270.97C179.57 267.21 181.06 263.32 182.54 259.51C183.28 257.59 184.05 255.69 184.8 253.78C187.097 250.446 189.05 246.888 190.63 243.16C190.65 243.16 190.56 243.12 190.54 243.17Z" fill="#263238"/>
<path d="M200.67 174.16C198.003 179.787 195.417 185.453 192.91 191.16C190.41 196.86 187.83 202.52 185.41 208.26L185.11 208.98L185.76 209.42L196.25 216.51L196 215C193.15 219.26 190.39 223.57 187.61 227.87L187.34 228.29L187.49 228.75C190.3 237.46 193.01 246.2 195.96 254.87C198.91 263.54 201.8 272.22 204.9 280.87C202.52 272.017 200.027 263.207 197.42 254.44C194.9 245.64 192.14 236.92 189.48 228.16L189.36 229.04C192.18 224.77 195.02 220.51 197.78 216.19L198.35 215.29L197.48 214.72L186.86 207.82L187.22 208.98C189.6 203.23 191.8 197.41 194.1 191.63C196.4 185.85 198.53 180 200.67 174.16Z" fill="#DBDBDB"/>
<path d="M284.43 406.09H253.55C251.72 384.46 249.84 361.85 247.98 339.62C245.33 307.85 242.71 276.85 240.27 250.55C238.09 226.075 234.237 201.779 228.74 177.83C228.6 177.22 228.51 176.83 228.49 176.78C229.725 177.549 230.829 178.511 231.76 179.63C231.791 179.666 231.824 179.699 231.86 179.73L232.19 180.1C232.279 180.188 232.362 180.282 232.44 180.38C237.75 186.21 246.63 198.13 254.53 210.38C262.15 222.18 268.87 234.27 270.53 241.45L270.62 241.85C270.67 242.08 270.71 242.3 270.75 242.52C271.077 244.424 271.26 246.349 271.3 248.28C271.374 256.17 269.333 263.936 265.39 270.77C265.364 270.829 265.334 270.886 265.3 270.94C265.04 271.38 264.88 271.61 264.88 271.61V271.72L275 341L284.43 406.09Z" fill="#EBEBEB"/>
<path d="M260.06 220.52C257.06 215.7 253.93 210.93 250.96 206.07C250.87 205.93 251.09 205.77 251.19 205.9C254.19 209.9 257.19 213.9 260.1 217.97C259.1 215.8 258.19 213.62 257.32 211.4C257.22 211.15 257.57 210.94 257.69 211.19C259.04 214.04 260.25 216.94 261.45 219.86C264.062 223.48 266.376 227.306 268.37 231.3C272.5 239.79 274.28 249.07 272.04 258.35C271.433 260.914 270.527 263.398 269.34 265.75C268.54 267.35 265.93 270.83 265.95 270.93C267.65 280.41 268.95 290 270.26 299.54C271.57 309.08 272.98 318.84 274.11 328.54C274.74 334.02 275.11 339.54 275.95 345.01C275.95 345.21 275.67 345.29 275.64 345.09C274.95 340.33 273.92 335.62 273.07 330.88C272.22 326.14 271.43 321.4 270.66 316.64C269.12 307.04 267.74 297.4 266.35 287.77C265.57 282.33 264.71 276.88 264.09 271.41C264.02 270.81 266.48 266.93 267.21 265.41C268.182 263.396 268.979 261.301 269.59 259.15C270.842 254.777 271.229 250.202 270.73 245.68C269.68 236.46 264.9 228.25 260.06 220.52Z" fill="#263238"/>
<path d="M228.74 177.83C231.927 182.67 235.17 187.467 238.47 192.22C241.79 196.96 245.03 201.76 248.41 206.45L248.48 205.33L240.36 213.84L239.69 214.54L240.4 215.23C243.82 218.54 247.3 221.79 250.77 225.05L250.48 224.21C249.22 233.03 247.87 241.83 246.75 250.67C245.63 259.51 244.44 268.34 243.47 277.2C245.15 268.44 246.68 259.67 248.15 250.88C249.62 242.09 250.99 233.29 252.39 224.5L252.47 224L252.1 223.65C248.67 220.35 245.24 217.04 241.76 213.8V215.19L249.76 206.53L250.26 205.99L249.83 205.41C246.42 200.74 242.83 196.17 239.39 191.54C235.95 186.91 232.35 182.37 228.74 177.83Z" fill="#DBDBDB"/>
<path d="M189.7 189.07C188.89 177.24 203.22 172.54 212.08 171.32C222.57 169.88 229.56 170.75 234.61 180.93C239.93 191.66 242.72 204.11 244.81 215.86C245.2 218.05 248.62 217.5 248.23 215.3C245.82 201.77 242.36 176.52 228.88 169.18C216.47 162.41 184.88 169.58 186.28 189.62C186.43 191.85 189.85 191.28 189.7 189.07Z" fill="#455A64"/>
<path d="M255.42 220.77C255.683 222.335 255.474 223.942 254.821 225.388C254.169 226.833 253.101 228.052 251.753 228.89C250.406 229.727 248.84 230.145 247.255 230.09C245.669 230.036 244.136 229.511 242.85 228.583C241.563 227.655 240.582 226.365 240.03 224.878C239.478 223.39 239.381 221.773 239.751 220.23C240.121 218.687 240.941 217.29 242.107 216.214C243.273 215.139 244.733 214.434 246.3 214.19C247.331 214.023 248.385 214.061 249.401 214.301C250.417 214.541 251.376 214.98 252.223 215.591C253.07 216.202 253.788 216.974 254.337 217.862C254.885 218.751 255.253 219.739 255.42 220.77Z" fill="#263238"/>
<path d="M252.29 221.28C252.434 222.215 252.298 223.172 251.899 224.03C251.5 224.888 250.856 225.609 250.048 226.101C249.24 226.593 248.304 226.835 247.358 226.796C246.413 226.757 245.5 226.439 244.735 225.882C243.971 225.324 243.388 224.553 243.061 223.665C242.734 222.777 242.677 221.812 242.898 220.892C243.119 219.972 243.608 219.138 244.302 218.495C244.996 217.852 245.866 217.43 246.8 217.28C247.424 217.179 248.061 217.203 248.675 217.35C249.29 217.496 249.869 217.763 250.379 218.135C250.89 218.507 251.321 218.977 251.649 219.517C251.977 220.056 252.195 220.656 252.29 221.28Z" fill="#EBEBEB"/>
<path d="M201.73 226.13C210.48 259.36 209.13 267.48 206.37 271.3C204.29 273.973 201.62 276.129 198.57 277.6L197.57 275.41C200.235 274.102 202.575 272.216 204.42 269.89C206.42 267.13 208.06 259.65 199.42 226.74L201.73 226.13Z" fill="#C7C7C7"/>
<path d="M193.301 277.426L194.715 279.98C195.012 280.516 195.688 280.71 196.224 280.413L201.595 277.439C202.132 277.141 202.326 276.466 202.029 275.93L200.614 273.375C200.317 272.839 199.641 272.645 199.105 272.942L193.734 275.917C193.198 276.214 193.004 276.889 193.301 277.426Z" fill="#263238"/>
<path d="M180 227C173.41 252 171.82 265.76 175 270.15C176.845 272.474 179.185 274.356 181.85 275.66L180.85 277.86C177.8 276.388 175.13 274.233 173.05 271.56C169.27 266.34 170.61 253.25 177.68 226.39L180 227Z" fill="#C7C7C7"/>
<path d="M178.828 273.628L177.415 276.183C177.119 276.72 177.313 277.395 177.85 277.692L183.223 280.663C183.76 280.96 184.435 280.765 184.732 280.229L186.144 277.673C186.441 277.137 186.247 276.462 185.71 276.165L180.337 273.194C179.8 272.897 179.125 273.092 178.828 273.628Z" fill="#263238"/>
<path d="M176.87 225.3C177.97 219.757 179.409 214.287 181.18 208.92C182.228 206.551 183.893 204.507 186 203C186.48 202.95 186.27 198.73 186 195.29C185.78 192.29 185.46 188.71 186.19 187.73C186.611 187.277 187.193 187.006 187.811 186.974C188.428 186.943 189.034 187.153 189.5 187.56C190.33 188.45 190.38 192.01 190.5 195.06C190.62 198.51 190.86 202.72 191.34 202.72C193.472 204.103 195.238 205.979 196.49 208.19C198.821 213.487 200.747 218.952 202.25 224.54C203.02 228.1 201.85 228.54 200.83 228.9C199.39 229.39 198.47 228.4 197.34 224.46C195.54 218.22 193.27 207.71 188.92 207.74C184.61 208.18 182.86 219.31 181.48 225.52C180.61 229.41 179.79 229.78 178.3 229.44C177.26 229.19 176.19 228.75 176.87 225.3Z" fill="#263238"/>
<path d="M229.45 174.79C229.45 174.79 230.45 194.06 226.89 194.38C216.1 195.38 204.1 180.54 203.44 178.19C203.27 177.59 204.14 162.63 204.85 151C205.3 143.52 205.69 137.42 205.69 137.42L233.26 153.22L229.71 173.35L229.45 174.79Z" fill="#AD6359"/>
<path d="M233.26 153.22L229.71 173.35C224.229 171.58 219.182 168.675 214.899 164.824C210.615 160.973 207.191 156.263 204.85 151C205.3 143.52 205.69 137.42 205.69 137.42L209.16 139.26L233.26 153.22Z" fill="#263238"/>
<path d="M261.64 121.16C267.39 156.58 246.82 164.02 239.18 165.25C232.25 166.37 208.5 169.3 199.12 134.66C189.74 100.02 204.39 86.16 220.12 82.76C235.85 79.36 255.89 85.74 261.64 121.16Z" fill="#AD6359"/>
<path d="M253 116.79C252.172 116.739 251.347 116.642 250.53 116.5C249.651 116.52 248.79 116.249 248.08 115.73C247.89 115.523 247.773 115.259 247.747 114.979C247.722 114.699 247.79 114.418 247.94 114.18C248.308 113.764 248.779 113.452 249.305 113.276C249.832 113.101 250.396 113.068 250.94 113.18C252.096 113.235 253.189 113.724 254 114.55C254.166 114.746 254.273 114.984 254.31 115.238C254.346 115.492 254.31 115.751 254.205 115.985C254.101 116.219 253.932 116.419 253.719 116.562C253.506 116.704 253.256 116.783 253 116.79Z" fill="#263238"/>
<path d="M229 119.87C229.83 119.69 230.56 119.39 231.36 119.14C232.233 119 233.035 118.574 233.64 117.93C233.791 117.692 233.858 117.41 233.83 117.129C233.803 116.849 233.684 116.585 233.49 116.38C233.051 116.028 232.524 115.8 231.967 115.721C231.409 115.641 230.84 115.714 230.32 115.93C229.196 116.198 228.212 116.876 227.56 117.83C227.426 118.057 227.361 118.318 227.372 118.581C227.383 118.845 227.47 119.099 227.622 119.315C227.774 119.53 227.984 119.697 228.229 119.796C228.473 119.894 228.741 119.92 229 119.87Z" fill="#263238"/>
<path d="M235.73 127.94C235.73 127.85 235.56 128.07 235.57 128.17C235.93 130.59 235.93 133.42 233.82 134.48C233.76 134.48 233.82 134.63 233.82 134.61C236.49 133.93 236.46 130.17 235.73 127.94Z" fill="#263238"/>
<path d="M233.27 125.65C229.34 125.8 229.93 133.65 233.58 133.53C237.23 133.41 236.57 125.52 233.27 125.65Z" fill="#263238"/>
<path d="M231.76 126.18C231.11 126.68 230.49 127.52 229.67 127.66C228.85 127.8 227.93 127.06 227.25 126.31C227.18 126.24 227.11 126.31 227.12 126.42C227.21 127.92 227.91 129.42 229.54 129.53C231.17 129.64 231.99 128.21 232.25 126.66C232.3 126.38 232 126 231.76 126.18Z" fill="#263238"/>
<path d="M249.12 126.13C249.12 126.03 249.32 126.23 249.32 126.33C249.41 128.77 249.92 131.55 252.18 132.21C252.25 132.21 252.25 132.36 252.18 132.35C249.45 132.16 248.81 128.45 249.12 126.13Z" fill="#263238"/>
<path d="M251.12 123.43C255.02 122.87 255.86 130.71 252.25 131.23C248.64 131.75 247.85 123.91 251.12 123.43Z" fill="#263238"/>
<path d="M252.81 123.77C253.48 124.12 254.17 124.77 254.92 124.77C255.67 124.77 256.32 123.77 256.78 122.95C256.83 122.86 256.9 122.95 256.91 123.02C257.12 124.52 256.79 126.13 255.38 126.57C253.97 127.01 252.99 125.79 252.47 124.34C252.38 124.08 252.54 123.63 252.81 123.77Z" fill="#263238"/>
<path d="M237.76 147C238.36 147.55 238.97 148.32 239.86 148.37C240.769 148.325 241.658 148.09 242.47 147.68C242.486 147.672 242.505 147.669 242.523 147.673C242.54 147.676 242.557 147.686 242.568 147.7C242.58 147.714 242.586 147.731 242.587 147.75C242.587 147.768 242.581 147.786 242.57 147.8C242.241 148.282 241.79 148.668 241.263 148.917C240.736 149.167 240.151 149.272 239.57 149.22C239.066 149.108 238.606 148.849 238.25 148.475C237.894 148.101 237.657 147.629 237.57 147.12C237.49 147 237.67 147 237.76 147Z" fill="#263238"/>
<path d="M247.17 137.34C247.17 137.34 247.99 140.93 248.17 142.65C248.17 142.81 247.77 142.92 247.17 143.01C247.17 143.01 247.17 143.01 247.11 143.01C245.662 143.409 244.133 143.401 242.689 142.986C241.246 142.571 239.945 141.767 238.93 140.66C238.79 140.5 238.99 140.31 239.16 140.4C241.478 141.702 244.154 142.221 246.79 141.88C246.87 141.4 245.18 135.78 245.45 135.74C246.802 135.734 248.148 135.915 249.45 136.28C247.96 128.75 245.27 121.52 243.9 114C243.896 113.947 243.91 113.894 243.939 113.85C243.968 113.805 244.012 113.772 244.062 113.755C244.112 113.737 244.167 113.737 244.217 113.755C244.268 113.772 244.311 113.806 244.34 113.85C247.69 121.23 249.6 129.85 251.34 137.59C251.52 138.55 247.88 137.57 247.17 137.34Z" fill="#263238"/>
<path d="M245.22 142.67C244.415 143.827 243.322 144.754 242.05 145.36C241.348 145.676 240.563 145.761 239.81 145.6C238.17 145.25 238.07 143.76 238.31 142.47C238.442 141.78 238.657 141.109 238.95 140.47C240.748 141.86 242.948 142.631 245.22 142.67Z" fill="#263238"/>
<path d="M242.05 145.36C241.348 145.676 240.563 145.761 239.81 145.6C238.17 145.25 238.07 143.76 238.31 142.47C240.05 142.58 241.83 143.68 242.05 145.36Z" fill="#FF99BA"/>
<path d="M199.12 136C201.429 134.893 203.411 133.205 204.871 131.101C206.331 128.998 207.22 126.551 207.45 124C213.731 121.283 219.175 116.941 223.22 111.42C222.98 112.16 221.22 117.49 220.22 120.17C242.98 116.03 250.1 98.6601 250.1 98.6601C257.45 106.05 258.9 110.77 259.95 113.12C259.95 113.12 260.19 99.1201 253.05 89.7901C250.65 86.5519 247.353 84.0882 243.567 82.7037C239.782 81.3192 235.673 81.0746 231.75 82.0001C226.393 80.1499 220.609 79.9221 215.123 81.3452C209.636 82.7683 204.692 85.7791 200.91 90.0001C186.06 106 199.12 136 199.12 136Z" fill="#263238"/>
<path d="M237.54 116.54C233.878 118.521 229.942 119.947 225.86 120.77C225.81 120.77 225.86 120.77 225.86 120.77C232.259 119.053 238.055 115.591 242.6 110.77C244.53 108.709 246.19 106.411 247.54 103.93C249.124 101.274 250.167 98.3309 250.61 95.2702C250.62 95.2309 250.642 95.1959 250.674 95.1709C250.705 95.1459 250.745 95.1323 250.785 95.1323C250.825 95.1323 250.865 95.1459 250.896 95.1709C250.928 95.1959 250.951 95.2309 250.96 95.2702C250.855 98.353 250.229 101.396 249.11 104.27C247.871 107.036 246.14 109.554 244 111.7C242.082 113.611 239.904 115.24 237.53 116.54" fill="#263238"/>
<path d="M231.29 141C229.194 141.048 227.127 140.507 225.324 139.439C223.52 138.37 222.053 136.817 221.088 134.955C220.124 133.094 219.701 130.999 219.869 128.91C220.036 126.82 220.786 124.819 222.034 123.135C223.282 121.451 224.978 120.15 226.929 119.382C228.879 118.614 231.006 118.409 233.068 118.789C235.129 119.17 237.042 120.122 238.59 121.536C240.137 122.951 241.256 124.771 241.82 126.79C242.616 129.652 242.244 132.712 240.785 135.3C239.326 137.887 236.9 139.79 234.04 140.59C233.143 140.838 232.22 140.976 231.29 141ZM230.81 120.1C230.001 120.118 229.198 120.239 228.42 120.46C226.047 121.128 224.018 122.676 222.746 124.788C221.475 126.899 221.055 129.416 221.574 131.826C222.093 134.236 223.511 136.358 225.539 137.759C227.567 139.161 230.053 139.736 232.49 139.369C234.928 139.002 237.134 137.719 238.659 135.783C240.185 133.846 240.915 131.401 240.7 128.945C240.486 126.49 239.344 124.208 237.507 122.564C235.669 120.921 233.274 120.04 230.81 120.1Z" fill="#2AC5C5"/>
<path d="M256.72 137.3C252.44 137.4 248.45 133.1 247.63 127.3C247.195 124.541 247.636 121.716 248.89 119.22C249.367 118.121 250.117 117.163 251.07 116.438C252.023 115.712 253.146 115.243 254.332 115.075C255.518 114.908 256.727 115.047 257.844 115.481C258.961 115.914 259.948 116.626 260.71 117.55C262.606 119.606 263.809 122.205 264.15 124.98C265.01 131.09 262.01 136.59 257.45 137.23C257.209 137.274 256.965 137.297 256.72 137.3ZM255.11 116.5C254.92 116.49 254.73 116.49 254.54 116.5C253.6 116.679 252.717 117.08 251.964 117.67C251.211 118.26 250.609 119.021 250.21 119.89C249.108 122.108 248.726 124.615 249.12 127.06C249.86 132.36 253.5 136.25 257.24 135.72C260.98 135.19 263.41 130.45 262.67 125.16C262.374 122.703 261.327 120.398 259.67 118.56C259.097 117.916 258.395 117.4 257.609 117.045C256.823 116.691 255.972 116.505 255.11 116.5Z" fill="#2AC5C5"/>
<path d="M241.63 128.14L240.51 127.14C242 125.49 245.62 123.05 248.73 125.56L247.79 126.73C245 124.47 241.76 128 241.63 128.14Z" fill="#2AC5C5"/>
<path d="M192.61 138L191.2 137.5C191.43 136.84 193.55 131.03 196.78 130.03C199.78 129.1 219.95 128.16 220.78 128.13L220.85 129.62C215.08 129.88 199.54 130.74 197.21 131.46C195.09 132.08 193.17 136.36 192.61 138Z" fill="#2AC5C5"/>
<path d="M205.19 136.47C205.19 136.47 196.55 125.88 191.68 129.05C186.81 132.22 193.9 148 200 149.73C200.768 150.012 201.585 150.135 202.401 150.092C203.218 150.05 204.017 149.842 204.752 149.483C205.486 149.123 206.14 148.618 206.674 147.999C207.208 147.38 207.612 146.659 207.86 145.88L205.19 136.47Z" fill="#AD6359"/>
<path d="M193.83 133.51C193.809 133.51 193.788 133.519 193.773 133.534C193.758 133.549 193.75 133.569 193.75 133.59C193.75 133.611 193.758 133.632 193.773 133.647C193.788 133.662 193.809 133.67 193.83 133.67C198.12 135.05 200.61 138.76 202.45 142.67C201.09 141.22 199.34 140.5 197.38 142.13C197.28 142.22 197.38 142.38 197.51 142.35C198.226 142.062 199.014 142.003 199.764 142.182C200.515 142.361 201.192 142.77 201.7 143.35C202.548 144.325 203.289 145.387 203.91 146.52C204.13 146.88 204.79 146.63 204.62 146.21V146.11C204.27 140.76 199.58 133.62 193.83 133.51Z" fill="#263238"/>
<path d="M203.26 147.9C203.281 148.072 203.267 148.247 203.218 148.413C203.168 148.58 203.085 148.734 202.973 148.867C202.862 148.999 202.724 149.107 202.568 149.184C202.413 149.261 202.243 149.305 202.07 149.313C201.896 149.322 201.723 149.294 201.561 149.232C201.399 149.171 201.252 149.076 201.128 148.955C201.004 148.833 200.906 148.688 200.841 148.527C200.776 148.366 200.745 148.194 200.75 148.02C200.759 147.703 200.887 147.4 201.11 147.173C201.332 146.946 201.632 146.812 201.949 146.796C202.267 146.781 202.578 146.887 202.821 147.091C203.064 147.296 203.221 147.585 203.26 147.9Z" fill="white"/>
<path d="M199.64 145.9C199.645 146.004 199.63 146.107 199.595 146.205C199.56 146.303 199.507 146.393 199.437 146.47C199.367 146.547 199.283 146.61 199.189 146.655C199.095 146.699 198.994 146.725 198.89 146.73C198.786 146.735 198.683 146.72 198.585 146.685C198.487 146.65 198.397 146.596 198.32 146.527C198.243 146.457 198.18 146.373 198.135 146.279C198.091 146.185 198.065 146.084 198.06 145.98C198.049 145.77 198.122 145.565 198.263 145.41C198.404 145.254 198.601 145.161 198.81 145.15C199.02 145.139 199.225 145.212 199.38 145.353C199.536 145.494 199.629 145.69 199.64 145.9Z" fill="white"/>
<path d="M229.46 175.76L223.46 191.48L203.7 172.11L198.33 178.55C198.33 178.55 217.89 209.55 217.98 208.13L224.15 194.56L233.61 203.74L232.41 180.27L229.46 175.76Z" fill="#2AC5C5"/>
<path d="M233.7 192.1C233.38 188.23 233.15 184.33 232.7 180.48C232.7 180.34 232.46 180.28 232.43 180.48C231.73 184.23 233.06 199.02 233.11 202.57C232.72 202.17 224.35 194.5 224.27 194.63C222.92 196.79 218.39 206.63 218.08 207.57C214.99 202.65 201.89 183.25 198.25 178.57C198.231 178.54 198.202 178.518 198.167 178.509C198.132 178.501 198.096 178.506 198.065 178.525C198.035 178.544 198.013 178.573 198.004 178.608C197.996 178.643 198.001 178.68 198.02 178.71C200.77 183.92 217.71 209.52 217.94 209.44C220.335 204.774 222.488 199.988 224.39 195.1C225.81 196.78 234.27 205.45 234.29 204.88C234.32 200.613 234.123 196.347 233.7 192.1Z" fill="#263238"/>
<path d="M230.86 226.6C230.86 226.6 223.13 216.4 230.51 211.69C237.89 206.98 243.88 218.29 243.88 218.29L230.86 226.6Z" fill="#455A64"/>
<path d="M292 293.72L293.07 306.19L293.45 310.31L289.84 308.26L279 302L230.61 226.16L243.61 217.85L292 293.72Z" fill="#455A64"/>
<path d="M293.1 306.21L293.46 310.32L289.86 308.27L293.1 306.21Z" fill="#37474F"/>
<path d="M244.444 216.763L229.245 226.461L231.17 229.479L246.37 219.781L244.444 216.763Z" fill="#263238"/>
<path d="M246.562 220.11L231.363 229.809L233.288 232.827L248.488 223.128L246.562 220.11Z" fill="#263238"/>
<path d="M233.29 232.81L238.19 229.68L253 258.85L251.13 259.89L233.29 232.81Z" fill="#263238"/>
<path d="M203 253.37C210.43 251.9 233 315.42 222.15 318.11C173.99 330.11 134.56 322.55 125.22 318.11C112.97 312.24 111.95 296.51 117.07 289.25C126 276.66 191.48 255.66 203 253.37Z" fill="#AD6359"/>
<path d="M295.49 250C295.37 257.33 277.32 255.51 277.32 255.51C279.926 257.303 281.819 259.954 282.67 263C283.92 268.43 275.96 272.77 275.96 272.77C278.268 275.195 279.794 278.258 280.34 281.56C281.01 286.88 273.6 292.4 273.6 292.4C274.498 295.797 274.143 299.404 272.6 302.56C268.13 310.82 218.25 318.8 212.04 319.93L200.04 254.93C200.04 254.93 239.23 232.77 250.04 233.51C259.13 234.06 295.67 238.77 295.49 250Z" fill="#AD6359"/>
<path d="M277.18 255.27C267.66 252.27 257.44 251.58 247.58 251.01C247.535 251.01 247.492 251.028 247.46 251.06C247.428 251.092 247.41 251.135 247.41 251.18C247.41 251.225 247.428 251.269 247.46 251.3C247.492 251.332 247.535 251.35 247.58 251.35C257.4 251.8 267.33 254.89 277.11 255.74C277.168 255.741 277.224 255.72 277.268 255.683C277.312 255.645 277.34 255.593 277.349 255.536C277.357 255.478 277.345 255.42 277.314 255.371C277.283 255.323 277.235 255.287 277.18 255.27Z" fill="#263238"/>
<path d="M275.71 272C273.482 271.532 271.203 271.357 268.93 271.48C266.517 271.48 264.107 271.5 261.7 271.54C256.873 271.66 252.053 271.903 247.24 272.27C247.03 272.27 247 272.61 247.24 272.61C252.04 272.5 256.85 272.46 261.66 272.55C264.07 272.55 266.47 272.66 268.88 272.74C271.143 272.964 273.423 272.937 275.68 272.66C275.75 272.639 275.811 272.597 275.855 272.54C275.9 272.483 275.926 272.413 275.929 272.341C275.932 272.268 275.913 272.196 275.874 272.135C275.835 272.074 275.777 272.027 275.71 272Z" fill="#263238"/>
<path d="M273.39 292.37C271.53 291.77 269.2 292.14 267.27 292.23L260.67 292.5C256.28 292.65 251.89 292.8 247.49 292.8C247.27 292.8 247.25 293.14 247.49 293.14C251.96 293.14 256.43 293.25 260.89 293.23C263.09 293.23 265.28 293.23 267.48 293.17C269.34 293.17 271.68 293.32 273.48 292.59C273.505 292.575 273.524 292.552 273.533 292.525C273.543 292.497 273.542 292.468 273.531 292.441C273.52 292.414 273.499 292.392 273.474 292.379C273.448 292.366 273.418 292.363 273.39 292.37Z" fill="#263238"/>
<path d="M195.68 254.21L217.25 325.78C217.25 325.78 138.69 329.61 121.84 317.36C110.13 308.84 111.1 292.81 116.39 287.29C127.94 275.24 195.68 254.21 195.68 254.21Z" fill="#EBEBEB"/>
<path d="M196.55 323C193.16 313 180.77 271.8 178.69 262.71C178.55 262.08 178.91 261.84 179.15 262.47C190.03 292.06 194.15 312.92 196.94 322.85C197 323.12 196.64 323.27 196.55 323Z" fill="#263238"/>
<path d="M195.7 253.47C195.27 253.38 187.7 255.34 185.28 256.05C180.553 257.457 175.86 258.984 171.2 260.63C161.92 263.9 152.815 267.645 143.92 271.85L142.59 272.49C139.34 273.27 136.17 274.39 133.01 275.43C132.92 275.43 133.01 275.6 133.01 275.57C135.54 274.73 138.11 274.07 140.68 273.39C139.26 274.08 137.83 274.78 136.43 275.51C133.94 276.8 131.51 278.19 129.04 279.51C129.031 279.514 129.023 279.52 129.016 279.527C129.009 279.535 129.004 279.543 129.001 279.553C128.998 279.562 128.997 279.572 128.998 279.582C128.999 279.592 129.002 279.601 129.007 279.61C129.012 279.619 129.019 279.626 129.027 279.632C129.035 279.637 129.044 279.641 129.054 279.643C129.064 279.645 129.074 279.645 129.083 279.643C129.093 279.641 129.102 279.636 129.11 279.63C133.26 277.48 137.57 275.57 141.83 273.63C146.09 271.69 150.53 269.8 154.93 268.02C163.6 264.51 172.44 261.37 181.39 258.61C183.91 257.84 186.39 257.1 188.97 256.38C190.21 256.03 195.37 254.28 195.59 254.26C195.71 254.445 195.801 254.648 195.86 254.86C195.92 255.07 196.16 255.07 196.11 254.86C196.028 254.383 195.89 253.916 195.7 253.47Z" fill="#263238"/>
<path d="M206.34 326.1C204.06 325.94 195.65 326.35 193.4 326.35C188.86 326.35 184.33 326.35 179.79 326.27C170.67 326.03 161.59 325.37 152.51 324.5C150 324.26 147.51 323.99 144.97 323.72C142.43 323.45 139.7 323.25 137.12 322.78C137.02 322.78 136.98 322.92 137.12 322.94C139.38 323.27 141.6 323.8 143.85 324.19C146.1 324.58 148.36 324.92 150.63 325.24C155.17 325.88 159.73 326.33 164.3 326.71C173.42 327.46 182.6 327.71 191.75 327.54C194.33 327.49 203.96 327.09 206.46 326.54C206.71 326.53 206.6 326.12 206.34 326.1Z" fill="#263238"/>
<path d="M357.37 340.17L274.87 346.15L305.71 237.53L388.21 231.55L357.37 340.17Z" fill="white"/>
<path d="M363.01 339.76L280.52 345.74L311.36 237.12L393.85 231.14L363.01 339.76Z" fill="#37474F"/>
<path d="M320.12 236.5C319.911 237.435 319.519 238.32 318.966 239.102C318.414 239.885 317.711 240.551 316.9 241.06C316.15 241.54 315.9 240.53 316.61 240.06C317.65 239.374 318.426 238.355 318.81 237.17C318.86 236.98 318.92 236.76 318.95 236.57C319.127 235.915 319.127 235.225 318.95 234.57C318.864 234.288 318.684 234.045 318.44 233.88C318.417 233.868 318.396 233.851 318.38 233.83C318.38 233.83 318.29 233.83 318.28 233.83C318.227 233.837 318.173 233.837 318.12 233.83C317.922 233.807 317.722 233.838 317.54 233.92C317.19 234.072 316.881 234.305 316.64 234.6C316.343 234.952 316.094 235.342 315.9 235.76C315.781 235.964 315.675 236.174 315.58 236.39V236.54C315.543 236.609 315.516 236.683 315.5 236.76C315.5 236.76 315.44 236.85 315.45 236.9L314.28 236.99C314.518 236.242 314.855 235.53 315.28 234.87C315.59 234.302 316.018 233.807 316.536 233.419C317.053 233.031 317.648 232.759 318.28 232.62C318.751 232.569 319.223 232.703 319.597 232.994C319.97 233.286 320.215 233.711 320.28 234.18C320.421 234.955 320.366 235.752 320.12 236.5Z" fill="#2AC5C5"/>
<path d="M326.58 236C326.15 237.885 324.993 239.524 323.36 240.56C322.6 241.04 322.36 240.03 323.07 239.56C324.11 238.877 324.883 237.856 325.26 236.67C325.324 236.474 325.374 236.273 325.41 236.07C325.587 235.415 325.587 234.725 325.41 234.07C325.321 233.787 325.138 233.543 324.89 233.38C324.874 233.383 324.857 233.383 324.84 233.38C324.84 233.38 324.75 233.38 324.73 233.38H324.58C324.382 233.356 324.181 233.387 324 233.47C323.65 233.622 323.341 233.855 323.1 234.15C322.796 234.497 322.546 234.888 322.36 235.31C322.241 235.517 322.135 235.731 322.04 235.95V236.09C321.997 236.157 321.967 236.232 321.95 236.31C321.95 236.36 321.9 236.41 321.95 236.45L320.78 236.54C321.014 235.791 321.351 235.077 321.78 234.42C322.089 233.851 322.517 233.356 323.034 232.968C323.552 232.579 324.148 232.307 324.78 232.17C325.25 232.121 325.721 232.256 326.094 232.547C326.467 232.838 326.713 233.262 326.78 233.73C326.895 234.492 326.827 235.27 326.58 236Z" fill="#2AC5C5"/>
<path d="M333 235.56C332.568 237.45 331.407 239.092 329.77 240.13C329.02 240.6 328.77 239.59 329.48 239.13C330.523 238.447 331.299 237.427 331.68 236.24C331.68 236.05 331.8 235.84 331.83 235.65C331.999 234.994 331.999 234.306 331.83 233.65C331.748 233.366 331.567 233.122 331.32 232.96H331.26C331.26 232.96 331.18 232.96 331.16 232.96H331C330.806 232.93 330.608 232.958 330.43 233.04C330.077 233.191 329.765 233.425 329.52 233.72C329.223 234.072 328.974 234.462 328.78 234.88C328.66 235.08 328.57 235.3 328.46 235.52V235.66C328.425 235.73 328.398 235.804 328.38 235.88C328.38 235.93 328.33 235.98 328.38 236.02L327.21 236.11C327.444 235.361 327.78 234.647 328.21 233.99C328.519 233.423 328.948 232.929 329.465 232.543C329.983 232.156 330.578 231.886 331.21 231.75C331.68 231.696 332.152 231.828 332.526 232.118C332.9 232.407 333.145 232.832 333.21 233.3C333.321 234.059 333.249 234.834 333 235.56Z" fill="#2AC5C5"/>
<path d="M339.49 235.09C339.28 236.026 338.887 236.911 338.335 237.696C337.782 238.48 337.081 239.147 336.27 239.66C335.52 240.14 335.27 239.12 335.98 238.66C337.018 237.972 337.793 236.954 338.18 235.77C338.23 235.57 338.29 235.36 338.32 235.17C338.496 234.515 338.496 233.825 338.32 233.17C338.232 232.889 338.053 232.646 337.81 232.48H337.75C337.75 232.48 337.66 232.48 337.65 232.48H337.49C337.292 232.447 337.089 232.478 336.91 232.57C336.558 232.714 336.249 232.945 336.01 233.24C335.713 233.592 335.464 233.982 335.27 234.4C335.151 234.607 335.045 234.821 334.95 235.04V235.18C334.916 235.251 334.889 235.324 334.87 235.4C334.87 235.45 334.81 235.5 334.82 235.55L333.65 235.63C333.888 234.883 334.225 234.17 334.65 233.51C334.96 232.943 335.388 232.45 335.906 232.063C336.424 231.677 337.018 231.406 337.65 231.27C338.12 231.216 338.592 231.348 338.966 231.638C339.34 231.927 339.585 232.352 339.65 232.82C339.783 233.579 339.728 234.358 339.49 235.09Z" fill="#2AC5C5"/>
<path d="M346 234.62C345.569 236.507 344.412 238.149 342.78 239.19C342.02 239.67 341.78 238.65 342.49 238.19C343.528 237.504 344.301 236.485 344.68 235.3C344.744 235.104 344.794 234.903 344.83 234.7C345.008 234.045 345.008 233.355 344.83 232.7C344.741 232.415 344.558 232.168 344.31 232C344.293 232.003 344.277 232.003 344.26 232C344.26 232 344.17 232 344.15 232H344C343.802 231.971 343.6 232.003 343.42 232.09C343.071 232.238 342.762 232.468 342.52 232.76C342.218 233.112 341.969 233.506 341.78 233.93C341.659 234.133 341.553 234.343 341.46 234.56V234.7C341.419 234.769 341.389 234.843 341.37 234.92C341.37 234.97 341.32 235.02 341.37 235.07L340.2 235.15C340.434 234.401 340.771 233.687 341.2 233.03C341.511 232.464 341.939 231.971 342.457 231.584C342.974 231.198 343.569 230.927 344.2 230.79C344.669 230.739 345.14 230.872 345.513 231.161C345.887 231.45 346.133 231.873 346.2 232.34C346.317 233.105 346.248 233.887 346 234.62Z" fill="#2AC5C5"/>
<path d="M352.41 234.16C351.975 236.046 350.814 237.684 349.18 238.72C348.43 239.2 348.18 238.18 348.89 237.72C349.931 237.035 350.707 236.015 351.09 234.83C351.14 234.64 351.21 234.42 351.24 234.23C351.412 233.574 351.412 232.885 351.24 232.23C351.156 231.945 350.976 231.698 350.73 231.53H350.67C350.67 231.53 350.59 231.53 350.57 231.53C350.517 231.537 350.463 231.537 350.41 231.53C350.215 231.503 350.017 231.535 349.84 231.62C349.485 231.768 349.172 232.001 348.93 232.3C348.633 232.652 348.384 233.042 348.19 233.46C348.07 233.65 347.98 233.87 347.87 234.09V234.24C347.835 234.306 347.808 234.377 347.79 234.45C347.776 234.499 347.776 234.551 347.79 234.6L346.62 234.68C346.856 233.934 347.192 233.225 347.62 232.57C347.93 232.003 348.359 231.508 348.876 231.12C349.394 230.732 349.988 230.459 350.62 230.32C351.09 230.266 351.562 230.398 351.936 230.687C352.31 230.977 352.555 231.402 352.62 231.87C352.734 232.639 352.662 233.424 352.41 234.16Z" fill="#2AC5C5"/>
<path d="M358.86 233.69C358.651 234.625 358.259 235.51 357.707 236.292C357.154 237.075 356.451 237.74 355.64 238.25C354.89 238.73 354.64 237.72 355.35 237.25C356.39 236.564 357.166 235.545 357.55 234.36C357.6 234.17 357.66 233.95 357.69 233.76C357.867 233.105 357.867 232.415 357.69 231.76C357.604 231.478 357.424 231.235 357.18 231.07C357.157 231.058 357.136 231.041 357.12 231.02C357.12 231.02 357.03 231.02 357.02 231.02C356.967 231.027 356.913 231.027 356.86 231.02C356.662 230.996 356.461 231.028 356.28 231.11C355.93 231.262 355.621 231.495 355.38 231.79C355.079 232.139 354.83 232.53 354.64 232.95C354.521 233.154 354.415 233.364 354.32 233.58V233.73C354.284 233.801 354.254 233.874 354.23 233.95C354.23 233.95 354.18 234.04 354.23 234.09L353.06 234.18C353.298 233.432 353.635 232.72 354.06 232.06C354.37 231.492 354.798 230.997 355.316 230.609C355.833 230.221 356.428 229.949 357.06 229.81C357.531 229.759 358.003 229.893 358.377 230.184C358.75 230.476 358.995 230.901 359.06 231.37C359.189 232.148 359.12 232.946 358.86 233.69Z" fill="#2AC5C5"/>
<path d="M365.32 233.22C364.89 235.106 363.733 236.745 362.1 237.78C361.34 238.26 361.1 237.25 361.81 236.78C362.848 236.1 363.621 235.083 364 233.9C364.064 233.704 364.114 233.504 364.15 233.3C364.322 232.645 364.322 231.956 364.15 231.3C364.061 231.017 363.878 230.774 363.63 230.61C363.614 230.613 363.597 230.613 363.58 230.61C363.58 230.61 363.49 230.61 363.47 230.61H363.32C363.122 230.587 362.921 230.618 362.74 230.7C362.39 230.852 362.081 231.085 361.84 231.38C361.536 231.727 361.286 232.118 361.1 232.54C360.981 232.748 360.875 232.961 360.78 233.18V233.32C360.737 233.388 360.707 233.462 360.69 233.54C360.69 233.59 360.64 233.64 360.69 233.68L359.52 233.77C359.754 233.021 360.091 232.308 360.52 231.65C360.829 231.082 361.257 230.586 361.775 230.198C362.292 229.81 362.888 229.538 363.52 229.4C363.99 229.352 364.461 229.487 364.834 229.778C365.207 230.068 365.453 230.492 365.52 230.96C365.634 231.719 365.565 232.494 365.32 233.22Z" fill="#2AC5C5"/>
<path d="M371.78 232.75C371.348 234.64 370.187 236.282 368.55 237.32C367.8 237.79 367.55 236.78 368.26 236.32C369.303 235.637 370.079 234.617 370.46 233.43C370.51 233.24 370.58 233.03 370.61 232.84C370.779 232.184 370.779 231.496 370.61 230.84C370.528 230.556 370.347 230.311 370.1 230.15H370.04C370.04 230.15 369.96 230.15 369.94 230.15H369.78C369.586 230.12 369.388 230.148 369.21 230.23C368.857 230.381 368.545 230.614 368.3 230.91C368.003 231.262 367.754 231.652 367.56 232.07C367.44 232.27 367.35 232.49 367.24 232.71V232.85C367.206 232.921 367.179 232.994 367.16 233.07C367.16 233.12 367.16 233.17 367.16 233.21L365.99 233.3C366.224 232.551 366.56 231.837 366.99 231.18C367.299 230.613 367.728 230.119 368.245 229.733C368.763 229.346 369.358 229.076 369.99 228.94C370.46 228.886 370.932 229.018 371.306 229.308C371.68 229.597 371.925 230.022 371.99 230.49C372.101 231.249 372.029 232.024 371.78 232.75Z" fill="#2AC5C5"/>
<path d="M378.23 232.28C378.02 233.216 377.627 234.101 377.075 234.886C376.522 235.67 375.821 236.337 375.01 236.85C374.26 237.33 374.01 236.31 374.72 235.85C375.756 235.16 376.53 234.142 376.92 232.96C376.97 232.76 377.03 232.55 377.06 232.36C377.236 231.705 377.236 231.015 377.06 230.36C376.972 230.079 376.793 229.836 376.55 229.67H376.49C376.49 229.67 376.4 229.67 376.39 229.67H376.23C376.032 229.637 375.829 229.668 375.65 229.76C375.298 229.904 374.989 230.135 374.75 230.43C374.449 230.78 374.2 231.17 374.01 231.59C373.891 231.797 373.785 232.011 373.69 232.23V232.37C373.653 232.441 373.623 232.514 373.6 232.59C373.6 232.64 373.55 232.69 373.6 232.74L372.43 232.82C372.668 232.072 373.005 231.36 373.43 230.7C373.74 230.133 374.168 229.64 374.686 229.253C375.204 228.867 375.798 228.596 376.43 228.46C376.9 228.406 377.372 228.538 377.746 228.828C378.12 229.117 378.365 229.542 378.43 230.01C378.55 230.772 378.482 231.551 378.23 232.28Z" fill="#2AC5C5"/>
<path d="M384.69 231.81C384.259 233.697 383.102 235.339 381.47 236.38C380.71 236.86 380.47 235.84 381.18 235.38C382.218 234.694 382.991 233.675 383.37 232.49C383.434 232.294 383.484 232.093 383.52 231.89C383.692 231.235 383.692 230.546 383.52 229.89C383.431 229.605 383.248 229.358 383 229.19C382.983 229.193 382.967 229.193 382.95 229.19C382.95 229.19 382.86 229.19 382.84 229.19H382.69C382.492 229.161 382.29 229.193 382.11 229.28C381.761 229.428 381.452 229.658 381.21 229.95C380.908 230.304 380.656 230.698 380.46 231.12C380.343 231.323 380.239 231.533 380.15 231.75V231.89C380.109 231.958 380.079 232.033 380.06 232.11C380.06 232.16 380.01 232.21 380.06 232.26L378.89 232.34C379.124 231.591 379.461 230.877 379.89 230.22C380.201 229.654 380.629 229.161 381.147 228.774C381.664 228.388 382.259 228.117 382.89 227.98C383.359 227.929 383.83 228.061 384.203 228.351C384.577 228.64 384.823 229.063 384.89 229.53C385.007 230.295 384.938 231.077 384.69 231.81Z" fill="#2AC5C5"/>
<path d="M391.15 231.35C390.715 233.235 389.554 234.874 387.92 235.91C387.17 236.39 386.92 235.37 387.63 234.91C388.671 234.225 389.447 233.205 389.83 232.02C389.88 231.83 389.94 231.61 389.98 231.42C390.153 230.764 390.153 230.075 389.98 229.42C389.896 229.135 389.716 228.888 389.47 228.72H389.41C389.41 228.72 389.33 228.72 389.31 228.72C389.257 228.727 389.203 228.727 389.15 228.72C388.955 228.693 388.757 228.725 388.58 228.81C388.225 228.958 387.912 229.191 387.67 229.49C387.373 229.842 387.124 230.232 386.93 230.65C386.81 230.84 386.72 231.06 386.61 231.28V231.43C386.575 231.496 386.548 231.567 386.53 231.64C386.516 231.689 386.516 231.741 386.53 231.79L385.36 231.87C385.598 231.122 385.934 230.409 386.36 229.75C386.673 229.185 387.102 228.693 387.619 228.307C388.136 227.921 388.73 227.649 389.36 227.51C389.83 227.456 390.302 227.588 390.676 227.877C391.05 228.167 391.295 228.592 391.36 229.06C391.474 229.829 391.402 230.614 391.15 231.35Z" fill="#2AC5C5"/>
<path d="M389.79 255.56C394.16 264.49 405.02 275.56 405.99 282.85C406.292 284.646 406.006 286.492 405.175 288.113C404.345 289.735 403.014 291.045 401.38 291.85C401.38 291.85 408.75 295.42 408.53 302.21C408.41 305.71 402.73 308.59 402.73 308.59C402.73 308.59 408.5 311.71 407.94 317.74C407.48 322.54 401.86 324.74 401.86 324.74C401.86 324.74 406 330.29 404 335C399.89 344.62 358.48 345.1 351.91 329.92C348.84 322.85 358.96 323.28 358.96 323.28C358.96 323.28 344.56 319.15 344.24 310.61C343.92 302.07 357.04 303.43 357.04 303.43C357.04 303.43 343.12 299.3 343.68 290.43C344.27 281.19 357.16 284.79 357.16 284.79C357.16 284.79 347.88 278.65 349.87 271.95C353.15 260.89 370.74 274.55 379.87 272.29L384.72 257.22L389.79 255.56Z" fill="#AD6359"/>
<path d="M398.24 268.51C394.85 259.69 405.69 248.63 403.65 239.74C400.9 227.74 387.45 239.68 384.65 257.24L384.85 271.24L398.24 268.51Z" fill="#AD6359"/>
<path d="M401 325.19C401.13 325.19 401.18 325.37 401 325.4C387.42 328.88 371.43 328.54 358.32 323.4C357.89 323.23 357.98 322.46 358.49 322.56C373.09 325.26 386.21 326.55 401 325.19Z" fill="#263238"/>
<path d="M402.93 308.68C403.09 308.68 403.12 308.93 402.93 308.97C388.93 312.48 370.93 311.6 356.51 303.84C356.01 303.58 355.84 302.84 356.43 303.11C366.42 307.53 389.61 310 402.93 308.68Z" fill="#263238"/>
<path d="M356.25 283.91C370.36 290.81 385.25 292.5 400.82 292.03C401.02 292.03 401.01 292.31 400.82 292.36C393.27 294.66 383.33 293.93 375.64 292.7C368.482 291.698 361.711 288.84 356 284.41C355.78 284.23 356 283.77 356.25 283.91Z" fill="#263238"/>
<path d="M48.36 406.09L98.77 405.85L149.18 405.76L250 405.59L350.82 405.76L401.23 405.85L451.64 406.09L401.23 406.34L350.82 406.42L250 406.59L149.18 406.42L98.77 406.33L48.36 406.09Z" fill="#263238"/>
<path d="M110.21 363.64H65.79V430.28H110.21V363.64Z" fill="#2AC5C5"/>
<path d="M115.58 345.74H60.43V363.63H115.58V345.74Z" fill="#455A64"/>
<path d="M102.79 382.81H73.22V412.38H102.79V382.81Z" fill="white"/>
<path opacity="0.1" d="M65.79 363.64V368.83L90.8 378.28V430.27H102.79V363.64H65.79Z" fill="black"/>
<path d="M52 428.75C52 428.017 52.1447 427.29 52.4257 426.613C52.7068 425.935 53.1187 425.319 53.6379 424.801C54.1571 424.283 54.7734 423.872 55.4516 423.592C56.1297 423.312 56.8564 423.169 57.59 423.17H68.71C69.4441 423.169 70.1712 423.312 70.85 423.592C71.5287 423.872 72.1456 424.282 72.6657 424.801C73.1857 425.319 73.5985 425.934 73.8807 426.612C74.1628 427.29 74.3087 428.016 74.31 428.75C74.3073 430.234 73.7162 431.656 72.6663 432.704C71.6164 433.752 70.1935 434.34 68.71 434.34H57.63C56.8929 434.344 56.1623 434.203 55.4801 433.924C54.7978 433.645 54.1774 433.234 53.6543 432.714C53.1313 432.195 52.7159 431.578 52.432 430.897C52.1481 430.217 52.0013 429.487 52 428.75Z" fill="#455A64"/>
<path d="M52 428.75C52 428.017 52.1447 427.29 52.4257 426.613C52.7068 425.935 53.1187 425.319 53.6379 424.801C54.1571 424.283 54.7734 423.872 55.4516 423.592C56.1297 423.312 56.8564 423.169 57.59 423.17H63.14V434.36H57.63C56.8912 434.364 56.159 434.222 55.4755 433.942C54.7919 433.662 54.1706 433.249 53.6473 432.727C53.1239 432.206 52.709 431.586 52.4263 430.903C52.1435 430.221 51.9987 429.489 52 428.75Z" fill="#2AC5C5"/>
<path d="M128 428.75C127.999 429.484 127.853 430.211 127.571 430.889C127.289 431.567 126.876 432.182 126.356 432.7C125.836 433.218 125.219 433.629 124.54 433.909C123.861 434.188 123.134 434.332 122.4 434.33H111.37C110.636 434.332 109.909 434.188 109.23 433.909C108.551 433.629 107.934 433.218 107.414 432.7C106.894 432.182 106.482 431.567 106.199 430.889C105.917 430.211 105.771 429.484 105.77 428.75C105.77 427.265 106.36 425.841 107.41 424.791C108.46 423.74 109.885 423.15 111.37 423.15H122.44C123.918 423.161 125.332 423.756 126.374 424.805C127.416 425.854 128 427.272 128 428.75Z" fill="#455A64"/>
<path d="M128 428.75C127.999 429.484 127.853 430.211 127.571 430.889C127.289 431.567 126.876 432.182 126.356 432.7C125.836 433.218 125.219 433.629 124.54 433.909C123.861 434.188 123.134 434.332 122.4 434.33H116.9V423.15H122.44C123.918 423.161 125.332 423.756 126.374 424.805C127.416 425.854 128 427.272 128 428.75Z" fill="#2AC5C5"/>
<path d="M140.61 431C140.092 431.52 139.476 431.932 138.798 432.213C138.12 432.494 137.394 432.639 136.66 432.639C135.926 432.639 135.2 432.494 134.522 432.213C133.844 431.932 133.228 431.52 132.71 431L124.87 423.17C123.823 422.122 123.235 420.701 123.235 419.22C123.235 417.739 123.823 416.318 124.87 415.27C125.922 414.222 127.346 413.634 128.83 413.634C130.315 413.634 131.739 414.222 132.79 415.27L140.62 423.1C141.663 424.151 142.247 425.572 142.245 427.052C142.244 428.533 141.656 429.952 140.61 431Z" fill="#455A64"/>
<path d="M140.61 431C140.092 431.52 139.476 431.932 138.798 432.213C138.12 432.494 137.394 432.639 136.66 432.639C135.926 432.639 135.2 432.494 134.522 432.213C133.844 431.932 133.228 431.52 132.71 431L128.79 427.08L136.7 419.17L140.62 423.09C141.666 424.142 142.252 425.565 142.25 427.047C142.249 428.53 141.659 429.952 140.61 431Z" fill="#2AC5C5"/>
<path d="M89.94 439.94C89.9413 439.206 90.0872 438.48 90.3693 437.802C90.6515 437.124 91.0643 436.509 91.5843 435.991C92.1044 435.472 92.7213 435.062 93.4 434.782C94.0788 434.502 94.8059 434.359 95.54 434.36H106.61C107.344 434.359 108.071 434.502 108.75 434.782C109.429 435.062 110.046 435.472 110.566 435.991C111.086 436.509 111.499 437.124 111.781 437.802C112.063 438.48 112.209 439.206 112.21 439.94C112.207 441.424 111.616 442.846 110.566 443.894C109.516 444.942 108.093 445.53 106.61 445.53H95.54C94.0565 445.53 92.6336 444.942 91.5837 443.894C90.5338 442.846 89.9427 441.424 89.94 439.94Z" fill="#455A64"/>
<path d="M89.94 439.94C89.9413 439.206 90.0872 438.48 90.3693 437.802C90.6515 437.124 91.0643 436.509 91.5844 435.991C92.1044 435.472 92.7213 435.062 93.4 434.782C94.0788 434.502 94.8059 434.359 95.54 434.36H101.08V445.55H95.54C94.8038 445.55 94.0747 445.405 93.3947 445.123C92.7146 444.841 92.0968 444.428 91.5767 443.907C91.0565 443.386 90.6442 442.767 90.3634 442.086C90.0826 441.406 89.9387 440.677 89.94 439.94Z" fill="#2AC5C5"/>
<path d="M319.16 427.69L318.88 431.61C318.88 431.67 318.88 431.74 318.88 431.81C318.67 433.05 317.26 434.08 315.15 434.72C312.903 435.346 310.567 435.589 308.24 435.44L307.24 435.37C306.9 435.37 306.55 435.31 306.24 435.26C300.9 434.57 296.96 432.37 297.12 430.08L297.39 426.17C297.23 428.46 301.17 430.66 306.51 431.35L307.51 431.45C307.85 431.45 308.2 431.51 308.51 431.52C310.837 431.674 313.174 431.431 315.42 430.8C317.53 430.17 318.93 429.15 319.15 427.9C319.15 427.82 319.15 427.77 319.16 427.69Z" fill="#DBDBDB"/>
<path d="M301.1 423.06C303.34 422.435 305.669 422.191 307.99 422.34L306.46 431.34C306.79 431.34 307.14 431.42 307.46 431.44C307.78 431.46 308.14 431.5 308.46 431.52L309.99 422.52C315.49 423.22 319.5 425.52 319.09 427.89C318.89 429.14 317.48 430.16 315.37 430.81C313.123 431.436 310.787 431.679 308.46 431.53C308.12 431.53 307.77 431.53 307.46 431.45C307.15 431.37 306.77 431.39 306.46 431.35C300.96 430.65 296.95 428.35 297.36 425.98C297.57 424.73 299 423.7 301.1 423.06Z" fill="white"/>
<path d="M308 422.34L309 422.41L310 422.52L308.47 431.52C308.13 431.52 307.78 431.52 307.47 431.44C307.16 431.36 306.78 431.38 306.47 431.34L308 422.34Z" fill="#DBDBDB"/>
<path d="M318.54 434.91V438.83C318.535 438.897 318.535 438.964 318.54 439.03C318.65 440.28 319.98 441.43 322.02 442.23C324.209 443.034 326.518 443.463 328.85 443.5H329.85C330.19 443.5 330.54 443.5 330.85 443.5C336.23 443.24 340.34 441.36 340.36 439.06V435.14C340.36 437.43 336.23 439.31 330.85 439.58H329.85C329.517 439.599 329.183 439.599 328.85 439.58C326.519 439.546 324.21 439.12 322.02 438.32C319.96 437.52 318.65 436.38 318.54 435.12C318.535 435.05 318.535 434.98 318.54 434.91Z" fill="#DBDBDB"/>
<path d="M336.92 431.73C334.734 430.926 332.429 430.497 330.1 430.46L330.91 439.56C330.57 439.56 330.22 439.56 329.91 439.56H328.91L328.1 430.46C322.56 430.72 318.38 432.7 318.6 435.08C318.71 436.35 320.03 437.48 322.08 438.29C324.269 439.094 326.578 439.523 328.91 439.56H329.91C330.25 439.56 330.6 439.56 330.91 439.56C336.44 439.3 340.63 437.32 340.41 434.94C340.3 433.67 339 432.54 336.92 431.73Z" fill="white"/>
<path d="M330.1 430.46H329.1C328.76 430.46 328.427 430.46 328.1 430.46L328.91 439.56H329.91C330.25 439.56 330.6 439.56 330.91 439.56L330.1 430.46Z" fill="#DBDBDB"/>
<path d="M289.33 433.65C286.941 435.001 284.263 435.762 281.52 435.87C279.174 436.031 276.822 435.672 274.63 434.82C274.39 434.72 274.14 434.59 273.9 434.47C273.66 434.35 273.44 434.21 273.23 434.07C272.633 433.732 272.121 433.262 271.734 432.695C271.348 432.128 271.096 431.48 271 430.8L270.64 427.23C270.743 427.918 271.005 428.572 271.404 429.141C271.803 429.71 272.329 430.179 272.94 430.51C273.14 430.637 273.36 430.767 273.6 430.9C273.833 431.031 274.073 431.148 274.32 431.25C276.512 432.102 278.864 432.461 281.21 432.3C283.951 432.194 286.627 431.44 289.02 430.1C291.45 428.64 292.59 426.79 292.41 425.1L292.77 428.67C292.9 430.35 291.76 432.2 289.33 433.65Z" fill="#DBDBDB"/>
<path d="M274.28 431.25L274.48 433.33L289 424.62L288.65 421.05L272.87 430.51C273.06 430.64 273.29 430.77 273.53 430.9C273.77 431.03 274 431.14 274.28 431.25Z" fill="#2AC5C5"/>
<path d="M288.67 421.05C288.92 421.16 289.17 421.27 289.41 421.4C289.65 421.53 289.86 421.65 290.07 421.79L274.28 431.25C274.02 431.14 273.79 431.03 273.55 430.9C273.31 430.77 273.08 430.64 272.89 430.51L288.67 421.05Z" fill="#DBDBDB"/>
<path d="M290.07 421.79L290.43 425.35L274.63 434.81L274.28 431.25L290.07 421.79Z" fill="#DBDBDB"/>
<path d="M281.78 420C284.126 419.843 286.478 420.201 288.67 421.05L272.89 430.51C273.08 430.64 273.31 430.77 273.55 430.9C273.79 431.03 274.02 431.14 274.28 431.25L290.07 421.79C293.51 424.01 293.07 427.62 288.97 430.09C286.581 431.432 283.908 432.19 281.17 432.3C278.824 432.458 276.472 432.099 274.28 431.25C274.02 431.14 273.79 431.03 273.55 430.9C273.31 430.77 273.08 430.64 272.89 430.51C269.45 428.28 269.89 424.68 273.99 422.21C276.376 420.869 279.045 420.112 281.78 420Z" fill="white"/>
<path d="M347.05 430.77C349.436 432.12 352.11 432.881 354.85 432.99C357.199 433.152 359.555 432.794 361.75 431.94C361.99 431.84 362.24 431.71 362.48 431.59C362.72 431.47 362.94 431.33 363.14 431.19C363.748 430.859 364.271 430.391 364.668 429.824C365.066 429.256 365.326 428.605 365.43 427.92L365.79 424.35C365.685 425.037 365.423 425.691 365.024 426.26C364.625 426.829 364.1 427.298 363.49 427.63C363.29 427.757 363.07 427.887 362.83 428.02C362.597 428.151 362.357 428.268 362.11 428.37C359.915 429.224 357.559 429.582 355.21 429.42C352.472 429.318 349.798 428.564 347.41 427.22C344.98 425.76 343.84 423.91 344.01 422.22L343.65 425.79C343.48 427.48 344.62 429.32 347.05 430.77Z" fill="#DBDBDB"/>
<path d="M362.1 428.37L361.89 430.45L347.35 421.74L347.71 418.18L363.49 427.63C363.278 427.773 363.057 427.903 362.83 428.02C362.59 428.15 362.35 428.26 362.1 428.37Z" fill="#2AC5C5"/>
<path d="M347.71 418.18C347.46 418.28 347.21 418.4 346.97 418.52C346.73 418.64 346.52 418.77 346.3 418.91L362.1 428.37C362.35 428.26 362.59 428.15 362.83 428.02C363.057 427.903 363.278 427.773 363.49 427.63L347.71 418.18Z" fill="#DBDBDB"/>
<path d="M346.31 418.91L345.95 422.47L361.75 431.93L362.1 428.37L346.31 418.91Z" fill="#DBDBDB"/>
<path d="M354.59 417.13C352.247 416.963 349.896 417.322 347.71 418.18L363.49 427.63C363.278 427.773 363.057 427.903 362.83 428.02C362.59 428.15 362.35 428.26 362.1 428.37L346.3 418.91C342.87 421.14 343.3 424.74 347.41 427.21C349.799 428.553 352.472 429.31 355.21 429.42C357.556 429.588 359.91 429.229 362.1 428.37C362.35 428.26 362.59 428.15 362.83 428.02C363.057 427.903 363.278 427.773 363.49 427.63C366.93 425.4 366.49 421.8 362.39 419.33C360.002 417.987 357.328 417.233 354.59 417.13Z" fill="white"/>
<path d="M280.54 417.4L280.49 421.55C280.477 421.822 280.363 422.078 280.17 422.27C279.45 423.09 277.61 423.74 275.22 424.11C272.807 424.461 270.365 424.572 267.93 424.44L266.93 424.37L265.93 424.27C261.47 423.78 258.56 422.56 258.57 421.27L258.63 417.14C258.63 418.42 261.54 419.64 265.99 420.14C266.3 420.19 266.65 420.22 266.99 420.24L267.99 420.32C270.425 420.461 272.868 420.35 275.28 419.99C277.66 419.61 279.51 418.99 280.28 418.14C280.459 417.936 280.552 417.671 280.54 417.4Z" fill="#DBDBDB"/>
<path d="M267 420.23L266.94 424.37L265.94 424.27L265.99 420.13L267 420.23Z" fill="#DBDBDB"/>
<path d="M271.21 414.23L272.21 414.3C272.55 414.3 272.883 414.33 273.21 414.39L268.01 420.29L267.01 420.23L266.01 420.13L271.21 414.23Z" fill="#DBDBDB"/>
<path d="M273.2 414.39L273.14 418.53L267.94 424.44L268 420.29L273.2 414.39Z" fill="#DBDBDB"/>
<path d="M263.94 414.55C266.346 414.193 268.782 414.086 271.21 414.23L266 420.13L267 420.23L268 420.29L273.2 414.39C278.47 414.97 281.59 416.59 280.2 418.13C279.48 418.95 277.64 419.59 275.2 419.97C272.794 420.327 270.358 420.434 267.93 420.29L266.93 420.23L265.93 420.13C260.65 419.55 257.54 417.94 258.93 416.39C259.7 415.57 261.54 414.93 263.94 414.55Z" fill="white"/>
<path d="M307.57 417.72L307.63 421.86C307.632 421.995 307.661 422.129 307.716 422.253C307.771 422.377 307.851 422.488 307.95 422.58C308.67 423.4 310.51 424.05 312.9 424.43C315.31 424.781 317.748 424.891 320.18 424.76L321.18 424.68C321.5 424.68 321.84 424.63 322.18 424.58C326.64 424.09 329.55 422.87 329.53 421.58V417.44C329.53 418.73 326.62 419.95 322.17 420.44L321.17 420.54L320.17 420.61C317.738 420.761 315.298 420.65 312.89 420.28C310.5 419.91 308.66 419.28 307.94 418.44C307.831 418.352 307.743 418.243 307.679 418.119C307.615 417.995 307.578 417.859 307.57 417.72Z" fill="#DBDBDB"/>
<path d="M321.13 420.54L321.18 424.68C321.51 424.68 321.85 424.62 322.18 424.59L322.12 420.45L321.13 420.54Z" fill="#DBDBDB"/>
<path d="M316.91 414.54L315.91 414.61L314.91 414.7L320.11 420.61L321.11 420.54L322.11 420.45L316.91 414.54Z" fill="#DBDBDB"/>
<path d="M314.92 414.7L314.97 418.85L320.18 424.75L320.12 420.61L314.92 414.7Z" fill="#DBDBDB"/>
<path d="M324.17 414.86C321.767 414.508 319.335 414.401 316.91 414.54L322.11 420.45L321.11 420.54L320.11 420.61L314.91 414.7C309.63 415.29 306.52 416.9 307.91 418.44C308.63 419.26 310.47 419.91 312.86 420.28C315.269 420.64 317.708 420.751 320.14 420.61L321.14 420.54L322.14 420.45C327.43 419.87 330.54 418.25 329.14 416.71C328.42 415.89 326.57 415.24 324.17 414.86Z" fill="white"/>
<path d="M282.36 438.14L282.41 442.29C282.412 442.425 282.441 442.559 282.496 442.683C282.551 442.806 282.631 442.918 282.73 443.01C283.45 443.83 285.29 444.47 287.68 444.85C290.09 445.201 292.528 445.311 294.96 445.18L295.96 445.11L296.96 445.01C301.42 444.52 304.33 443.29 304.32 442.01L304.26 437.88C304.26 439.16 301.35 440.38 296.9 440.88L295.9 440.98L294.9 441.05C292.465 441.201 290.021 441.09 287.61 440.72C285.22 440.35 283.38 439.72 282.66 438.88C282.466 438.682 282.359 438.416 282.36 438.14Z" fill="#DBDBDB"/>
<path d="M295.91 441L295.97 445.15L296.97 445.05L296.91 440.91L295.91 441Z" fill="#DBDBDB"/>
<path d="M291.69 435L290.69 435.07L289.69 435.17L294.89 441.07L295.89 441L296.89 440.91L291.69 435Z" fill="#DBDBDB"/>
<path d="M289.7 435.13L289.75 439.27L294.96 445.17L294.9 441.03L289.7 435.13Z" fill="#DBDBDB"/>
<path d="M299 435.29C296.594 434.93 294.158 434.819 291.73 434.96L296.93 440.87L295.93 440.96L294.93 441.03L289.73 435.13C284.46 435.71 281.34 437.32 282.73 438.87C283.45 439.68 285.29 440.33 287.68 440.71C290.09 441.062 292.529 441.169 294.96 441.03L295.96 440.96L296.96 440.87C302.25 440.29 305.36 438.67 303.96 437.13C303.2 436.31 301.35 435.67 299 435.29Z" fill="white"/>
<path d="M387.26 347.8H421.91C424.159 347.8 426.316 348.693 427.906 350.284C429.497 351.874 430.39 354.031 430.39 356.28V432.54C430.39 433.381 430.056 434.187 429.462 434.781C428.867 435.376 428.061 435.71 427.22 435.71H382C381.159 435.71 380.353 435.376 379.758 434.781C379.164 434.187 378.83 433.381 378.83 432.54V356.27C378.833 354.031 379.72 351.884 381.3 350.298C382.879 348.711 385.021 347.813 387.26 347.8Z" fill="#2AC5C5"/>
<path d="M419.53 336.64H389.65V350.33H419.53V336.64Z" fill="#2AC5C5"/>
<path d="M430.39 376.43H378.79V411.22H430.39V376.43Z" fill="#EBEBEB"/>
<path d="M430.39 404.11H378.79V407.26H430.39V404.11Z" fill="#455A64"/>
<path d="M430.39 380.4H378.79V383.55H430.39V380.4Z" fill="#455A64"/>
<path d="M421.61 327.06H387.57V339.74H421.61V327.06Z" fill="#455A64"/>
<path d="M423.39 339.73H385.78V343.48H423.39V339.73Z" fill="#37474F"/>
<path d="M390.29 328.83H389.85C389.541 328.83 389.29 329.081 389.29 329.39V337.41C389.29 337.719 389.541 337.97 389.85 337.97H390.29C390.599 337.97 390.85 337.719 390.85 337.41V329.39C390.85 329.081 390.599 328.83 390.29 328.83Z" fill="#37474F"/>
<path d="M393.19 328.83H392.75C392.441 328.83 392.19 329.081 392.19 329.39V337.41C392.19 337.719 392.441 337.97 392.75 337.97H393.19C393.499 337.97 393.75 337.719 393.75 337.41V329.39C393.75 329.081 393.499 328.83 393.19 328.83Z" fill="#37474F"/>
<path d="M395.65 328.83H396.1C396.246 328.83 396.386 328.888 396.489 328.991C396.592 329.094 396.65 329.234 396.65 329.38V337.38C396.65 337.529 396.591 337.671 396.486 337.776C396.381 337.881 396.239 337.94 396.09 337.94H395.64C395.491 337.94 395.349 337.881 395.244 337.776C395.139 337.671 395.08 337.529 395.08 337.38V329.38C395.081 329.307 395.097 329.234 395.126 329.167C395.156 329.099 395.198 329.038 395.251 328.987C395.304 328.936 395.366 328.896 395.435 328.869C395.503 328.842 395.576 328.829 395.65 328.83Z" fill="#37474F"/>
<path d="M399 328.83H398.56C398.251 328.83 398 329.081 398 329.39V337.41C398 337.719 398.251 337.97 398.56 337.97H399C399.309 337.97 399.56 337.719 399.56 337.41V329.39C399.56 329.081 399.309 328.83 399 328.83Z" fill="#37474F"/>
<path d="M401.91 328.83H401.47C401.161 328.83 400.91 329.081 400.91 329.39V337.41C400.91 337.719 401.161 337.97 401.47 337.97H401.91C402.219 337.97 402.47 337.719 402.47 337.41V329.39C402.47 329.081 402.219 328.83 401.91 328.83Z" fill="#37474F"/>
<path d="M404.36 328.83H404.81C404.959 328.83 405.101 328.889 405.206 328.994C405.311 329.099 405.37 329.242 405.37 329.39V337.39C405.37 337.539 405.311 337.681 405.206 337.786C405.101 337.891 404.959 337.95 404.81 337.95H404.36C404.214 337.95 404.074 337.892 403.971 337.789C403.868 337.686 403.81 337.546 403.81 337.4V329.4C403.809 329.327 403.822 329.253 403.849 329.185C403.876 329.117 403.916 329.054 403.967 329.001C404.018 328.948 404.079 328.906 404.146 328.877C404.214 328.847 404.286 328.831 404.36 328.83Z" fill="#37474F"/>
<path d="M407.71 328.83H407.27C406.961 328.83 406.71 329.081 406.71 329.39V337.41C406.71 337.719 406.961 337.97 407.27 337.97H407.71C408.019 337.97 408.27 337.719 408.27 337.41V329.39C408.27 329.081 408.019 328.83 407.71 328.83Z" fill="#37474F"/>
<path d="M410.62 328.83H410.18C409.871 328.83 409.62 329.081 409.62 329.39V337.41C409.62 337.719 409.871 337.97 410.18 337.97H410.62C410.929 337.97 411.18 337.719 411.18 337.41V329.39C411.18 329.081 410.929 328.83 410.62 328.83Z" fill="#37474F"/>
<path d="M413.08 328.83H413.53C413.679 328.83 413.821 328.889 413.926 328.994C414.031 329.099 414.09 329.242 414.09 329.39V337.39C414.09 337.539 414.031 337.681 413.926 337.786C413.821 337.891 413.679 337.95 413.53 337.95H413.08C412.934 337.95 412.794 337.892 412.691 337.789C412.588 337.686 412.53 337.546 412.53 337.4V329.4C412.529 329.327 412.542 329.253 412.569 329.185C412.596 329.117 412.636 329.054 412.687 329.001C412.738 328.948 412.799 328.906 412.866 328.877C412.934 328.847 413.006 328.831 413.08 328.83Z" fill="#37474F"/>
<path d="M416.42 328.83H415.98C415.671 328.83 415.42 329.081 415.42 329.39V337.41C415.42 337.719 415.671 337.97 415.98 337.97H416.42C416.729 337.97 416.98 337.719 416.98 337.41V329.39C416.98 329.081 416.729 328.83 416.42 328.83Z" fill="#37474F"/>
<path d="M419.33 328.83H418.89C418.581 328.83 418.33 329.081 418.33 329.39V337.41C418.33 337.719 418.581 337.97 418.89 337.97H419.33C419.639 337.97 419.89 337.719 419.89 337.41V329.39C419.89 329.081 419.639 328.83 419.33 328.83Z" fill="#37474F"/>
<path d="M172.38 456.641L172.669 427.653L168.839 427.615L168.551 456.603L172.38 456.641Z" fill="#2AC5C5"/>
<path opacity="0.1" d="M172.38 456.641L172.669 427.653L168.839 427.615L168.551 456.603L172.38 456.641Z" fill="black"/>
<path d="M146.415 451.261L146.592 433.512L142.762 433.474L142.585 451.223L146.415 451.261Z" fill="#2AC5C5"/>
<path opacity="0.1" d="M146.415 451.261L146.592 433.512L142.762 433.474L142.585 451.223L146.415 451.261Z" fill="black"/>
<path d="M168.657 447.3L168.75 437.881L146.552 437.66L146.458 447.08L168.657 447.3Z" fill="#2AC5C5"/>
<path opacity="0.2" d="M165.06 447.26L166.37 437.85L168.74 437.88L168.64 447.29L165.06 447.26Z" fill="black"/>
<path d="M253.92 443C257.77 442.91 261.62 442.89 265.48 442.87H277.03L288.58 443.06L294.35 443.21C296.28 443.28 298.2 443.33 300.13 443.43C298.2 443.48 296.28 443.49 294.35 443.53H288.57H277.02L265.47 443.34C261.62 443.23 257.77 443.13 253.92 443Z" fill="#263238"/>
<path d="M251.169 453.318L251.375 432.569L172.629 431.786L172.423 452.535L251.169 453.318Z" fill="#2AC5C5"/>
<path opacity="0.6" d="M251.169 453.318L251.375 432.569L172.629 431.786L172.423 452.535L251.169 453.318Z" fill="white"/>
<path d="M251.198 450.59L251.35 435.3L176.333 434.554L176.181 449.843L251.198 450.59Z" fill="#2AC5C5"/>
<path d="M243.195 437.141L243.233 433.281L242.773 433.276L242.735 437.136L243.195 437.141Z" fill="#263238"/>
<path d="M241.66 437.151L241.699 433.291L241.239 433.286L241.2 437.146L241.66 437.151Z" fill="#263238"/>
<path d="M240.106 437.131L240.144 433.271L239.684 433.266L239.646 437.126L240.106 437.131Z" fill="#263238"/>
<path d="M238.561 437.121L238.6 433.261L238.14 433.257L238.101 437.116L238.561 437.121Z" fill="#263238"/>
<path d="M236.983 439.917L237.049 433.228L236.589 433.223L236.523 439.913L236.983 439.917Z" fill="#263238"/>
<path d="M235.541 437.092L235.58 433.232L235.12 433.227L235.081 437.087L235.541 437.092Z" fill="#263238"/>
<path d="M233.987 437.072L234.025 433.212L233.565 433.207L233.527 437.067L233.987 437.072Z" fill="#263238"/>
<path d="M232.442 437.042L232.481 433.182L232.021 433.178L231.982 437.037L232.442 437.042Z" fill="#263238"/>
<path d="M230.864 437.021L230.903 433.161L230.443 433.157L230.404 437.017L230.864 437.021Z" fill="#263238"/>
<path d="M229.309 439.848L229.376 433.159L228.916 433.154L228.849 439.844L229.309 439.848Z" fill="#263238"/>
<path d="M227.878 437.013L227.916 433.153L227.456 433.148L227.418 437.008L227.878 437.013Z" fill="#263238"/>
<path d="M226.313 436.973L226.351 433.113L225.891 433.109L225.853 436.969L226.313 436.973Z" fill="#263238"/>
<path d="M224.768 436.963L224.807 433.104L224.347 433.099L224.308 436.959L224.768 436.963Z" fill="#263238"/>
<path d="M223.224 436.974L223.262 433.114L222.802 433.109L222.764 436.969L223.224 436.974Z" fill="#263238"/>
<path d="M221.645 439.779L221.712 433.09L221.252 433.085L221.185 439.775L221.645 439.779Z" fill="#263238"/>
<path d="M220.204 436.934L220.242 433.074L219.782 433.07L219.744 436.929L220.204 436.934Z" fill="#263238"/>
<path d="M218.649 436.904L218.688 433.044L218.228 433.04L218.189 436.9L218.649 436.904Z" fill="#263238"/>
<path d="M217.105 436.904L217.143 433.044L216.683 433.04L216.645 436.9L217.105 436.904Z" fill="#263238"/>
<path d="M215.55 436.865L215.588 433.005L215.128 433L215.09 436.86L215.55 436.865Z" fill="#263238"/>
<path d="M213.982 439.691L214.048 433.001L213.588 432.996L213.522 439.686L213.982 439.691Z" fill="#263238"/>
<path d="M212.53 436.855L212.568 432.995L212.109 432.991L212.07 436.85L212.53 436.855Z" fill="#263238"/>
<path d="M210.976 436.825L211.014 432.965L210.554 432.961L210.516 436.821L210.976 436.825Z" fill="#263238"/>
<path d="M209.441 436.826L209.479 432.966L209.019 432.961L208.981 436.821L209.441 436.826Z" fill="#263238"/>
<path d="M207.886 436.786L207.925 432.926L207.465 432.921L207.426 436.781L207.886 436.786Z" fill="#263238"/>
<path d="M206.308 439.622L206.375 432.932L205.915 432.928L205.848 439.617L206.308 439.622Z" fill="#263238"/>
<path d="M204.866 436.776L204.905 432.917L204.445 432.912L204.406 436.772L204.866 436.776Z" fill="#263238"/>
<path d="M203.322 436.767L203.36 432.907L202.9 432.902L202.862 436.762L203.322 436.767Z" fill="#263238"/>
<path d="M201.777 436.747L201.816 432.887L201.356 432.882L201.317 436.742L201.777 436.747Z" fill="#263238"/>
<path d="M200.213 436.717L200.251 432.857L199.791 432.852L199.753 436.712L200.213 436.717Z" fill="#263238"/>
<path d="M198.644 439.553L198.711 432.863L198.251 432.859L198.184 439.548L198.644 439.553Z" fill="#263238"/>
<path d="M197.193 436.687L197.231 432.828L196.771 432.823L196.733 436.683L197.193 436.687Z" fill="#263238"/>
<path d="M195.648 436.678L195.687 432.818L195.227 432.813L195.188 436.673L195.648 436.678Z" fill="#263238"/>
<path d="M194.094 436.658L194.132 432.798L193.672 432.793L193.634 436.653L194.094 436.658Z" fill="#263238"/>
<path d="M192.549 436.648L192.587 432.788L192.127 432.784L192.089 436.643L192.549 436.648Z" fill="#263238"/>
<path d="M190.981 439.464L191.047 432.774L190.587 432.77L190.521 439.46L190.981 439.464Z" fill="#263238"/>
<path d="M189.529 436.619L189.567 432.759L189.107 432.754L189.069 436.614L189.529 436.619Z" fill="#263238"/>
<path d="M187.974 436.599L188.013 432.739L187.553 432.734L187.514 436.594L187.974 436.599Z" fill="#263238"/>
<path d="M186.42 436.569L186.458 432.709L185.998 432.704L185.96 436.564L186.42 436.569Z" fill="#263238"/>
<path d="M184.885 436.589L184.924 432.729L184.464 432.725L184.425 436.585L184.885 436.589Z" fill="#263238"/>
<path d="M183.297 439.385L183.363 432.695L182.903 432.691L182.837 439.38L183.297 439.385Z" fill="#263238"/>
<path d="M181.855 436.539L181.894 432.68L181.434 432.675L181.395 436.535L181.855 436.539Z" fill="#263238"/>
<path d="M180.311 436.54L180.349 432.68L179.889 432.676L179.851 436.535L180.311 436.54Z" fill="#263238"/>
<path d="M178.766 436.51L178.804 432.65L178.344 432.646L178.306 436.506L178.766 436.51Z" fill="#263238"/>
<path d="M177.211 436.51L177.25 432.65L176.79 432.646L176.752 436.506L177.211 436.51Z" fill="#263238"/>
<path d="M175.633 439.316L175.7 432.626L175.24 432.622L175.173 439.312L175.633 439.316Z" fill="#263238"/>
<path d="M251.168 453.311L251.375 432.562L245.435 432.502L245.229 453.251L251.168 453.311Z" fill="#263238"/>
<path d="M258.008 450.024L258.148 436.005L251.348 435.937L251.209 449.957L258.008 450.024Z" fill="#2AC5C5"/>
<path d="M266.2 444.88L266.23 441.27L258.09 440.54L258.04 445.45L266.2 444.88Z" fill="#2AC5C5"/>
<path opacity="0.1" d="M258.04 445.45L258.09 440.55L260.4 440.75L260 445.31L258.04 445.45Z" fill="black"/>
</g>
<defs>
<clipPath id="clip0_73_2">
<rect width="500" height="500" fill="white"/>
</clipPath>
</defs>
</svg>
