<svg width="800" height="484" viewBox="0 0 800 484" fill="none" xmlns="http://www.w3.org/2000/svg">
<g clip-path="url(#clip0_73_2)">
<rect width="800" height="484" fill="white"/>
<path d="M171.947 310.884C160.092 310.884 148.503 308.345 138.646 303.589C128.789 298.832 121.106 292.071 116.569 284.161C112.033 276.25 110.846 267.546 113.158 259.149C115.471 250.751 121.18 243.038 129.563 236.984C137.946 230.929 148.626 226.806 160.253 225.136C171.88 223.466 183.932 224.323 194.885 227.599C205.837 230.876 215.199 236.425 221.785 243.544C228.371 250.663 231.887 259.032 231.887 267.594C231.887 279.075 225.572 290.086 214.331 298.205C203.09 306.323 187.844 310.884 171.947 310.884ZM171.947 226.317C160.629 226.314 149.565 228.736 140.153 233.275C130.742 237.815 123.405 244.268 119.072 251.819C114.739 259.37 113.604 267.679 115.81 275.696C118.016 283.713 123.464 291.077 131.465 296.858C139.467 302.638 149.662 306.575 160.762 308.171C171.862 309.766 183.367 308.948 193.823 305.821C204.28 302.693 213.217 297.397 219.505 290.601C225.793 283.805 229.149 275.815 229.149 267.641C229.132 256.687 223.1 246.185 212.377 238.438C201.654 230.691 187.114 226.332 171.947 226.317Z" fill="#EBEBEB"/>
<path d="M168.934 317.003C168.026 317.003 167.119 316.933 166.212 316.886L166.439 314.968C167.297 314.968 168.172 315.061 169.047 315.085L168.934 317.003ZM178.459 316.828L178.2 314.921C179.075 314.862 179.933 314.78 180.808 314.698L181.165 316.606C180.274 316.699 179.383 316.769 178.459 316.828ZM156.784 315.833C155.893 315.693 155.018 315.529 154.127 315.365L154.823 313.505C155.666 313.669 156.524 313.821 157.367 313.961L156.784 315.833ZM190.528 315.213L189.799 313.353C190.642 313.189 191.419 313.002 192.31 312.803L193.136 314.64L190.528 315.213ZM145.168 313.107C144.326 312.85 143.548 312.581 142.673 312.3L143.807 310.557C144.601 310.837 145.427 311.095 146.205 311.341L145.168 313.107ZM202.014 312.054L200.848 310.323C201.641 310.042 202.468 309.761 203.18 309.457L204.444 311.153C203.602 311.458 202.792 311.762 201.965 312.054H202.014ZM134.363 308.919C133.601 308.556 132.84 308.182 132.111 307.749L133.731 306.181C134.428 306.555 135.157 306.918 135.886 307.257L134.363 308.919ZM212.495 307.468L210.875 305.912L212.949 304.742L214.569 306.239C213.84 306.672 213.176 307.082 212.447 307.468H212.495ZM124.74 303.396C124.076 302.94 123.428 302.484 122.796 302.004L124.74 300.67C125.356 301.126 125.971 301.571 126.603 302.004L124.74 303.396ZM221.648 301.606L219.721 300.284C220.32 299.828 220.903 299.36 221.486 298.88L223.479 300.144C222.863 300.647 222.264 301.126 221.632 301.606H221.648ZM116.64 296.739C116.105 296.212 115.587 295.674 115.02 295.124L117.239 294.06C117.725 294.574 118.228 295.101 118.746 295.604L116.64 296.739ZM229.23 294.68L227.011 293.627C227.48 293.1 227.95 292.562 228.404 292.024L230.688 293.007C230.218 293.51 229.732 294.106 229.23 294.68ZM110.338 289.181C109.933 288.584 109.561 288.011 109.188 287.391L111.634 286.618C111.991 287.203 112.347 287.788 112.72 288.338L110.338 289.181ZM235.078 286.841L232.632 286.092C232.972 285.507 233.296 284.922 233.604 284.325L236.099 285.004C235.694 285.624 235.354 286.232 234.997 286.841H235.078ZM106.078 280.874C105.835 280.242 105.624 279.61 105.413 278.967L108.005 278.522C108.2 279.142 108.41 279.751 108.653 280.359L106.078 280.874ZM238.804 278.393L236.212 277.972C236.407 277.364 236.569 276.744 236.731 276.124L239.355 276.463C239.112 277.13 238.934 277.75 238.723 278.393H238.804ZM103.891 272.169C103.804 271.514 103.739 270.859 103.696 270.203L106.272 270.11C106.272 270.742 106.337 271.373 106.466 272.005L103.891 272.169ZM240.376 269.607L237.719 269.536C237.719 268.905 237.719 268.273 237.719 267.641V267.442H240.392V267.629C240.359 268.308 240.343 268.94 240.295 269.607H240.376ZM106.434 263.476L103.777 263.312C103.777 262.657 103.955 262.002 104.069 261.358L106.709 261.592C106.612 262.224 106.515 262.844 106.434 263.476ZM237.022 260.843C236.893 260.223 236.763 259.591 236.601 258.983L239.225 258.632C239.387 259.276 239.533 259.919 239.663 260.574L237.022 260.843ZM108.54 255.099L105.964 254.596C106.213 253.964 106.472 253.332 106.742 252.7L109.285 253.285C108.977 253.882 108.734 254.49 108.54 255.099ZM234.317 252.56C234.025 251.951 233.734 251.39 233.426 250.77L235.921 250.091C236.245 250.699 236.552 251.32 236.844 251.94L234.317 252.56ZM112.622 247.119L110.16 246.3C110.549 245.704 110.954 245.13 111.391 244.534L113.74 245.434C113.4 245.996 112.995 246.558 112.622 247.131V247.119ZM229.586 244.779C229.165 244.229 228.728 243.679 228.274 243.141L230.558 242.147C231.028 242.708 231.482 243.317 231.919 243.855L229.586 244.779ZM118.649 239.818L116.494 238.648C117.029 238.122 117.58 237.595 118.114 237.081L120.204 238.251C119.702 238.801 119.167 239.304 118.649 239.818ZM223.009 237.724C222.458 237.233 221.918 236.753 221.389 236.285L223.398 235.01C223.997 235.501 224.581 236.004 225.148 236.507L223.009 237.724ZM126.36 233.395L124.513 232.003C125.177 231.547 125.842 231.102 126.522 230.669L128.288 232.108C127.672 232.529 127.024 232.951 126.36 233.395ZM214.763 231.628C214.099 231.207 213.419 230.809 212.738 230.458L214.358 228.949C215.071 229.359 215.768 229.768 216.464 230.201L214.763 231.628ZM135.545 228.118L134.071 226.516L136.372 225.451L137.765 227.101C137.052 227.381 136.307 227.721 135.578 228.072L135.545 228.118ZM205.205 226.714L202.921 225.79L204.169 224.094C204.979 224.41 205.789 224.725 206.55 225.065L205.205 226.714ZM145.93 224.012L144.877 222.245C145.703 221.988 146.497 221.742 147.388 221.508L148.36 223.298C147.533 223.532 146.723 223.766 145.93 224.012ZM194.53 223.041C193.703 222.818 192.91 222.619 192.035 222.421L192.861 220.584C193.72 220.794 194.594 221.005 195.437 221.227L194.53 223.041ZM157.14 221.368L156.541 219.496C157.415 219.343 158.306 219.215 159.214 219.086L159.7 220.981C158.76 221.098 157.966 221.227 157.14 221.368ZM183.173 220.841C182.315 220.736 181.456 220.642 180.581 220.56L180.922 218.653C181.829 218.735 182.736 218.84 183.627 218.946L183.173 220.841ZM168.804 220.209L168.674 218.29C169.582 218.29 170.489 218.29 171.412 218.232V220.162C170.537 220.162 169.663 220.174 168.788 220.209H168.804Z" fill="#EBEBEB"/>
<path d="M162.761 294.387H181.213V274.287H209.045V260.96H181.213V240.86H162.761V260.96H134.93V274.287H162.761V294.387Z" fill="#EBEBEB"/>
<path d="M675.265 90.3863C665.278 100.03 652.538 108.01 637.907 113.786C623.311 108.003 610.604 100.023 600.647 90.3863C587.493 77.8205 588.141 58.1411 606.949 53.8823C627.75 49.2023 637.972 71.795 637.972 71.795C637.972 71.795 648.34 49.0385 669.011 53.8823C687.69 58.34 688.403 77.8205 675.265 90.3863Z" fill="#EBEBEB"/>
<path d="M623.246 103.853L617.576 86.806L613.867 92.8198H590.976V90.8893H612.149L618.322 80.839L622.744 94.1302L628.997 66.5884L634.522 88.3738L638.879 79.2829L645.748 94.177L647.271 90.8893H684.887V92.8081H649.199L645.748 100.249L638.831 85.2616L633.712 95.932L629.143 77.8555L623.246 103.853Z" fill="white"/>
<path d="M637.972 121.871C626.117 121.871 614.528 119.332 604.671 114.575C594.814 109.818 587.132 103.057 582.595 95.1472C578.058 87.2369 576.871 78.5328 579.184 70.1353C581.497 61.7379 587.205 54.0243 595.588 47.9701C603.971 41.9159 614.651 37.793 626.278 36.1226C637.906 34.4522 649.958 35.3095 660.91 38.586C671.863 41.8626 681.224 47.4112 687.81 54.5302C694.397 61.6492 697.912 70.0188 697.912 78.5808C697.912 90.062 691.597 101.073 680.356 109.191C669.115 117.31 653.869 121.871 637.972 121.871ZM637.972 37.3032C626.655 37.3032 615.593 39.7268 606.183 44.2676C596.774 48.8084 589.44 55.2624 585.109 62.8134C580.779 70.3645 579.645 78.6734 581.853 86.6896C584.061 94.7057 589.511 102.069 597.513 107.848C605.515 113.628 615.71 117.563 626.809 119.158C637.909 120.752 649.413 119.934 659.869 116.806C670.324 113.679 679.26 108.382 685.548 101.586C691.835 94.7904 695.191 86.8008 695.191 78.6276C695.186 67.6665 689.158 57.1548 678.429 49.402C667.7 41.6491 653.149 37.2891 637.972 37.2798V37.3032Z" fill="#EBEBEB"/>
<path d="M635.04 127.99C634.133 127.99 633.226 127.92 632.318 127.861L632.545 125.943C633.404 126.001 634.279 126.036 635.17 126.071L635.04 127.99ZM644.582 127.815L644.323 125.896C645.197 125.837 646.072 125.767 646.931 125.685L647.287 127.592C646.38 127.674 645.408 127.756 644.501 127.815H644.582ZM622.89 126.82C621.999 126.68 621.124 126.516 620.249 126.352L620.93 124.492C621.772 124.656 622.631 124.808 623.489 124.948L622.89 126.82ZM656.635 126.188L655.906 124.34C656.748 124.164 657.526 123.989 658.417 123.79L659.243 125.627C658.303 125.826 657.428 126.013 656.554 126.2L656.635 126.188ZM611.275 124.094C610.432 123.837 609.655 123.567 608.78 123.287L609.914 121.543L612.311 122.327L611.275 124.094ZM668.137 123.029L666.97 121.298C667.748 121.029 668.59 120.736 669.287 120.444L670.55 122.128C669.627 122.444 668.817 122.748 668.007 123.029H668.137ZM600.469 119.894C599.708 119.531 598.963 119.157 598.217 118.724L599.837 117.156C600.55 117.53 601.263 117.881 601.992 118.232L600.469 119.894ZM678.602 118.443L676.982 116.898C677.695 116.524 678.375 116.138 679.055 115.728L680.675 117.238C679.93 117.659 679.217 118.01 678.472 118.443H678.602ZM590.879 114.383C590.215 113.927 589.567 113.459 588.935 112.991L590.863 111.657C591.467 112.101 592.083 112.546 592.709 112.991L590.879 114.383ZM687.787 112.593L685.859 111.259C686.459 110.803 687.042 110.335 687.625 109.867L689.634 111.13C688.905 111.622 688.289 112.16 687.658 112.593H687.787ZM582.795 107.726C582.26 107.187 581.742 106.661 581.175 106.111L583.378 105.035C583.864 105.561 584.366 106.076 584.885 106.591L582.795 107.726ZM695.401 105.643L693.166 104.59C693.635 104.052 694.105 103.525 694.559 102.975L696.843 103.97C696.244 104.532 695.758 105.14 695.272 105.643H695.401ZM576.493 100.132C576.088 99.5474 575.716 98.9623 575.359 98.3539L577.789 97.5817C578.146 98.155 578.502 98.7517 578.891 99.3016L576.493 100.132ZM701.233 97.7924L698.787 97.0436C699.127 96.4703 699.451 95.8736 699.759 95.2886L702.254 95.9672C701.719 96.599 701.46 97.2191 701.023 97.8158L701.233 97.7924ZM572.249 91.8371C572.006 91.2053 571.779 90.5618 571.568 89.93L574.16 89.4853C574.355 90.1054 574.582 90.7139 574.808 91.3223L572.249 91.8371ZM704.7 89.38L702.092 88.9588C702.286 88.3387 702.464 87.7187 702.61 87.0986L705.235 87.4379C705.137 88.0931 704.959 88.7599 704.7 89.38ZM569.77 83.1439C569.684 82.4965 569.619 81.8413 569.576 81.1783L572.233 81.0848C572.233 81.7166 572.346 82.3484 572.427 82.9685L569.77 83.1439ZM706.32 80.57L703.647 80.4998C703.647 79.868 703.647 79.2362 703.647 78.6044V78.4055H706.32V78.5926C706.32 79.2829 706.32 79.9382 706.32 80.57ZM572.443 74.4392L569.803 74.2754C569.803 73.6202 569.965 72.965 570.078 72.3098L572.735 72.5555C572.638 73.199 572.54 73.8307 572.459 74.4625L572.443 74.4392ZM703.08 71.8301C702.967 71.1983 702.821 70.5782 702.659 69.9581L705.283 69.607C705.445 70.2505 705.591 70.9058 705.721 71.5493L703.08 71.8301ZM574.565 66.0854L571.99 65.5823C572.233 64.9388 572.492 64.3187 572.767 63.6869L575.311 64.2719C575.1 64.8686 574.76 65.477 574.533 66.0854H574.565ZM700.375 63.5464C700.099 62.9497 699.791 62.3765 699.484 61.7681L701.978 61.0777C702.302 61.7017 702.61 62.3219 702.902 62.9381L700.375 63.5464ZM578.68 58.106L576.283 57.2752C576.671 56.6785 577.093 56.1052 577.514 55.5202L579.863 56.4212C579.425 56.9711 579.037 57.5444 578.648 58.106H578.68ZM695.644 55.766C695.223 55.2044 694.786 54.6662 694.332 54.128L696.616 53.1335C697.086 53.6834 697.54 54.3035 697.977 54.83L695.644 55.766ZM584.723 50.7935L582.552 49.6235C583.092 49.0853 583.632 48.5587 584.172 48.0439L586.262 49.2139C585.727 49.7755 585.193 50.2904 584.69 50.7935H584.723ZM689.067 48.7108C688.516 48.2194 687.949 47.7398 687.366 47.2601L689.375 45.9964C689.974 46.4878 690.557 46.9793 691.124 47.4941L689.067 48.7108ZM592.45 44.3701L590.603 42.9895C591.268 42.5332 591.932 42.0887 592.612 41.6558L594.346 43.13C593.698 43.5161 593.05 43.9372 592.418 44.3701H592.45ZM680.854 42.6035C680.189 42.194 679.509 41.7962 678.829 41.4335L680.449 39.9242C681.161 40.3337 681.858 40.7548 682.555 41.1877L680.854 42.6035ZM601.652 39.0935L600.161 37.5023C600.923 37.1279 601.684 36.7769 602.462 36.4376L603.855 38.0873C603.077 38.3681 602.332 38.7074 601.619 39.0467L601.652 39.0935ZM671.312 37.7012C670.567 37.3853 669.805 37.0694 669.028 36.7769L670.275 35.0804C671.085 35.3846 671.895 35.7122 672.656 36.0398L671.312 37.7012ZM612.036 35.0452L610.983 33.2786C611.804 33.0212 612.646 32.7754 613.51 32.5414L614.466 34.3316C613.559 34.5071 612.765 34.7528 611.955 34.9985L612.036 35.0452ZM660.636 34.0625C659.81 33.8519 659.016 33.6413 658.157 33.4541L658.967 31.6172C659.842 31.8161 660.701 32.0267 661.559 32.2607L660.636 34.0625ZM623.214 32.4011L622.615 30.5174C623.489 30.377 624.38 30.2365 625.288 30.1195L625.774 32.0033C624.85 32.0735 623.992 32.2139 623.149 32.3543L623.214 32.4011ZM649.247 31.8745C648.389 31.7692 647.53 31.6757 646.655 31.5938L646.996 29.6867C647.903 29.7686 648.81 29.8622 649.701 29.9792L649.247 31.8745ZM634.878 31.2427L634.765 29.3123C635.656 29.3123 636.563 29.3123 637.486 29.3123V31.2311C636.563 31.1492 635.688 31.1609 634.813 31.196L634.878 31.2427Z" fill="#EBEBEB"/>
<path d="M238.808 72.5264C249.838 43.5277 226.229 13.5621 186.077 5.59625C145.925 -2.36955 104.434 14.681 93.4047 43.6797C82.3751 72.6784 105.984 102.644 146.136 110.61C186.288 118.576 227.779 101.525 238.808 72.5264Z" fill="#EBEBEB"/>
<path d="M196.723 107.444C233.517 96.6103 251.184 66.2863 236.184 39.7132C221.183 13.1402 179.196 0.380682 142.403 11.2141C105.609 22.0476 87.9424 52.3716 102.943 78.9446C117.943 105.518 159.93 118.277 196.723 107.444Z" fill="#DBDBDB"/>
<path d="M169.565 107.995C206.785 107.995 236.957 86.2034 236.957 59.3226C236.957 32.4418 206.785 10.6506 169.565 10.6506C132.346 10.6506 102.173 32.4418 102.173 59.3226C102.173 86.2034 132.346 107.995 169.565 107.995Z" fill="white"/>
<path opacity="0.5" d="M235.451 48.98C204.671 62.4116 154.305 84.4427 126.117 96.5171C118.149 91.6645 111.845 85.5455 107.698 78.6395L200.88 16.22C209.605 19.5263 217.221 24.1726 223.194 29.8323C229.166 35.4919 233.35 42.0276 235.451 48.98Z" fill="#EBEBEB"/>
<path opacity="0.5" d="M236.925 61.0193C236.681 66.4354 235.175 71.7831 232.47 76.8377L148.408 105.549C144.744 104.681 141.194 103.581 137.797 102.262C163.183 91.6616 209.579 72.38 236.925 61.0193Z" fill="#EBEBEB"/>
<path d="M170.213 14.1841H168.917V21.5668H170.213V14.1841Z" fill="#C7C7C7"/>
<path d="M138.876 19.9824L137.754 20.4504L142.865 26.844L143.987 26.376L138.876 19.9824Z" fill="#C7C7C7"/>
<path d="M115.754 36.3337L115.106 37.1443L123.959 40.8356L124.607 40.025L115.754 36.3337Z" fill="#C7C7C7"/>
<path d="M117.288 58.8547H107.066V59.7907H117.288V58.8547Z" fill="#C7C7C7"/>
<path d="M123.961 77.7945L115.108 81.4858L115.756 82.2964L124.609 78.6051L123.961 77.7945Z" fill="#C7C7C7"/>
<path d="M142.863 91.7806L137.758 98.1768L138.881 98.6442L143.986 92.248L142.863 91.7806Z" fill="#C7C7C7"/>
<path d="M170.213 97.0903H168.917V104.473H170.213V97.0903Z" fill="#C7C7C7"/>
<path d="M196.27 91.7888L195.147 92.2568L200.259 98.6504L201.381 98.1824L196.27 91.7888Z" fill="#C7C7C7"/>
<path d="M215.927 77.1637L215.279 77.978L224.172 81.6694L224.82 80.8551L215.927 77.1637Z" fill="#C7C7C7"/>
<path d="M232.081 58.8547H221.859V59.7907H232.081V58.8547Z" fill="#C7C7C7"/>
<path d="M223.385 36.3553L214.532 40.0466L215.18 40.8572L224.033 37.1659L223.385 36.3553Z" fill="#C7C7C7"/>
<path d="M200.259 19.9896L195.151 26.3845L196.274 26.8522L201.382 20.4573L200.259 19.9896Z" fill="#C7C7C7"/>
<path d="M170.554 17.5185L172.773 62.6103L166.374 62.5518L168.82 17.5068L170.554 17.5185Z" fill="#C7C7C7"/>
<path d="M209.434 43.5978L167.443 62.9613L164.381 58.9015L208.607 42.498L209.434 43.5978Z" fill="#A6A6A6"/>
<path d="M171.72 59.3227C171.72 59.6351 171.592 59.9404 171.351 60.2002C171.111 60.4599 170.77 60.6624 170.37 60.7819C169.97 60.9015 169.531 60.9328 169.106 60.8718C168.682 60.8109 168.292 60.6604 167.986 60.4395C167.681 60.2186 167.472 59.9372 167.388 59.6308C167.304 59.3244 167.347 59.0068 167.512 58.7182C167.678 58.4296 167.958 58.1829 168.318 58.0094C168.678 57.8358 169.1 57.7432 169.533 57.7432C170.113 57.7432 170.669 57.9096 171.079 58.2058C171.49 58.502 171.72 58.9038 171.72 59.3227Z" fill="#C7C7C7"/>
<path d="M133.796 321.66L112.541 321.976L101.752 322.117C98.1396 322.117 94.5108 322.117 90.8982 322.175H90.1854V321.66L90.0882 308.568V307.971H90.8982L112.347 308.041C119.507 308.041 126.652 308.17 133.796 308.229H134.249V308.545C134.249 310.756 134.104 312.967 134.039 315.155L133.796 321.66ZM133.796 321.66L133.569 315.038C133.569 312.862 133.391 310.709 133.358 308.568L133.796 308.884C126.652 308.942 119.507 309.071 112.347 309.071L90.8982 309.153L91.7082 308.568V321.66L90.9792 321.134C94.5108 321.134 98.0424 321.134 101.59 321.192L112.25 321.333L133.796 321.66Z" fill="#EBEBEB"/>
<path d="M109.868 338.169L88.614 338.484L77.8248 338.625C74.2122 338.625 70.5834 338.625 66.9708 338.683H66.258V338.169L66.1608 325.1V324.503H66.9708L88.4196 324.573C95.5638 324.573 102.724 324.702 109.868 324.76H110.322V325.1C110.322 327.311 110.192 329.522 110.111 331.71L109.868 338.169ZM109.868 338.169L109.642 331.546C109.561 329.37 109.463 327.217 109.431 325.076L109.868 325.392C102.724 325.451 95.5638 325.579 88.4196 325.579L66.9708 325.65L67.7808 325.076L67.6998 338.169L66.9708 337.642C70.5024 337.642 74.034 337.642 77.5818 337.642L88.2414 337.782L109.868 338.169Z" fill="#EBEBEB"/>
<path d="M548.532 175.913L527.261 176.241L516.472 176.369C512.876 176.428 509.247 176.369 505.634 176.44H504.922V175.913L504.841 162.821V162.236H505.651L527.099 162.318C534.244 162.318 541.404 162.446 548.548 162.505H549.002V162.821C549.002 165.044 548.872 167.255 548.791 169.443L548.532 175.913ZM548.532 175.913L548.305 169.303C548.305 167.126 548.127 164.962 548.095 162.821L548.532 163.148C541.388 163.148 534.227 163.324 527.083 163.336L505.634 163.406L506.444 162.821L506.347 175.913L505.634 175.398C509.166 175.398 512.698 175.398 516.229 175.398L526.889 175.527L548.532 175.913Z" fill="#EBEBEB"/>
<path d="M524.605 192.422L503.334 192.75L492.48 192.89C488.884 192.89 485.255 192.89 481.642 192.96H480.913V192.434V179.341V178.756H481.723L503.172 178.838C510.316 178.838 517.46 178.967 524.621 179.025H525.058V179.341C525.058 181.564 524.912 183.776 524.848 185.964L524.605 192.422ZM524.605 192.422L524.378 185.811C524.297 183.635 524.183 181.471 524.151 179.33L524.605 179.657C517.444 179.716 510.3 179.833 503.156 179.844L481.707 179.915L482.517 179.33L482.42 192.422L481.707 191.907C485.239 191.907 488.77 191.907 492.302 191.966L502.961 192.094L524.605 192.422Z" fill="#EBEBEB"/>
<path d="M500.758 175.913L479.504 176.241L468.715 176.369C465.102 176.428 461.489 176.369 457.861 176.44H457.148V175.913L457.051 162.821V162.236H457.861L479.309 162.318C486.47 162.318 493.614 162.446 500.758 162.505H501.212V162.821C501.212 165.044 501.066 167.255 501.001 169.443L500.758 175.913ZM500.758 175.913L500.531 169.303C500.531 167.126 500.353 164.962 500.321 162.821L500.758 163.148C493.614 163.148 486.47 163.324 479.309 163.336L457.861 163.406L458.671 162.821L458.59 175.913L457.861 175.398C461.408 175.398 464.924 175.398 468.472 175.398L479.131 175.527L500.758 175.913Z" fill="#EBEBEB"/>
<path d="M743.029 338.169L721.759 338.484L710.969 338.625C707.373 338.625 703.744 338.625 700.132 338.683H699.403V338.169L699.322 325.1V324.503H700.132L721.58 324.573C728.725 324.573 735.885 324.702 743.029 324.76H743.467V325.1C743.467 327.311 743.337 329.522 743.256 331.71L743.029 338.169ZM743.029 338.169L742.802 331.546C742.802 329.37 742.608 327.217 742.592 325.076L743.029 325.392C735.885 325.451 728.725 325.579 721.58 325.579L700.132 325.65L700.942 325.076L700.844 338.169L700.132 337.642C703.663 337.642 707.195 337.642 710.726 337.642L721.386 337.782L743.029 338.169Z" fill="#EBEBEB"/>
<path d="M719.102 17.9631L697.831 18.2791L687.042 18.4194C683.446 18.4194 679.817 18.4195 676.204 18.478H675.54V17.9515V4.85915V4.26245H676.366L697.815 4.33265C704.959 4.33265 712.103 4.46135 719.264 4.51985H719.701V4.83575C719.701 7.05875 719.555 9.25835 719.491 11.4463L719.102 17.9631ZM719.102 17.9631L718.875 11.341C718.794 9.16475 718.681 7.01195 718.648 4.87085L719.102 5.18675C711.941 5.18675 704.797 5.37395 697.653 5.37395L676.204 5.45585L677.014 4.87085L676.917 17.9631L676.204 17.4367C679.736 17.4367 683.251 17.4367 686.799 17.5069L697.459 17.6356L719.102 17.9631Z" fill="#EBEBEB"/>
<path d="M743.029 34.472L721.759 34.7879L710.969 34.9283C707.373 34.9283 703.744 34.9283 700.132 34.9868H699.403V34.472L699.322 21.3797V20.783H700.132L721.58 20.8532C728.725 20.8532 735.885 20.9819 743.029 21.0404H743.467V21.3563C743.467 23.5676 743.337 25.7789 743.256 27.9668L743.029 34.472ZM743.029 34.472L742.802 27.8498C742.802 25.6736 742.608 23.5208 742.592 21.3797L743.029 21.6956C735.885 21.6956 728.725 21.8828 721.58 21.8828L700.132 21.9647L700.942 21.3797L700.844 34.472L700.132 33.9455C703.663 33.9455 707.195 33.9455 710.726 34.0157L721.386 34.1444L743.029 34.472Z" fill="#EBEBEB"/>
<path d="M133.796 17.9632L112.541 18.2791L101.752 18.4195C98.1396 18.4195 94.5108 18.4195 90.8982 18.478H90.1854V17.9515L90.0882 4.87087V4.27417H90.8982L112.347 4.34437C119.507 4.34437 126.652 4.47307 133.796 4.53157H134.249V4.84747C134.249 7.07047 134.104 9.27007 134.039 11.458L133.796 17.9632ZM133.796 17.9632L133.569 11.341C133.569 9.16477 133.391 7.01197 133.358 4.87087L133.796 5.18677C126.652 5.18677 119.507 5.37397 112.347 5.37397L90.8982 5.45587L91.7082 4.87087V17.9632L90.8982 17.3899C94.4298 17.3899 97.9614 17.3899 101.509 17.4601L112.169 17.5888L133.796 17.9632Z" fill="#EBEBEB"/>
<path d="M405 474.895C582.16 474.895 725.776 462.889 725.776 448.079C725.776 433.268 582.16 421.262 405 421.262C227.84 421.262 84.2238 433.268 84.2238 448.079C84.2238 462.889 227.84 474.895 405 474.895Z" fill="#EBEBEB"/>
<path d="M177.584 196.657H157.14V180.781H135.205V166.062H157.14V150.173H177.52V166.062H199.503V180.781H177.584V196.657ZM160.105 194.563H174.685V178.686H196.668V168.156H174.685V152.268H160.105V168.156H138.105V178.686H160.105V194.563Z" fill="#2AC5C5"/>
<path d="M671.733 301.607H651.337V285.73H629.354V271.011H651.337V255.123H671.733V271.011H693.716V285.73H671.733V301.607ZM654.253 299.512H668.833V283.635H690.817V273.105H668.833V257.24H654.253V273.129H632.254V283.659H654.253V299.512Z" fill="#2AC5C5"/>
<path d="M564.635 30.9504V45.669H542.651V61.5576H522.272V45.669H500.272V30.9504H522.272V15.0735H542.651V30.9504H564.635Z" fill="#2AC5C5"/>
<path d="M367.918 33.9804C372.146 33.8868 389.853 30.2949 404.498 40.743C418.365 50.6295 429.916 84.2553 433.982 91.404C438.048 98.5527 451.802 98.1198 456.84 106.31C461.214 113.412 454.345 117.004 454.766 122.526C455.107 126.82 462.397 132.471 458.444 139.327C454.864 145.563 446.067 145.353 441.304 147.728C436.541 150.103 435.245 159.077 426.222 162.505C417.199 165.933 407.398 160.621 402.343 161.241C397.289 161.861 393.773 173.76 377.055 174.685C360.337 175.609 353.338 166.073 346.081 164.868C338.823 163.663 322.477 169.08 313.308 163.827C304.139 158.574 300.98 150.524 296.784 147.915C292.588 145.306 285.347 146.628 279.434 140.135C273.521 133.641 281.524 128.165 281.459 121.953C281.459 117.624 275.351 114.336 277.571 107.456C280.633 98.0028 296.087 98.1666 299.813 88.3854C302.729 80.7219 305.143 48.6054 329.459 37.8999C346.307 30.5874 367.918 33.9804 367.918 33.9804Z" fill="#263238"/>
<path d="M433.091 89.6724C434.433 91.1373 436.252 92.3425 438.388 93.1824L444.496 95.9085C448.625 97.5298 452.375 99.6106 455.609 102.074C457.114 103.25 458.221 104.662 458.845 106.198C459.469 107.735 459.592 109.355 459.205 110.931C458.686 112.53 457.828 114.061 456.662 115.471C455.307 117.019 454.276 118.702 453.6 120.467C453.374 122.41 454.046 124.352 455.512 125.989C456.629 127.557 457.828 129.031 458.833 130.552C460.858 133.547 461.943 136.858 460.453 139.912C459.799 141.429 458.458 142.744 456.646 143.644C454.708 144.531 452.552 145.139 450.295 145.435C447.995 145.821 445.63 146.043 443.248 146.335C440.821 146.483 438.512 147.156 436.622 148.266C438.637 147.352 440.967 146.866 443.345 146.862C445.727 146.71 448.124 146.64 450.538 146.382C453.017 146.158 455.411 145.586 457.585 144.697C459.818 143.704 461.528 142.201 462.445 140.427C464.503 136.917 463.109 132.916 461.068 129.768C460.064 128.154 458.865 126.621 457.828 125.088C456.66 123.808 456.092 122.29 456.208 120.759C457.018 117.881 460.728 114.909 461.57 111.235C462.014 109.396 461.838 107.506 461.057 105.727C460.276 103.947 458.913 102.329 457.083 101.01C453.546 98.5693 449.494 96.5512 445.079 95.031L438.599 92.691C436.482 91.985 434.602 90.955 433.091 89.6724Z" fill="#263238"/>
<path d="M309.42 58.2581C306.083 64.0028 304.56 70.1687 302.26 76.0889C301.093 79.049 300.073 82.0442 298.615 84.899C297.961 86.2966 297.097 87.6383 296.039 88.9003C295.825 89.1927 295.546 89.4575 295.213 89.6842C294.918 89.9404 294.574 90.1649 294.192 90.3512C293.382 90.7958 292.572 91.2052 291.616 91.603C287.911 93.219 284.321 94.9684 280.859 96.8447C277.199 98.7979 274.47 101.525 273.051 104.649C272.39 106.248 272.301 107.943 272.792 109.574C273.386 111.139 274.386 112.608 275.74 113.903C278.316 116.395 280.778 118.899 281.588 122C281.426 118.841 279.029 115.986 276.858 113.377C275.727 112.141 274.925 110.765 274.493 109.317C274.185 107.896 274.386 106.442 275.076 105.093C276.558 102.348 279.106 99.9715 282.415 98.2487C285.859 96.4571 289.428 94.7935 293.107 93.2645C294.014 92.8316 294.921 92.387 295.812 91.8839C296.738 91.3463 297.509 90.6824 298.08 89.93C299.218 88.534 300.136 87.0506 300.818 85.5074C302.189 82.5416 303.303 79.5172 304.155 76.4516L306.617 67.3256C307.306 64.2661 308.241 61.2384 309.42 58.2581Z" fill="#263238"/>
<path d="M292.345 146.347C294.532 147.892 295.277 150.15 296.428 152.197C297.578 154.245 298.647 156.339 299.911 158.386C301.139 160.475 302.67 162.463 304.479 164.318C306.334 166.278 308.818 167.884 311.72 168.998C318.087 170.999 324.859 169.888 330.61 168.425C333.542 167.676 336.361 166.822 339.244 166.085C342.051 165.246 345.094 164.901 348.122 165.079C345.084 164.514 341.893 164.538 338.872 165.149C335.842 165.664 332.926 166.319 329.978 166.927C324.243 168.097 317.99 168.835 312.887 167.161C310.369 166.186 308.2 164.8 306.553 163.113C304.763 161.38 303.17 159.545 301.79 157.626C300.332 155.695 299.02 153.706 297.643 151.776C296.93 150.781 296.201 149.799 295.407 148.839C294.697 147.834 293.643 146.976 292.345 146.347Z" fill="#263238"/>
<path d="M451.413 414.125H311.089L302.746 288.771H428.134L451.413 414.125Z" fill="#37474F"/>
<path d="M388.865 288.771L374.042 373.667L374.026 373.795L373.702 375.562L373.102 379.037L372.422 382.91L372.179 384.29L371.984 385.402L366.979 414.125H311.089L302.746 288.771H388.865Z" fill="#263238"/>
<path d="M422.917 414.125H419.207C419.013 413.014 418.835 411.914 418.64 410.802C413.651 381.552 408.807 352.302 404.595 323.052C404.206 320.373 403.817 317.682 403.445 315.003C403.445 314.582 404.384 314.5 404.465 314.921C404.806 316.723 405.162 318.525 405.486 320.326C411.48 351.565 417.182 382.851 422.917 414.125Z" fill="#263238"/>
<path d="M415.4 288.678C415.406 288.709 415.406 288.74 415.4 288.771C415.028 290.023 410.929 303.759 405.518 320.361C405.227 321.262 404.935 322.175 404.627 323.087C402.23 330.33 399.622 337.993 396.981 345.317C391.279 361.218 385.43 375.468 381.445 380.16C381.011 380.741 380.409 381.248 379.679 381.646C378.383 382.196 375.629 383.179 372.211 384.337L369.943 385.097L367.999 385.741C360.223 388.315 350.876 391.263 346.55 392.562V392.808L345.044 414.149H212.868L226.865 353.309L243.761 288.736L415.4 288.678Z" fill="#37474F"/>
<path d="M391.1 377.469C375.723 381.512 360.86 386.511 346.68 392.41C346.572 392.455 346.491 392.528 346.453 392.615C346.416 392.701 346.424 392.794 346.477 392.876C346.529 392.958 346.623 393.023 346.738 393.058C346.854 393.093 346.983 393.096 347.101 393.065C362.054 388.385 377.314 383.986 391.894 378.756C392.131 378.68 392.315 378.539 392.408 378.365C392.501 378.191 392.494 377.997 392.388 377.826C392.283 377.655 392.088 377.522 391.847 377.455C391.605 377.388 391.337 377.393 391.1 377.469Z" fill="#263238"/>
<path d="M395.604 303.478C395.604 303.104 394.664 303.022 394.664 303.478C394.778 316.348 393.644 327.58 392.153 339.573C391.457 345.13 385.268 375.843 371.903 373.643C369.668 373.269 368.518 371.678 368.177 369.244C367.756 366.307 369.279 362.727 369.943 359.814C371.434 353.379 372.616 346.944 373.378 340.415C374.941 328.309 374.762 316.119 372.843 304.04C372.824 303.968 372.77 303.903 372.692 303.857C372.613 303.81 372.515 303.784 372.414 303.784C372.312 303.784 372.214 303.81 372.136 303.857C372.057 303.903 372.004 303.968 371.984 304.04C371.984 320.841 371.385 337.607 367.918 354.256C366.298 362.247 360.661 374.287 372.244 375.527C383.827 376.767 391.684 356.608 393.109 351.086C397.127 335.63 397.289 319.063 395.604 303.478Z" fill="#263238"/>
<path d="M372.26 374.427C371.063 376.499 370.056 378.625 369.247 380.792C368.395 382.47 367.972 384.246 367.999 386.034C367.999 386.373 368.68 386.408 368.923 386.174C370.314 384.602 371.363 382.886 372.033 381.085C373.054 379.107 374.123 377.153 375.062 375.164C375.198 374.896 375.18 374.6 375.013 374.341C374.846 374.082 374.543 373.882 374.171 373.784C373.8 373.686 373.39 373.699 373.031 373.82C372.673 373.94 372.395 374.159 372.26 374.427Z" fill="#263238"/>
<path d="M273.391 380.815C272.063 391.93 270.491 403.045 268.839 414.125H267.397C269.017 403.01 270.864 391.895 272.857 380.803C272.905 380.558 273.424 380.558 273.391 380.815Z" fill="#263238"/>
<path d="M364.095 176.58C376.196 205.082 428.571 306.883 463.693 322.397C486.68 332.541 602.138 338.309 624.348 330.868C636.676 326.726 632.837 259.381 618.305 259.007C600.178 258.539 511.061 256.807 501.196 253.403C491.33 249.998 424.764 185.706 399.395 166.226C355.671 132.623 356.027 157.603 364.095 176.58Z" fill="#AD6359"/>
<path d="M590.684 253.952L574.225 336.32C574.225 336.32 480.46 338.309 454.896 323.204C418.462 301.7 366.217 192.89 360.288 175.866C346.243 135.501 377.541 142.24 402.165 161.826C418.154 174.579 481.059 239.818 504.355 251.834C510.964 255.286 590.684 253.952 590.684 253.952Z" fill="#EBEBEB"/>
<path d="M551.124 332.284C553.052 320.057 563.468 270.274 566.725 259.592C566.951 258.855 567.664 258.773 567.567 259.592C563.015 296.318 554.607 320.432 551.804 332.342C551.723 332.623 551.075 332.6 551.124 332.284Z" fill="#263238"/>
<path d="M428.182 258.188L443.848 335.993C443.848 335.993 268.272 337.865 224.678 335.653C224.678 335.653 260.237 190.187 307.103 153.426C330.545 135.045 358.069 136.426 375.613 149.272C380.052 152.525 433.01 203.092 438.583 222.386C443.443 239.421 428.182 258.188 428.182 258.188Z" fill="#2AC5C5"/>
<path d="M359.77 249.506C369.131 248.896 378.541 248.783 387.925 249.167C392.575 249.413 397.192 249.799 401.809 250.267C404.109 250.501 406.426 250.676 408.726 250.84C411.147 251.056 413.595 251.056 416.016 250.84C416.227 250.84 416.275 251.051 416.016 251.086C413.774 251.456 411.501 251.722 409.212 251.881C406.99 251.992 404.76 251.992 402.538 251.881C397.807 251.671 393.093 251.308 388.363 251.062C378.837 250.571 369.311 250.068 359.753 250.08C359.348 250.08 359.332 249.541 359.77 249.506Z" fill="#263238"/>
<path d="M338.58 258.41C346.036 256.842 353.608 255.576 361.26 254.619C365.083 254.151 368.923 253.847 372.794 253.613C374.625 253.507 376.488 253.414 378.335 253.344C380.182 253.273 382.417 253.344 384.442 253.344C384.653 253.344 384.718 253.566 384.442 253.589C382.531 253.718 380.635 254.081 378.74 254.303L373.005 254.935C369.198 255.368 365.391 255.836 361.552 256.245C353.905 257.053 346.291 257.918 338.677 258.925C338.191 258.889 338.126 258.468 338.58 258.41Z" fill="#263238"/>
<path d="M337.576 414.125H199.049C215.249 340.626 234.689 265.348 253.4 227.463C293.674 145.786 326.543 142.662 326.543 142.662V142.755C326.722 146.207 331.403 238.789 335 336.706C335.972 362.657 336.863 388.982 337.576 414.125Z" fill="#EBEBEB"/>
<path d="M314.701 370.262C314.701 367.407 313.826 353.882 313.47 351.156C313.47 350.84 313.308 350.208 312.952 350.208C307.784 350.208 289.85 351.53 271.787 351.53C258.871 351.355 245.98 350.628 233.183 349.354C232.583 349.483 232.583 364.342 232.259 371.525C231.611 386.513 232.567 403.466 236.99 406.625C245.252 412.475 267.268 411.972 274.25 411.926C281.232 411.879 305.84 411.867 311.623 402.694C314.086 398.588 314.766 377.668 314.701 370.262ZM311.461 385.472C311.17 392.866 310.846 399.512 306.909 403.408C303.539 406.696 294.03 410.007 272.144 409.995C256.333 409.995 242.984 407.901 239.339 404.859C234.965 401.22 234.479 390.76 234.479 384.512C234.479 375.89 234.479 368.998 234.479 360.387C265.048 365.512 298.679 362.985 311.429 361.124C311.477 361.487 311.753 379.68 311.51 385.472H311.461ZM311.542 359.732C271.836 363.417 247.261 360.34 234.527 358.562C234.527 355.801 234.527 353.648 234.527 350.875C239.987 351.869 258.358 353.449 272.128 353.449C284.942 353.449 303.766 352.162 311.753 351.472C311.526 353.742 311.688 358.679 311.591 359.72L311.542 359.732Z" fill="#DBDBDB"/>
<path d="M322.38 181.061C314.588 204.356 274.509 287.215 264.546 294.399C252.671 302.963 200.896 329.3 182.849 294.235C170.343 269.958 255.328 184.852 295.488 157.345C315.09 143.996 335.421 142.03 322.38 181.061Z" fill="#EBEBEB"/>
<path d="M308.675 223.509C306.245 226.75 303.572 229.897 300.947 233.056C301.563 231.886 302.162 230.716 302.746 229.546C305.273 224.503 307.606 219.402 310.181 214.336C310.279 214.172 309.922 214.114 309.825 214.266C307.12 218.653 304.252 223.006 301.612 227.428C298.971 231.851 296.752 236.11 294.354 240.497C289.64 249.331 284.861 258.153 280.487 267.08C277.898 272.013 275.681 277.043 273.845 282.149C273.845 282.29 274.088 282.395 274.185 282.255C277.085 278.031 279.369 273.585 281.702 269.186C284.035 264.786 286.367 260.434 288.635 256.035C290.903 251.636 293.317 247.084 295.715 242.627C296.914 240.38 298.161 238.157 299.376 235.923C303.097 232.022 306.261 227.859 308.821 223.497C308.853 223.497 308.707 223.45 308.675 223.509Z" fill="#263238"/>
<path d="M325.085 142.767C320.765 149.35 316.575 155.98 312.514 162.657C308.464 169.326 304.285 175.948 300.364 182.664L299.878 183.506L300.931 184.021L317.925 192.317L317.52 190.55C312.903 195.534 308.432 200.577 303.928 205.608L303.491 206.099L303.734 206.637C308.286 216.828 312.676 227.054 317.455 237.198C322.234 247.342 326.916 257.497 331.938 267.618C328.082 257.259 324.043 246.952 319.82 236.695C315.738 226.399 311.267 216.196 306.958 205.947L306.763 206.977C311.332 201.981 315.932 196.997 320.404 191.942L321.327 190.889L319.918 190.222L302.713 182.149L303.296 183.506C307.152 176.779 310.716 169.97 314.442 163.207C318.168 156.444 321.619 149.6 325.085 142.767Z" fill="#DBDBDB"/>
<path d="M460.777 414.125H410.751C407.786 388.818 404.741 362.365 401.728 336.355C397.435 299.185 393.19 262.915 389.237 232.144C385.705 203.508 379.464 175.081 370.559 147.061C370.332 146.347 370.186 145.891 370.154 145.833C372.155 146.733 373.943 147.858 375.451 149.167C375.501 149.209 375.555 149.248 375.613 149.284L376.148 149.717C376.292 149.82 376.427 149.93 376.553 150.045C385.155 156.866 399.541 170.812 412.339 185.145C424.683 198.951 435.569 213.096 438.259 221.497L438.404 221.965C438.485 222.234 438.55 222.491 438.615 222.748C439.144 224.976 439.442 227.228 439.506 229.488C439.626 238.719 436.32 247.805 429.932 255.801C429.89 255.87 429.841 255.936 429.786 256C429.365 256.515 429.106 256.784 429.106 256.784V256.912L445.5 337.97L460.777 414.125Z" fill="#EBEBEB"/>
<path d="M421.297 197.008C416.437 191.369 411.367 185.788 406.555 180.102C406.409 179.938 406.766 179.751 406.928 179.903C411.788 184.583 416.648 189.263 421.362 194.025C419.742 191.486 418.268 188.935 416.858 186.338C416.696 186.045 417.263 185.8 417.458 186.092C419.645 189.427 421.605 192.82 423.549 196.236C427.78 200.472 431.529 204.948 434.759 209.621C441.45 219.554 444.334 230.412 440.705 241.269C439.721 244.269 438.253 247.175 436.331 249.927C435.035 251.799 430.807 255.871 430.839 255.988C433.593 267.08 435.699 278.3 437.821 289.462C439.943 300.623 442.228 312.043 444.058 323.392C445.079 329.803 445.678 336.262 447.039 342.662C447.039 342.896 446.585 342.989 446.537 342.755C445.419 337.186 443.75 331.675 442.373 326.129C440.996 320.584 439.717 315.038 438.469 309.469C435.974 298.237 433.739 286.958 431.487 275.691C430.223 269.326 428.83 262.949 427.826 256.55C427.712 255.848 431.698 251.308 432.88 249.53C434.455 247.173 435.746 244.723 436.736 242.205C438.764 237.089 439.391 231.736 438.583 226.445C436.882 215.658 429.138 206.052 421.297 197.008Z" fill="#263238"/>
<path d="M370.559 147.061C375.721 152.724 380.975 158.336 386.321 163.897C391.7 169.443 396.949 175.059 402.424 180.546L402.538 179.236L389.383 189.193L388.298 190.012L389.448 190.819C394.988 194.692 400.626 198.494 406.247 202.308L405.778 201.326C403.736 211.645 401.549 221.941 399.735 232.284C397.921 242.627 395.993 252.958 394.421 263.324C397.143 253.075 399.622 242.814 402.003 232.53C404.384 222.245 406.604 211.949 408.872 201.665L409.001 201.08L408.402 200.67C402.845 196.809 397.289 192.937 391.651 189.146V190.772L404.611 180.64L405.421 180.008L404.725 179.33C399.2 173.866 393.385 168.519 387.812 163.102C382.239 157.685 376.407 152.373 370.559 147.061Z" fill="#DBDBDB"/>
<path d="M307.314 160.212C306.002 146.371 329.216 140.872 343.57 139.444C360.563 137.759 371.887 138.777 380.068 150.688C388.687 163.242 393.206 177.809 396.592 191.556C397.224 194.118 402.764 193.475 402.133 190.901C398.228 175.071 392.623 145.528 370.786 136.94C350.681 129.019 299.506 137.408 301.774 160.855C302.017 163.464 307.557 162.797 307.314 160.212Z" fill="#455A64"/>
<path d="M413.78 197.301C414.206 199.131 413.869 201.012 412.811 202.703C411.753 204.395 410.023 205.821 407.84 206.801C405.658 207.78 403.121 208.269 400.553 208.205C397.985 208.141 395.501 207.527 393.416 206.441C391.332 205.355 389.742 203.847 388.849 202.106C387.955 200.366 387.797 198.474 388.396 196.669C388.996 194.864 390.324 193.228 392.213 191.97C394.102 190.712 396.467 189.888 399.006 189.602C400.676 189.407 402.383 189.451 404.03 189.732C405.676 190.013 407.23 190.526 408.602 191.241C409.974 191.956 411.137 192.859 412.026 193.899C412.914 194.938 413.511 196.095 413.78 197.301Z" fill="#263238"/>
<path d="M408.71 197.897C408.943 198.992 408.723 200.111 408.077 201.115C407.43 202.119 406.386 202.962 405.077 203.538C403.768 204.114 402.252 204.397 400.72 204.351C399.189 204.305 397.71 203.933 396.471 203.281C395.232 202.629 394.288 201.727 393.759 200.688C393.229 199.649 393.137 198.52 393.495 197.443C393.853 196.367 394.644 195.391 395.769 194.639C396.894 193.887 398.302 193.392 399.816 193.217C400.826 193.099 401.859 193.127 402.854 193.299C403.849 193.47 404.787 193.783 405.614 194.218C406.441 194.653 407.141 195.202 407.672 195.834C408.203 196.466 408.556 197.167 408.71 197.897Z" fill="#EBEBEB"/>
<path d="M326.803 203.572C340.978 242.451 338.791 251.952 334.319 256.421C330.949 259.548 326.625 262.07 321.683 263.792L320.063 261.23C324.38 259.699 328.171 257.492 331.16 254.771C334.4 251.542 337.057 242.791 323.06 204.286L326.803 203.572Z" fill="#C7C7C7"/>
<path d="M313.147 263.588L315.439 266.577C315.92 267.204 317.014 267.431 317.883 267.084L326.585 263.603C327.453 263.256 327.768 262.465 327.286 261.838L324.994 258.849C324.513 258.222 323.419 257.995 322.55 258.342L313.849 261.823C312.98 262.17 312.666 262.961 313.147 263.588Z" fill="#263238"/>
<path d="M291.6 204.59C280.924 233.84 278.348 249.939 283.5 255.075C286.489 257.794 290.28 259.996 294.597 261.522L292.977 264.096C288.036 262.374 283.711 259.852 280.341 256.725C274.217 250.617 276.388 235.302 287.842 203.876L291.6 204.59Z" fill="#C7C7C7"/>
<path d="M289.702 259.145L287.413 262.134C286.932 262.762 287.247 263.552 288.117 263.899L296.821 267.376C297.69 267.723 298.784 267.495 299.265 266.868L301.554 263.878C302.035 263.25 301.72 262.46 300.851 262.113L292.146 258.637C291.277 258.29 290.183 258.517 289.702 259.145Z" fill="#263238"/>
<path d="M286.529 202.601C288.311 196.115 290.643 189.715 293.512 183.436C295.21 180.665 297.906 178.273 301.32 176.51C302.098 176.451 301.757 171.514 301.32 167.489C300.964 163.979 300.445 159.79 301.628 158.644C302.311 158.114 303.252 157.797 304.253 157.76C305.254 157.722 306.236 157.968 306.99 158.445C308.335 159.486 308.416 163.651 308.61 167.22C308.804 171.256 309.193 176.182 309.971 176.182C313.424 177.8 316.286 179.995 318.314 182.582C322.09 188.779 325.21 195.174 327.645 201.712C328.892 205.877 326.997 206.392 325.345 206.813C323.012 207.386 321.521 206.228 319.691 201.618C316.775 194.317 313.097 182.02 306.05 182.056C299.068 182.57 296.233 195.592 293.998 202.858C292.588 207.409 291.26 207.842 288.846 207.445C287.161 207.152 285.428 206.637 286.529 202.601Z" fill="#263238"/>
<path d="M371.709 143.504C371.709 143.504 373.329 166.05 367.562 166.424C350.082 167.594 330.642 150.232 329.573 147.482C329.297 146.78 330.707 129.277 331.857 115.67C332.586 106.918 333.218 99.7812 333.218 99.7812L377.881 118.267L372.13 141.819L371.709 143.504Z" fill="#AD6359"/>
<path d="M377.881 118.267L372.13 141.819C363.251 139.748 355.075 136.349 348.136 131.844C341.197 127.338 335.65 121.827 331.857 115.67C332.586 106.918 333.218 99.7812 333.218 99.7812L338.839 101.934L377.881 118.267Z" fill="#263238"/>
<path d="M423.857 80.7572C433.172 122.199 399.848 130.903 387.472 132.342C376.245 133.653 337.77 137.081 322.574 96.5522C307.379 56.0234 331.112 39.8072 356.594 35.8292C382.077 31.8512 414.542 39.3158 423.857 80.7572Z" fill="#AD6359"/>
<path d="M409.86 75.6442C408.519 75.5838 407.183 75.4705 405.859 75.3049C404.435 75.3278 403.04 75.0112 401.89 74.404C401.581 74.1617 401.392 73.8528 401.351 73.525C401.31 73.1972 401.419 72.8688 401.663 72.5905C402.258 72.1034 403.021 71.7386 403.875 71.5331C404.728 71.3277 405.642 71.2888 406.523 71.4205C408.396 71.4842 410.167 72.0568 411.48 73.0234C411.749 73.2521 411.923 73.5311 411.982 73.8281C412.041 74.1252 411.982 74.4282 411.813 74.7022C411.643 74.9762 411.37 75.2101 411.025 75.3767C410.679 75.5434 410.275 75.6361 409.86 75.6442Z" fill="#263238"/>
<path d="M370.98 79.2477C372.325 79.0371 373.507 78.6861 374.803 78.3936C376.217 78.2295 377.516 77.7316 378.497 76.9779C378.741 76.699 378.849 76.3694 378.805 76.0411C378.761 75.7128 378.567 75.4043 378.254 75.1644C377.542 74.752 376.69 74.4855 375.786 74.3929C374.882 74.3003 373.961 74.3849 373.118 74.6379C371.297 74.9519 369.703 75.7444 368.647 76.8609C368.431 77.1267 368.325 77.432 368.343 77.7401C368.36 78.0483 368.501 78.3462 368.747 78.5981C368.993 78.8501 369.335 79.0454 369.731 79.1606C370.127 79.2758 370.561 79.3061 370.98 79.2477Z" fill="#263238"/>
<path d="M381.883 88.6898C381.883 88.5845 381.607 88.8419 381.623 88.9589C382.207 91.7903 382.207 95.1014 378.788 96.3416C378.691 96.3416 378.788 96.5171 378.788 96.4937C383.114 95.6981 383.065 91.2989 381.883 88.6898Z" fill="#263238"/>
<path d="M377.897 86.0104C371.531 86.1859 372.487 95.3704 378.4 95.23C384.313 95.0896 383.243 85.8583 377.897 86.0104Z" fill="#263238"/>
<path d="M375.451 86.6305C374.398 87.2155 373.394 88.1983 372.065 88.3621C370.737 88.5259 369.247 87.6601 368.145 86.7826C368.032 86.7007 367.918 86.7826 367.934 86.9113C368.08 88.6663 369.214 90.4213 371.855 90.55C374.495 90.6787 375.824 89.0056 376.245 87.1921C376.326 86.8645 375.84 86.4199 375.451 86.6305Z" fill="#263238"/>
<path d="M403.574 86.5719C403.574 86.4549 403.898 86.6889 403.898 86.8059C404.044 89.6607 404.87 92.9133 408.532 93.6855C408.645 93.6855 408.645 93.861 408.532 93.8493C404.109 93.627 403.072 89.2863 403.574 86.5719Z" fill="#263238"/>
<path d="M406.814 83.4131C413.132 82.7579 414.493 91.9307 408.645 92.5391C402.797 93.1475 401.517 83.9747 406.814 83.4131Z" fill="#263238"/>
<path d="M409.552 83.8108C410.638 84.2203 411.755 84.9808 412.97 84.9808C414.185 84.9808 415.238 83.8108 415.984 82.8514C416.065 82.7461 416.178 82.8514 416.194 82.9333C416.534 84.6883 416 86.572 413.716 87.0868C411.431 87.6016 409.844 86.1742 409.001 84.4777C408.856 84.1735 409.115 83.647 409.552 83.8108Z" fill="#263238"/>
<path d="M385.171 110.99C386.143 111.633 387.131 112.534 388.573 112.593C390.045 112.54 391.486 112.265 392.801 111.785C392.828 111.776 392.858 111.773 392.887 111.777C392.915 111.781 392.942 111.792 392.96 111.809C392.979 111.825 392.99 111.846 392.99 111.867C392.991 111.888 392.981 111.909 392.963 111.926C392.431 112.49 391.7 112.941 390.846 113.233C389.992 113.525 389.045 113.647 388.103 113.587C387.287 113.456 386.542 113.153 385.965 112.715C385.388 112.278 385.005 111.726 384.863 111.13C384.734 110.99 385.025 110.99 385.171 110.99Z" fill="#263238"/>
<path d="M400.415 99.6878C400.415 99.6878 401.744 103.888 402.035 105.9C402.035 106.088 401.387 106.216 400.415 106.322C400.415 106.322 400.415 106.322 400.318 106.322C397.973 106.788 395.495 106.779 393.157 106.293C390.819 105.808 388.711 104.867 387.067 103.572C386.84 103.385 387.164 103.163 387.439 103.268C391.194 104.791 395.529 105.398 399.8 105C399.929 104.438 397.192 97.8626 397.629 97.8158C399.819 97.8082 402 98.0209 404.109 98.4476C401.695 89.6375 397.337 81.1784 395.118 72.38C395.111 72.3179 395.134 72.2559 395.181 72.2039C395.228 72.1519 395.299 72.1128 395.38 72.0927C395.462 72.0726 395.55 72.0726 395.632 72.0929C395.714 72.1131 395.784 72.1524 395.831 72.2045C401.258 80.8391 404.352 90.9245 407.171 99.9803C407.462 101.103 401.566 99.9569 400.415 99.6878Z" fill="#263238"/>
<path d="M397.256 105.924C395.952 107.277 394.182 108.362 392.121 109.071C390.984 109.441 389.712 109.539 388.492 109.352C385.835 108.942 385.673 107.199 386.062 105.69C386.276 104.882 386.624 104.097 387.099 103.35C390.013 104.975 393.575 105.878 397.256 105.924Z" fill="#263238"/>
<path d="M392.121 109.071C390.984 109.441 389.712 109.54 388.492 109.352C385.835 108.943 385.673 107.199 386.062 105.69C388.881 105.819 391.765 107.106 392.121 109.071Z" fill="#FF99BA"/>
<path d="M322.574 98.1199C326.315 96.8245 329.526 94.8494 331.891 92.3881C334.257 89.9269 335.697 87.0639 336.069 84.0799C346.245 80.9009 355.063 75.8202 361.616 69.3613C361.228 70.2271 358.376 76.4632 356.756 79.5988C393.628 74.755 405.162 54.4321 405.162 54.4321C417.069 63.0784 419.418 68.6008 421.119 71.3503C421.119 71.3503 421.508 54.9703 409.941 44.0542C406.052 40.2655 400.712 37.383 394.579 35.7631C388.446 34.1432 381.791 33.857 375.435 34.9399C366.756 32.7751 357.386 32.5086 348.498 34.1736C339.611 35.8387 331.602 39.3613 325.474 44.2999C301.417 63.0199 322.574 98.1199 322.574 98.1199Z" fill="#263238"/>
<path d="M384.815 75.3516C378.882 77.6696 372.505 79.3375 365.893 80.3007C365.812 80.3007 365.893 80.3007 365.893 80.3007C376.26 78.2915 385.649 74.2408 393.012 68.6007C396.139 66.1892 398.828 63.5 401.015 60.5979C403.581 57.4902 405.271 54.0468 405.988 50.4657C406.004 50.4198 406.04 50.3789 406.091 50.3496C406.143 50.3204 406.206 50.3044 406.272 50.3044C406.337 50.3044 406.401 50.3204 406.452 50.3496C406.504 50.3789 406.54 50.4198 406.555 50.4657C406.384 54.0726 405.371 57.6327 403.558 60.9957C401.551 64.2319 398.746 67.1775 395.28 69.6888C392.173 71.924 388.645 73.8305 384.799 75.3516" fill="#263238"/>
<path d="M374.69 103.97C371.295 104.026 367.946 103.393 365.024 102.143C362.102 100.893 359.725 99.0752 358.163 96.8974C356.601 94.7196 355.916 92.2689 356.187 89.824C356.458 87.3791 357.674 85.0382 359.696 83.0676C361.717 81.0969 364.465 79.5757 367.624 78.6769C370.784 77.7781 374.23 77.5379 377.569 77.9834C380.909 78.429 384.008 79.5426 386.515 81.1974C389.022 82.8522 390.835 84.9819 391.748 87.3442C393.038 90.6923 392.435 94.2732 390.072 97.3005C387.709 100.328 383.779 102.554 379.145 103.49C377.692 103.78 376.196 103.941 374.69 103.97ZM373.912 79.5169C372.602 79.5374 371.301 79.679 370.04 79.9381C366.196 80.7201 362.91 82.5307 360.849 85.0014C358.789 87.4721 358.11 90.417 358.95 93.2366C359.79 96.0563 362.087 98.5386 365.373 100.178C368.658 101.818 372.685 102.491 376.634 102.062C380.583 101.632 384.157 100.132 386.628 97.8658C389.099 95.6 390.282 92.7392 389.935 89.8659C389.588 86.9926 387.738 84.3228 384.761 82.4001C381.784 80.4774 377.905 79.4464 373.912 79.5169Z" fill="#2AC5C5"/>
<path d="M415.886 99.6409C408.953 99.7579 402.489 94.7269 401.161 87.9409C400.456 84.7131 401.17 81.407 403.202 78.4873C403.974 77.2017 405.19 76.0807 406.734 75.2316C408.278 74.3825 410.097 73.8337 412.018 73.6377C413.94 73.4416 415.899 73.6049 417.708 74.1119C419.516 74.6189 421.115 75.4527 422.35 76.5334C425.422 78.9385 427.371 81.979 427.923 85.2265C429.316 92.3752 424.456 98.8102 417.069 99.559C416.679 99.61 416.283 99.6374 415.886 99.6409ZM413.278 75.3049C412.971 75.2933 412.662 75.2933 412.355 75.3049C410.833 75.5143 409.402 75.9835 408.181 76.6735C406.961 77.3634 405.987 78.2541 405.34 79.2712C403.554 81.866 402.937 84.7992 403.574 87.6601C404.773 93.8611 410.67 98.4124 416.729 97.7923C422.788 97.1722 426.724 91.6264 425.525 85.4371C425.047 82.5628 423.349 79.8657 420.665 77.7151C419.737 76.9619 418.599 76.3581 417.327 75.9429C416.054 75.5277 414.675 75.3103 413.278 75.3049Z" fill="#2AC5C5"/>
<path d="M391.441 88.9237L389.626 87.7537C392.04 85.8232 397.904 82.9684 402.943 85.9051L401.42 87.274C396.9 84.6298 391.651 88.7599 391.441 88.9237Z" fill="#2AC5C5"/>
<path d="M312.028 100.46L309.744 99.875C310.117 99.1028 313.551 92.3051 318.784 91.1351C323.644 90.047 356.319 88.9472 357.664 88.9121L357.777 90.6554C348.43 90.9596 323.255 91.9658 319.48 92.8082C316.046 93.5336 312.935 98.5412 312.028 100.46Z" fill="#2AC5C5"/>
<path d="M332.408 98.6696C332.408 98.6696 318.411 86.2793 310.522 89.9882C302.632 93.6971 314.118 112.16 324 114.184C325.244 114.513 326.567 114.657 327.89 114.608C329.213 114.558 330.508 114.315 331.698 113.894C332.887 113.473 333.947 112.883 334.812 112.159C335.678 111.434 336.331 110.591 336.733 109.679L332.408 98.6696Z" fill="#AD6359"/>
<path d="M314.005 95.2065C313.97 95.2065 313.937 95.2164 313.913 95.234C313.889 95.2515 313.875 95.2753 313.875 95.3001C313.875 95.325 313.889 95.3488 313.913 95.3663C313.937 95.3839 313.97 95.3937 314.005 95.3937C320.954 97.0083 324.988 101.349 327.969 105.924C325.766 104.227 322.931 103.385 319.756 105.292C319.594 105.397 319.756 105.584 319.966 105.549C321.126 105.212 322.402 105.143 323.618 105.353C324.835 105.562 325.93 106.04 326.754 106.719C328.128 107.859 329.329 109.103 330.334 110.428C330.691 110.849 331.76 110.557 331.484 110.066V109.949C330.917 103.689 323.32 95.3352 314.005 95.2065Z" fill="#263238"/>
<path d="M329.281 112.043C329.316 112.244 329.292 112.449 329.212 112.643C329.132 112.838 328.998 113.018 328.817 113.173C328.636 113.329 328.412 113.455 328.16 113.545C327.908 113.635 327.634 113.687 327.353 113.696C327.072 113.706 326.792 113.674 326.529 113.601C326.267 113.529 326.028 113.419 325.827 113.277C325.626 113.135 325.468 112.964 325.363 112.776C325.258 112.588 325.207 112.386 325.215 112.183C325.229 111.812 325.437 111.457 325.798 111.192C326.158 110.926 326.644 110.769 327.158 110.751C327.672 110.733 328.177 110.857 328.57 111.096C328.964 111.336 329.218 111.674 329.281 112.043Z" fill="white"/>
<path d="M323.417 109.703C323.425 109.824 323.401 109.946 323.344 110.06C323.288 110.175 323.201 110.28 323.088 110.37C322.975 110.46 322.839 110.534 322.687 110.586C322.535 110.638 322.37 110.668 322.202 110.674C322.034 110.68 321.866 110.662 321.707 110.622C321.549 110.581 321.403 110.518 321.278 110.436C321.153 110.355 321.052 110.256 320.979 110.147C320.907 110.037 320.866 109.918 320.857 109.797C320.84 109.551 320.958 109.311 321.186 109.129C321.414 108.947 321.733 108.838 322.072 108.825C322.412 108.813 322.744 108.898 322.996 109.063C323.248 109.228 323.4 109.458 323.417 109.703Z" fill="white"/>
<path d="M371.725 144.639L362.005 163.032L329.994 140.369L321.295 147.903C321.295 147.903 352.982 184.173 353.128 182.512L363.123 166.635L378.448 177.376L376.504 149.916L371.725 144.639Z" fill="#2AC5C5"/>
<path d="M378.594 163.757C378.076 159.229 377.703 154.666 376.974 150.161C376.974 149.998 376.585 149.927 376.537 150.161C375.403 154.549 377.557 171.853 377.638 176.007C377.006 175.539 363.447 166.565 363.317 166.717C361.13 169.244 353.792 180.757 353.29 181.857C348.284 176.1 327.062 153.402 321.165 147.927C321.135 147.891 321.086 147.865 321.03 147.856C320.974 147.846 320.915 147.852 320.865 147.874C320.816 147.896 320.78 147.931 320.767 147.971C320.753 148.012 320.762 148.055 320.792 148.09C325.247 154.186 352.69 184.138 353.063 184.045C356.942 178.585 360.43 172.985 363.512 167.267C365.812 169.232 379.517 179.376 379.55 178.709C379.598 173.716 379.279 168.725 378.594 163.757Z" fill="#263238"/>
<path d="M373.993 204.122C373.993 204.122 361.471 192.188 373.426 186.677C385.382 181.166 395.086 194.399 395.086 194.399L373.993 204.122Z" fill="#455A64"/>
<path d="M473.04 282.652L474.773 297.242L475.389 302.062L469.541 299.664L451.98 292.34L373.588 203.607L394.648 193.884L473.04 282.652Z" fill="#455A64"/>
<path d="M474.822 297.266L475.405 302.074L469.573 299.676L474.822 297.266Z" fill="#37474F"/>
<path d="M395.999 192.613L371.376 203.959L374.496 207.491L399.119 196.144L395.999 192.613Z" fill="#263238"/>
<path d="M399.431 196.529L374.808 207.875L377.927 211.407L402.551 200.06L399.431 196.529Z" fill="#263238"/>
<path d="M377.93 211.388L385.868 207.726L409.86 241.855L406.831 243.071L377.93 211.388Z" fill="#263238"/>
<path d="M328.86 235.443C340.897 233.723 377.46 308.041 359.883 311.189C281.864 325.229 217.987 316.384 202.856 311.189C183.011 304.321 181.359 285.917 189.653 277.423C204.12 262.692 310.198 238.122 328.86 235.443Z" fill="#AD6359"/>
<path d="M478.694 231.5C478.499 240.076 449.258 237.947 449.258 237.947C453.48 240.044 456.547 243.146 457.925 246.71C459.95 253.063 447.055 258.141 447.055 258.141C450.794 260.978 453.266 264.561 454.151 268.425C455.236 274.65 443.232 281.108 443.232 281.108C444.687 285.082 444.112 289.302 441.612 292.995C434.371 302.659 353.565 311.996 343.505 313.318L324.065 237.268C324.065 237.268 387.553 211.341 405.065 212.207C419.791 212.85 478.985 218.361 478.694 231.5Z" fill="#AD6359"/>
<path d="M449.032 237.666C433.609 234.156 417.053 233.349 401.08 232.682C401.007 232.682 400.937 232.703 400.885 232.74C400.833 232.777 400.804 232.828 400.804 232.881C400.804 232.933 400.833 232.984 400.885 233.021C400.937 233.058 401.007 233.079 401.08 233.079C416.988 233.606 433.075 237.221 448.918 238.216C449.012 238.216 449.103 238.192 449.174 238.148C449.245 238.104 449.291 238.043 449.305 237.976C449.319 237.909 449.299 237.841 449.249 237.784C449.198 237.727 449.121 237.685 449.032 237.666Z" fill="#263238"/>
<path d="M446.65 257.24C443.041 256.692 439.349 256.488 435.667 256.632C431.757 256.632 427.853 256.655 423.954 256.702C416.135 256.842 408.326 257.127 400.529 257.556C400.189 257.556 400.14 257.954 400.529 257.954C408.305 257.825 416.097 257.778 423.889 257.883C427.793 257.883 431.681 258.012 435.586 258.106C439.251 258.367 442.946 258.336 446.602 258.012C446.714 257.988 446.814 257.939 446.886 257.872C446.958 257.805 447 257.723 447.005 257.638C447.011 257.554 446.979 257.47 446.916 257.398C446.852 257.327 446.759 257.272 446.65 257.24Z" fill="#263238"/>
<path d="M442.892 281.073C439.879 280.371 436.104 280.804 432.977 280.909L422.285 281.225C415.174 281.401 408.062 281.576 400.934 281.576C400.577 281.576 400.545 281.974 400.934 281.974C408.175 281.974 415.417 282.103 422.642 282.079C426.206 282.079 429.754 282.079 433.318 282.009C436.331 282.009 440.122 282.185 443.038 281.33C443.078 281.313 443.109 281.286 443.124 281.254C443.139 281.222 443.138 281.187 443.12 281.156C443.102 281.125 443.069 281.099 443.027 281.084C442.985 281.068 442.937 281.065 442.892 281.073Z" fill="#263238"/>
<path d="M317.002 236.426L351.945 320.163C351.945 320.163 224.678 324.644 197.381 310.311C178.411 300.343 179.982 281.588 188.552 275.129C207.263 261.031 317.002 236.426 317.002 236.426Z" fill="#EBEBEB"/>
<path d="M318.411 316.91C312.919 305.21 292.847 257.006 289.478 246.371C289.251 245.633 289.834 245.353 290.223 246.09C307.849 280.71 314.523 305.116 319.043 316.734C319.14 317.05 318.557 317.226 318.411 316.91Z" fill="#263238"/>
<path d="M317.034 235.56C316.337 235.454 304.074 237.748 300.154 238.578C292.496 240.224 284.893 242.01 277.344 243.937C262.311 247.762 247.56 252.144 233.15 257.064L230.996 257.813C225.731 258.726 220.595 260.036 215.476 261.253C215.33 261.253 215.476 261.452 215.476 261.417C219.575 260.434 223.738 259.662 227.902 258.866C225.601 259.673 223.285 260.492 221.017 261.346C216.983 262.856 213.046 264.482 209.045 266.026C209.03 266.031 209.017 266.038 209.006 266.046C208.995 266.055 208.987 266.065 208.982 266.076C208.977 266.087 208.975 266.099 208.977 266.11C208.978 266.122 208.983 266.133 208.991 266.143C209 266.153 209.011 266.162 209.024 266.168C209.037 266.175 209.052 266.18 209.067 266.182C209.083 266.184 209.099 266.184 209.115 266.182C209.131 266.179 209.145 266.174 209.158 266.167C215.881 263.651 222.863 261.417 229.765 259.147C236.666 256.877 243.859 254.666 250.987 252.583C265.032 248.476 279.353 244.803 293.852 241.573C297.934 240.673 301.952 239.807 306.131 238.964C308.14 238.555 316.499 236.507 316.856 236.484C317.05 236.7 317.198 236.937 317.293 237.186C317.39 237.432 317.779 237.432 317.698 237.186C317.565 236.627 317.342 236.081 317.034 235.56Z" fill="#263238"/>
<path d="M334.271 320.537C330.577 320.35 316.953 320.829 313.308 320.829C305.953 320.829 298.615 320.829 291.26 320.736C276.485 320.455 261.776 319.683 247.066 318.665C243 318.384 238.966 318.068 234.851 317.752C230.737 317.436 226.314 317.202 222.134 316.652C221.972 316.652 221.908 316.816 222.134 316.84C225.796 317.226 229.392 317.846 233.037 318.302C236.682 318.758 240.343 319.156 244.021 319.531C251.375 320.279 258.763 320.806 266.166 321.25C280.94 322.128 295.812 322.42 310.635 322.222C314.815 322.163 330.415 321.695 334.465 321.052C334.87 321.04 334.692 320.56 334.271 320.537Z" fill="#263238"/>
<path d="M578.939 336.999L445.289 343.996L495.25 216.91L628.9 209.914L578.939 336.999Z" fill="white"/>
<path d="M588.076 336.519L454.442 343.516L504.403 216.43L638.037 209.434L588.076 336.519Z" fill="#37474F"/>
<path d="M518.594 215.705C518.256 216.799 517.621 217.834 516.726 218.75C515.83 219.665 514.693 220.444 513.378 221.04C512.163 221.602 511.758 220.42 512.908 219.87C514.593 219.068 515.85 217.875 516.472 216.489C516.553 216.267 516.65 216.009 516.699 215.787C516.986 215.021 516.986 214.213 516.699 213.447C516.56 213.117 516.269 212.832 515.873 212.64C515.835 212.625 515.802 212.605 515.776 212.581C515.776 212.581 515.63 212.581 515.614 212.581C515.528 212.589 515.44 212.589 515.354 212.581C515.034 212.553 514.709 212.59 514.415 212.686C513.848 212.864 513.348 213.137 512.957 213.482C512.475 213.894 512.072 214.35 511.758 214.839C511.566 215.078 511.393 215.324 511.24 215.576V215.752C511.18 215.833 511.136 215.919 511.11 216.009C511.11 216.009 511.013 216.114 511.029 216.173L509.134 216.278C509.52 215.404 510.065 214.569 510.754 213.798C511.256 213.133 511.949 212.555 512.788 212.1C513.626 211.646 514.59 211.327 515.614 211.165C516.376 211.105 517.141 211.262 517.746 211.603C518.351 211.944 518.749 212.442 518.854 212.991C519.083 213.897 518.994 214.83 518.594 215.705Z" fill="#2AC5C5"/>
<path d="M529.06 215.12C528.363 217.326 526.488 219.243 523.843 220.455C522.612 221.017 522.223 219.835 523.373 219.285C525.058 218.486 526.311 217.292 526.921 215.904C527.025 215.674 527.106 215.44 527.164 215.202C527.451 214.436 527.451 213.628 527.164 212.862C527.02 212.531 526.723 212.246 526.322 212.055C526.295 212.058 526.268 212.058 526.241 212.055C526.241 212.055 526.095 212.055 526.063 212.055H525.82C525.499 212.027 525.174 212.063 524.88 212.16C524.313 212.337 523.813 212.61 523.422 212.955C522.929 213.361 522.525 213.819 522.223 214.313C522.031 214.555 521.858 214.805 521.705 215.061V215.225C521.636 215.304 521.586 215.391 521.559 215.483C521.559 215.541 521.478 215.6 521.559 215.646L519.664 215.752C520.043 214.875 520.588 214.04 521.284 213.271C521.784 212.606 522.477 212.026 523.316 211.572C524.155 211.118 525.119 210.799 526.144 210.639C526.906 210.582 527.669 210.74 528.273 211.08C528.877 211.421 529.275 211.916 529.384 212.464C529.57 213.355 529.459 214.266 529.06 215.12Z" fill="#2AC5C5"/>
<path d="M539.46 214.605C538.76 216.816 536.88 218.738 534.227 219.952C533.012 220.502 532.607 219.32 533.758 218.782C535.447 217.983 536.705 216.789 537.322 215.401C537.322 215.178 537.516 214.933 537.565 214.71C537.839 213.943 537.839 213.138 537.565 212.37C537.432 212.038 537.139 211.752 536.738 211.563H536.641C536.641 211.563 536.512 211.563 536.479 211.563H536.22C535.906 211.528 535.585 211.561 535.297 211.657C534.725 211.833 534.219 212.106 533.822 212.452C533.341 212.864 532.938 213.32 532.624 213.809C532.429 214.043 532.283 214.301 532.105 214.558V214.722C532.048 214.804 532.005 214.89 531.976 214.979C531.976 215.038 531.895 215.096 531.976 215.143L530.08 215.248C530.459 214.371 531.004 213.537 531.7 212.768C532.201 212.104 532.895 211.527 533.734 211.074C534.573 210.622 535.537 210.306 536.56 210.147C537.321 210.084 538.086 210.238 538.692 210.577C539.297 210.916 539.695 211.413 539.8 211.961C539.98 212.849 539.863 213.756 539.46 214.605Z" fill="#2AC5C5"/>
<path d="M549.974 214.055C549.633 215.15 548.997 216.186 548.102 217.103C547.207 218.021 546.071 218.802 544.757 219.402C543.542 219.964 543.137 218.77 544.288 218.232C545.969 217.427 547.225 216.235 547.852 214.851C547.933 214.617 548.03 214.371 548.078 214.149C548.363 213.382 548.363 212.575 548.078 211.809C547.936 211.48 547.645 211.196 547.252 211.001H547.155C547.155 211.001 547.009 211.001 546.993 211.001H546.734C546.413 210.962 546.083 210.999 545.794 211.107C545.225 211.275 544.723 211.545 544.336 211.891C543.855 212.302 543.452 212.759 543.137 213.248C542.945 213.49 542.772 213.74 542.619 213.997V214.16C542.564 214.243 542.521 214.329 542.489 214.418C542.489 214.476 542.392 214.535 542.408 214.593L540.513 214.687C540.899 213.812 541.444 212.978 542.133 212.206C542.635 211.543 543.329 210.966 544.168 210.514C545.006 210.061 545.97 209.745 546.993 209.586C547.754 209.522 548.519 209.677 549.125 210.016C549.73 210.355 550.128 210.851 550.233 211.399C550.449 212.286 550.359 213.198 549.974 214.055Z" fill="#2AC5C5"/>
<path d="M560.52 213.506C559.821 215.713 557.947 217.634 555.304 218.852C554.072 219.414 553.684 218.221 554.834 217.682C556.515 216.88 557.767 215.687 558.382 214.301C558.485 214.072 558.567 213.837 558.625 213.599C558.912 212.833 558.912 212.025 558.625 211.259C558.48 210.925 558.183 210.636 557.782 210.44C557.755 210.444 557.728 210.444 557.701 210.44C557.701 210.44 557.555 210.44 557.523 210.44H557.28C556.959 210.407 556.632 210.443 556.34 210.545C555.774 210.718 555.274 210.987 554.882 211.329C554.393 211.741 553.989 212.202 553.684 212.698C553.488 212.935 553.315 213.182 553.165 213.435V213.599C553.099 213.679 553.05 213.766 553.019 213.857C553.019 213.915 552.938 213.974 553.019 214.032L551.124 214.126C551.503 213.249 552.049 212.414 552.744 211.645C553.247 210.983 553.941 210.406 554.78 209.953C555.618 209.501 556.581 209.184 557.604 209.024C558.364 208.964 559.127 209.12 559.732 209.458C560.336 209.796 560.735 210.291 560.844 210.838C561.034 211.733 560.922 212.648 560.52 213.506Z" fill="#2AC5C5"/>
<path d="M570.904 212.967C570.199 215.173 568.319 217.09 565.672 218.302C564.457 218.864 564.052 217.671 565.202 217.132C566.888 216.331 568.145 215.138 568.766 213.751C568.847 213.529 568.96 213.271 569.009 213.049C569.288 212.282 569.288 211.476 569.009 210.709C568.872 210.375 568.581 210.086 568.183 209.89H568.085C568.085 209.89 567.956 209.89 567.923 209.89C567.837 209.898 567.75 209.898 567.664 209.89C567.349 209.859 567.028 209.895 566.741 209.995C566.166 210.168 565.659 210.442 565.267 210.791C564.785 211.203 564.382 211.659 564.068 212.148C563.873 212.37 563.728 212.628 563.549 212.885V213.061C563.492 213.138 563.449 213.221 563.42 213.306C563.398 213.364 563.398 213.425 563.42 213.482L561.524 213.576C561.906 212.703 562.451 211.873 563.144 211.107C563.647 210.443 564.341 209.864 565.18 209.41C566.018 208.956 566.981 208.637 568.004 208.474C568.765 208.411 569.531 208.565 570.136 208.904C570.742 209.243 571.139 209.74 571.244 210.288C571.429 211.188 571.313 212.107 570.904 212.967Z" fill="#2AC5C5"/>
<path d="M581.353 212.417C581.015 213.512 580.38 214.546 579.485 215.462C578.589 216.378 577.451 217.156 576.137 217.753C574.922 218.314 574.517 217.132 575.667 216.583C577.352 215.78 578.609 214.588 579.231 213.201C579.312 212.979 579.409 212.722 579.458 212.499C579.745 211.733 579.745 210.926 579.458 210.159C579.319 209.83 579.027 209.544 578.632 209.352C578.594 209.338 578.56 209.318 578.534 209.293C578.534 209.293 578.389 209.293 578.372 209.293C578.286 209.302 578.199 209.302 578.113 209.293C577.793 209.266 577.468 209.302 577.174 209.399C576.607 209.576 576.107 209.849 575.716 210.194C575.229 210.603 574.825 211.06 574.517 211.552C574.325 211.79 574.152 212.036 573.998 212.289V212.464C573.94 212.547 573.891 212.633 573.853 212.722C573.853 212.722 573.772 212.827 573.853 212.885L571.957 212.991C572.343 212.116 572.888 211.282 573.577 210.51C574.079 209.846 574.773 209.267 575.611 208.813C576.45 208.359 577.413 208.04 578.437 207.878C579.2 207.818 579.965 207.975 580.57 208.316C581.175 208.656 581.572 209.154 581.677 209.703C581.885 210.613 581.774 211.546 581.353 212.417Z" fill="#2AC5C5"/>
<path d="M591.818 211.868C591.122 214.073 589.247 215.991 586.602 217.203C585.371 217.764 584.982 216.583 586.132 216.033C587.814 215.236 589.067 214.047 589.68 212.663C589.784 212.434 589.865 212.199 589.923 211.961C590.202 211.194 590.202 210.388 589.923 209.621C589.779 209.29 589.482 209.005 589.081 208.814C589.054 208.817 589.026 208.817 589 208.814C589 208.814 588.854 208.814 588.821 208.814H588.578C588.258 208.786 587.933 208.823 587.639 208.919C587.072 209.097 586.572 209.369 586.181 209.715C585.688 210.121 585.284 210.578 584.982 211.072C584.79 211.314 584.617 211.564 584.464 211.821V211.985C584.394 212.063 584.345 212.151 584.318 212.242C584.318 212.3 584.237 212.359 584.318 212.406L582.422 212.511C582.802 211.634 583.347 210.8 584.042 210.031C584.543 209.365 585.236 208.786 586.075 208.331C586.913 207.877 587.878 207.559 588.902 207.398C589.664 207.341 590.427 207.499 591.031 207.84C591.635 208.18 592.033 208.676 592.142 209.223C592.327 210.111 592.216 211.017 591.818 211.868Z" fill="#2AC5C5"/>
<path d="M602.284 211.317C601.584 213.528 599.703 215.45 597.051 216.664C595.836 217.214 595.431 216.032 596.581 215.494C598.271 214.695 599.529 213.502 600.145 212.113C600.226 211.891 600.34 211.645 600.388 211.423C600.663 210.655 600.663 209.85 600.388 209.083C600.256 208.751 599.963 208.464 599.562 208.275H599.465C599.465 208.275 599.335 208.275 599.303 208.275H599.044C598.73 208.24 598.409 208.273 598.12 208.369C597.548 208.546 597.043 208.819 596.646 209.165C596.164 209.576 595.761 210.033 595.447 210.522C595.253 210.756 595.107 211.013 594.929 211.271V211.434C594.874 211.517 594.831 211.603 594.799 211.692C594.799 211.75 594.799 211.809 594.799 211.856L592.904 211.961C593.282 211.084 593.827 210.249 594.524 209.48C595.025 208.817 595.719 208.239 596.558 207.787C597.396 207.334 598.36 207.018 599.384 206.86C600.145 206.796 600.91 206.951 601.515 207.29C602.121 207.628 602.519 208.125 602.624 208.673C602.803 209.562 602.687 210.468 602.284 211.317Z" fill="#2AC5C5"/>
<path d="M612.733 210.767C612.392 211.863 611.756 212.898 610.861 213.816C609.966 214.733 608.83 215.514 607.516 216.114C606.301 216.676 605.896 215.483 607.046 214.944C608.724 214.137 609.979 212.946 610.61 211.563C610.691 211.329 610.789 211.083 610.837 210.861C611.122 210.095 611.122 209.288 610.837 208.521C610.695 208.193 610.404 207.908 610.011 207.714H609.914C609.914 207.714 609.768 207.714 609.752 207.714H609.493C609.172 207.675 608.842 207.712 608.553 207.819C607.984 207.988 607.482 208.257 607.095 208.603C606.608 209.012 606.204 209.469 605.896 209.96C605.704 210.203 605.531 210.453 605.378 210.709V210.873C605.318 210.955 605.27 211.041 605.232 211.13C605.232 211.189 605.151 211.247 605.232 211.306L603.337 211.399C603.723 210.525 604.268 209.69 604.957 208.919C605.459 208.256 606.153 207.678 606.991 207.226C607.83 206.774 608.794 206.457 609.817 206.298C610.578 206.235 611.343 206.389 611.948 206.728C612.554 207.067 612.952 207.564 613.057 208.112C613.251 209.003 613.14 209.915 612.733 210.767Z" fill="#2AC5C5"/>
<path d="M623.198 210.217C622.499 212.425 620.625 214.346 617.981 215.564C616.75 216.126 616.361 214.933 617.512 214.394C619.193 213.592 620.445 212.399 621.059 211.013C621.163 210.783 621.244 210.549 621.302 210.311C621.582 209.544 621.582 208.738 621.302 207.971C621.158 207.637 620.861 207.348 620.46 207.152C620.433 207.156 620.406 207.156 620.379 207.152C620.379 207.152 620.233 207.152 620.201 207.152H619.958C619.637 207.118 619.31 207.155 619.018 207.257C618.452 207.43 617.952 207.699 617.56 208.041C617.071 208.456 616.663 208.916 616.345 209.41C616.155 209.648 615.988 209.894 615.843 210.147V210.311C615.777 210.391 615.728 210.478 615.697 210.568C615.697 210.627 615.616 210.685 615.697 210.744L613.802 210.838C614.181 209.961 614.726 209.126 615.422 208.357C615.925 207.694 616.619 207.117 617.458 206.665C618.296 206.213 619.259 205.896 620.282 205.736C621.042 205.676 621.805 205.832 622.41 206.17C623.014 206.508 623.413 207.003 623.522 207.55C623.711 208.445 623.6 209.36 623.198 210.217Z" fill="#2AC5C5"/>
<path d="M633.663 209.68C632.958 211.886 631.078 213.802 628.43 215.015C627.215 215.576 626.81 214.383 627.961 213.845C629.646 213.043 630.903 211.85 631.525 210.463C631.606 210.241 631.703 209.984 631.768 209.761C632.047 208.995 632.047 208.188 631.768 207.421C631.631 207.088 631.339 206.799 630.941 206.602H630.844C630.844 206.602 630.715 206.602 630.682 206.602C630.596 206.611 630.509 206.611 630.423 206.602C630.108 206.571 629.786 206.608 629.5 206.708C628.925 206.881 628.418 207.154 628.025 207.503C627.544 207.915 627.141 208.372 626.827 208.861C626.632 209.083 626.486 209.34 626.308 209.598V209.773C626.251 209.851 626.207 209.933 626.179 210.019C626.157 210.076 626.157 210.137 626.179 210.194L624.283 210.288C624.668 209.413 625.213 208.579 625.903 207.808C626.41 207.147 627.105 206.571 627.943 206.119C628.781 205.668 629.742 205.35 630.763 205.187C631.524 205.123 632.289 205.278 632.895 205.617C633.5 205.956 633.898 206.452 634.003 207C634.188 207.9 634.072 208.819 633.663 209.68Z" fill="#2AC5C5"/>
<path d="M631.46 238.005C638.539 248.453 656.132 261.405 657.704 269.934C658.192 272.036 657.729 274.196 656.384 276.092C655.039 277.989 652.883 279.522 650.236 280.464C650.236 280.464 662.175 284.641 661.819 292.585C661.624 296.68 652.423 300.05 652.423 300.05C652.423 300.05 661.77 303.7 660.863 310.755C660.118 316.371 651.013 318.945 651.013 318.945C651.013 318.945 657.72 325.439 654.48 330.95C647.822 342.205 580.738 342.767 570.094 325.006C565.121 316.734 581.515 317.237 581.515 317.237C581.515 317.237 558.187 312.405 557.669 302.413C557.15 292.422 578.405 294.013 578.405 294.013C578.405 294.013 555.854 289.181 556.762 278.803C557.717 267.992 578.599 272.204 578.599 272.204C578.599 272.204 563.566 265.02 566.789 257.181C572.103 244.241 600.599 260.223 615.389 257.579L623.246 239.947L631.46 238.005Z" fill="#AD6359"/>
<path d="M645.149 253.157C639.657 242.837 657.218 229.897 653.913 219.496C649.458 205.456 627.669 219.425 623.133 239.971L623.457 256.351L645.149 253.157Z" fill="#AD6359"/>
<path d="M649.62 319.472C649.831 319.472 649.912 319.683 649.62 319.718C627.62 323.79 601.717 323.392 580.478 317.378C579.782 317.179 579.928 316.278 580.754 316.395C604.406 319.554 625.66 321.064 649.62 319.472Z" fill="#263238"/>
<path d="M652.747 300.155C653.006 300.155 653.054 300.448 652.747 300.495C630.067 304.602 600.907 303.572 577.546 294.493C576.736 294.188 576.461 293.323 577.417 293.639C593.6 298.81 631.168 301.7 652.747 300.155Z" fill="#263238"/>
<path d="M577.125 271.175C599.983 279.248 624.105 281.225 649.328 280.675C649.652 280.675 649.636 281.003 649.328 281.061C637.097 283.752 620.995 282.898 608.537 281.459C596.941 280.287 585.971 276.943 576.72 271.76C576.364 271.549 576.72 271.011 577.125 271.175Z" fill="#263238"/>
<path d="M78.3432 414.125L160.007 413.844L241.672 413.739L405 413.54L568.328 413.739L649.993 413.844L731.657 414.125L649.993 414.418L568.328 414.511L405 414.71L241.672 414.511L160.007 414.406L78.3432 414.125Z" fill="#263238"/>
<path d="M178.54 364.458H106.58V442.427H178.54V364.458Z" fill="#2AC5C5"/>
<path d="M187.24 343.516H97.8966V364.447H187.24V343.516Z" fill="#455A64"/>
<path d="M166.52 386.888H118.616V421.485H166.52V386.888Z" fill="white"/>
<path opacity="0.1" d="M106.58 364.458V370.531L147.096 381.587V442.416H166.52V364.458H106.58Z" fill="black"/>
<path d="M84.24 440.637C84.24 439.779 84.4743 438.929 84.9296 438.136C85.3849 437.344 86.0522 436.623 86.8934 436.017C87.7345 435.411 88.7329 434.93 89.8315 434.602C90.9301 434.275 92.1073 434.107 93.2958 434.109H111.31C112.499 434.107 113.677 434.275 114.777 434.602C115.876 434.93 116.876 435.41 117.718 436.016C118.561 436.622 119.23 437.343 119.687 438.136C120.144 438.928 120.38 439.779 120.382 440.637C120.378 442.373 119.42 444.037 117.719 445.263C116.018 446.489 113.713 447.178 111.31 447.178H93.3606C92.1665 447.182 90.9829 447.017 89.8777 446.69C88.7725 446.364 87.7674 445.883 86.92 445.275C86.0727 444.668 85.3997 443.945 84.9398 443.149C84.4799 442.353 84.2421 441.5 84.24 440.637Z" fill="#455A64"/>
<path d="M84.24 440.637C84.24 439.779 84.4744 438.929 84.9296 438.136C85.3849 437.344 86.0522 436.623 86.8934 436.017C87.7345 435.411 88.7329 434.93 89.8315 434.602C90.9301 434.275 92.1073 434.107 93.2958 434.109H102.287V447.201H93.3606C92.1638 447.206 90.9776 447.039 89.8702 446.711C88.7629 446.383 87.7563 445.901 86.9085 445.29C86.0608 444.68 85.3885 443.955 84.9305 443.157C84.4725 442.358 84.2379 441.502 84.24 440.637Z" fill="#2AC5C5"/>
<path d="M207.36 440.637C207.358 441.496 207.122 442.346 206.664 443.139C206.207 443.932 205.539 444.652 204.696 445.259C203.854 445.865 202.854 446.345 201.755 446.673C200.655 447 199.477 447.168 198.288 447.166H180.419C179.23 447.168 178.052 447 176.953 446.673C175.853 446.345 174.854 445.865 174.011 445.259C173.169 444.652 172.5 443.932 172.043 443.139C171.586 442.346 171.35 441.496 171.347 440.637C171.347 438.9 172.303 437.233 174.005 436.004C175.706 434.776 178.013 434.085 180.419 434.085H198.353C200.748 434.098 203.038 434.794 204.726 436.021C206.413 437.248 207.36 438.908 207.36 440.637Z" fill="#455A64"/>
<path d="M207.36 440.637C207.358 441.496 207.122 442.346 206.664 443.139C206.207 443.932 205.539 444.652 204.696 445.259C203.854 445.865 202.854 446.345 201.755 446.673C200.655 447 199.477 447.168 198.288 447.166H189.378V434.085H198.353C200.748 434.098 203.038 434.794 204.726 436.021C206.413 437.248 207.36 438.908 207.36 440.637Z" fill="#2AC5C5"/>
<path d="M227.788 443.27C226.949 443.877 225.951 444.36 224.853 444.689C223.755 445.018 222.578 445.187 221.389 445.187C220.2 445.187 219.023 445.018 217.925 444.689C216.827 444.36 215.83 443.877 214.99 443.27L202.289 434.109C200.594 432.882 199.641 431.22 199.641 429.487C199.641 427.754 200.594 426.092 202.289 424.866C203.993 423.64 206.3 422.951 208.705 422.951C211.11 422.951 213.416 423.64 215.12 424.866L227.804 434.027C229.494 435.256 230.441 436.919 230.438 438.651C230.435 440.383 229.482 442.043 227.788 443.27Z" fill="#455A64"/>
<path d="M227.788 443.27C226.949 443.878 225.951 444.36 224.853 444.689C223.755 445.018 222.578 445.187 221.389 445.187C220.2 445.187 219.023 445.018 217.925 444.689C216.827 444.36 215.83 443.878 214.99 443.27L208.64 438.683L221.454 429.429L227.804 434.015C229.499 435.245 230.449 436.91 230.446 438.645C230.443 440.38 229.487 442.043 227.788 443.27Z" fill="#2AC5C5"/>
<path d="M145.703 453.73C145.705 452.871 145.941 452.021 146.398 451.228C146.855 450.435 147.524 449.715 148.367 449.109C149.209 448.502 150.209 448.022 151.308 447.695C152.408 447.367 153.586 447.2 154.775 447.201H172.708C173.897 447.2 175.075 447.367 176.175 447.695C177.274 448.022 178.274 448.502 179.116 449.109C179.959 449.715 180.628 450.435 181.085 451.228C181.542 452.021 181.778 452.871 181.78 453.73C181.776 455.465 180.818 457.129 179.117 458.355C177.417 459.581 175.111 460.27 172.708 460.27H154.775C152.372 460.27 150.067 459.581 148.366 458.355C146.665 457.129 145.707 455.465 145.703 453.73Z" fill="#455A64"/>
<path d="M145.703 453.73C145.705 452.871 145.941 452.021 146.398 451.228C146.855 450.435 147.524 449.715 148.367 449.109C149.209 448.502 150.209 448.022 151.308 447.695C152.408 447.367 153.586 447.2 154.775 447.201H163.75V460.293H154.775C153.582 460.293 152.401 460.124 151.299 459.794C150.198 459.464 149.197 458.98 148.354 458.37C147.512 457.761 146.844 457.037 146.389 456.241C145.934 455.444 145.701 454.591 145.703 453.73Z" fill="#2AC5C5"/>
<path d="M517.039 439.397L516.586 443.983C516.586 444.054 516.586 444.136 516.586 444.217C516.245 445.668 513.961 446.873 510.543 447.622C506.903 448.354 503.119 448.639 499.349 448.465L497.729 448.383C497.178 448.383 496.611 448.312 496.109 448.254C487.458 447.447 481.075 444.873 481.334 442.193L481.772 437.619C481.513 440.298 487.895 442.872 496.546 443.679L498.166 443.796C498.717 443.796 499.284 443.866 499.786 443.878C503.557 444.058 507.342 443.773 510.98 443.036C514.399 442.299 516.667 441.105 517.023 439.643C517.023 439.549 517.023 439.491 517.039 439.397Z" fill="#DBDBDB"/>
<path d="M487.782 433.98C491.411 433.248 495.184 432.963 498.944 433.137L496.465 443.667C497 443.667 497.567 443.761 498.085 443.784C498.604 443.808 499.187 443.855 499.705 443.878L502.184 433.348C511.094 434.167 517.59 436.858 516.926 439.631C516.602 441.093 514.318 442.287 510.899 443.047C507.26 443.779 503.476 444.064 499.705 443.89C499.154 443.89 498.587 443.89 498.085 443.796C497.583 443.703 496.967 443.726 496.465 443.679C487.555 442.86 481.059 440.169 481.723 437.396C482.063 435.934 484.38 434.729 487.782 433.98Z" fill="white"/>
<path d="M498.96 433.138L500.58 433.22L502.2 433.348L499.721 443.878C499.171 443.878 498.604 443.878 498.101 443.785C497.599 443.691 496.984 443.714 496.481 443.668L498.96 433.138Z" fill="#DBDBDB"/>
<path d="M516.035 447.845V452.431C516.027 452.509 516.027 452.587 516.035 452.665C516.213 454.128 518.368 455.473 521.672 456.409C525.219 457.349 528.959 457.852 532.737 457.895H534.357C534.908 457.895 535.475 457.895 535.977 457.895C544.693 457.591 551.351 455.391 551.383 452.7V448.114C551.383 450.793 544.693 452.993 535.977 453.309H534.357C533.817 453.331 533.277 453.331 532.737 453.309C528.96 453.269 525.22 452.77 521.672 451.834C518.335 450.898 516.213 449.565 516.035 448.09C516.026 448.009 516.026 447.927 516.035 447.845Z" fill="#DBDBDB"/>
<path d="M545.81 444.124C542.269 443.184 538.534 442.682 534.762 442.638L536.074 453.285C535.523 453.285 534.956 453.285 534.454 453.285H532.834L531.522 442.638C522.547 442.942 515.776 445.259 516.132 448.044C516.31 449.529 518.449 450.852 521.77 451.799C525.316 452.74 529.057 453.242 532.834 453.285H534.454C535.005 453.285 535.572 453.285 536.074 453.285C545.033 452.981 551.821 450.664 551.464 447.88C551.286 446.394 549.18 445.072 545.81 444.124Z" fill="white"/>
<path d="M534.762 442.638H533.142C532.591 442.638 532.051 442.638 531.522 442.638L532.834 453.285H534.454C535.005 453.285 535.572 453.285 536.074 453.285L534.762 442.638Z" fill="#DBDBDB"/>
<path d="M468.715 446.37C464.844 447.951 460.506 448.842 456.062 448.968C452.262 449.155 448.451 448.736 444.901 447.739C444.512 447.622 444.107 447.47 443.718 447.33C443.329 447.189 442.973 447.025 442.633 446.862C441.665 446.466 440.836 445.916 440.21 445.252C439.583 444.589 439.176 443.831 439.02 443.036L438.437 438.859C438.604 439.663 439.028 440.428 439.674 441.094C440.321 441.76 441.173 442.309 442.163 442.696C442.487 442.845 442.843 442.997 443.232 443.153C443.609 443.306 443.999 443.442 444.398 443.562C447.949 444.559 451.76 444.979 455.56 444.791C460 444.667 464.336 443.785 468.212 442.217C472.149 440.508 473.996 438.344 473.704 436.367L474.287 440.544C474.498 442.509 472.651 444.674 468.715 446.37Z" fill="#DBDBDB"/>
<path d="M444.334 443.562L444.658 445.996L468.18 435.805L467.613 431.628L442.049 442.696C442.357 442.848 442.73 443 443.119 443.152C443.507 443.305 443.88 443.433 444.334 443.562Z" fill="#2AC5C5"/>
<path d="M467.645 431.628C468.05 431.757 468.455 431.885 468.844 432.037C469.233 432.19 469.573 432.33 469.913 432.494L444.334 443.562C443.912 443.433 443.54 443.305 443.151 443.152C442.762 443 442.39 442.848 442.082 442.696L467.645 431.628Z" fill="#DBDBDB"/>
<path d="M469.913 432.494L470.497 436.659L444.901 447.728L444.334 443.562L469.913 432.494Z" fill="#DBDBDB"/>
<path d="M456.484 430.4C460.284 430.216 464.094 430.635 467.645 431.628L442.082 442.696C442.39 442.848 442.762 443.001 443.151 443.153C443.54 443.305 443.912 443.433 444.334 443.562L469.913 432.494C475.486 435.091 474.773 439.315 468.131 442.205C464.261 443.775 459.931 444.661 455.495 444.791C451.695 444.975 447.885 444.556 444.334 443.562C443.912 443.433 443.54 443.305 443.151 443.153C442.762 443.001 442.39 442.848 442.082 442.696C436.509 440.087 437.222 435.875 443.864 432.985C447.729 431.417 452.053 430.531 456.484 430.4Z" fill="white"/>
<path d="M562.221 443.001C566.087 444.58 570.419 445.471 574.857 445.598C578.663 445.788 582.48 445.368 586.035 444.369C586.424 444.252 586.829 444.1 587.218 443.96C587.606 443.82 587.963 443.656 588.287 443.492C589.272 443.104 590.119 442.557 590.763 441.893C591.406 441.229 591.829 440.467 591.997 439.666L592.58 435.489C592.41 436.293 591.985 437.057 591.339 437.723C590.693 438.389 589.842 438.938 588.854 439.327C588.53 439.475 588.173 439.627 587.785 439.783C587.407 439.936 587.018 440.073 586.618 440.193C583.063 441.191 579.246 441.611 575.44 441.421C571.005 441.301 566.673 440.419 562.804 438.847C558.868 437.139 557.021 434.974 557.296 432.997L556.713 437.174C556.438 439.151 558.284 441.304 562.221 443.001Z" fill="#DBDBDB"/>
<path d="M586.602 440.193L586.262 442.626L562.707 432.436L563.29 428.271L588.854 439.327C588.51 439.494 588.153 439.646 587.785 439.783C587.396 439.935 587.007 440.064 586.602 440.193Z" fill="#2AC5C5"/>
<path d="M563.29 428.271C562.885 428.388 562.48 428.528 562.091 428.668C561.703 428.809 561.362 428.961 561.006 429.125L586.602 440.193C587.007 440.064 587.396 439.935 587.785 439.783C588.153 439.646 588.51 439.494 588.854 439.327L563.29 428.271Z" fill="#DBDBDB"/>
<path d="M561.022 429.125L560.439 433.29L586.035 444.358L586.602 440.193L561.022 429.125Z" fill="#DBDBDB"/>
<path d="M574.436 427.042C570.64 426.846 566.832 427.266 563.29 428.27L588.854 439.327C588.51 439.493 588.153 439.646 587.785 439.783C587.396 439.935 587.007 440.064 586.602 440.193L561.006 429.124C555.449 431.734 556.146 435.946 562.804 438.835C566.674 440.406 571.005 441.292 575.44 441.421C579.241 441.618 583.055 441.198 586.602 440.193C587.007 440.064 587.396 439.935 587.785 439.783C588.153 439.646 588.51 439.493 588.854 439.327C594.427 436.718 593.714 432.506 587.072 429.616C583.203 428.044 578.871 427.162 574.436 427.042Z" fill="white"/>
<path d="M454.475 427.358L454.394 432.213C454.372 432.531 454.188 432.831 453.875 433.056C452.709 434.015 449.728 434.776 445.856 435.209C441.947 435.619 437.991 435.748 434.047 435.595L432.427 435.513L430.807 435.396C423.581 434.822 418.867 433.395 418.883 431.886L418.981 427.054C418.981 428.551 423.695 429.979 430.904 430.564C431.406 430.622 431.973 430.657 432.524 430.681L434.144 430.774C438.088 430.939 442.046 430.81 445.954 430.388C449.809 429.944 452.806 429.218 454.054 428.224C454.344 427.985 454.495 427.675 454.475 427.358Z" fill="#DBDBDB"/>
<path d="M432.54 430.669L432.443 435.513L430.823 435.396L430.904 430.552L432.54 430.669Z" fill="#DBDBDB"/>
<path d="M439.36 423.649L440.98 423.731C441.531 423.731 442.071 423.766 442.6 423.836L434.176 430.739L432.556 430.669L430.936 430.552L439.36 423.649Z" fill="#DBDBDB"/>
<path d="M442.584 423.836L442.487 428.68L434.063 435.594L434.16 430.739L442.584 423.836Z" fill="#DBDBDB"/>
<path d="M427.583 424.023C431.48 423.605 435.427 423.48 439.36 423.649L430.92 430.552L432.54 430.669L434.16 430.739L442.584 423.836C451.121 424.515 456.176 426.41 453.924 428.212C452.758 429.171 449.777 429.92 445.824 430.365C441.927 430.782 437.98 430.908 434.047 430.739L432.427 430.669L430.807 430.552C422.253 429.873 417.215 427.99 419.467 426.176C420.714 425.217 423.695 424.468 427.583 424.023Z" fill="white"/>
<path d="M498.263 427.732L498.361 432.576C498.364 432.735 498.411 432.891 498.5 433.036C498.589 433.181 498.718 433.311 498.879 433.419C500.045 434.378 503.026 435.138 506.898 435.583C510.802 435.993 514.752 436.123 518.692 435.969L520.312 435.876C520.83 435.876 521.381 435.817 521.932 435.759C529.157 435.185 533.871 433.758 533.839 432.249V427.405C533.839 428.914 529.124 430.341 521.915 430.915L520.295 431.032L518.675 431.114C514.736 431.29 510.783 431.161 506.882 430.728C503.01 430.295 500.029 429.558 498.863 428.575C498.687 428.472 498.543 428.344 498.44 428.199C498.337 428.054 498.277 427.895 498.263 427.732Z" fill="#DBDBDB"/>
<path d="M520.231 431.032L520.312 435.875C520.846 435.875 521.397 435.805 521.932 435.77L521.834 430.926L520.231 431.032Z" fill="#DBDBDB"/>
<path d="M513.394 424.012L511.774 424.094L510.154 424.199L518.578 431.114L520.198 431.032L521.818 430.926L513.394 424.012Z" fill="#DBDBDB"/>
<path d="M510.17 424.199L510.251 429.054L518.692 435.957L518.594 431.113L510.17 424.199Z" fill="#DBDBDB"/>
<path d="M525.155 424.386C521.263 423.974 517.322 423.849 513.394 424.011L521.818 430.926L520.198 431.031L518.578 431.113L510.154 424.199C501.601 424.889 496.562 426.773 498.814 428.574C499.981 429.534 502.961 430.294 506.833 430.727C510.735 431.149 514.688 431.278 518.627 431.113L520.247 431.031L521.867 430.926C530.437 430.247 535.475 428.352 533.207 426.55C532.04 425.591 529.043 424.83 525.155 424.386Z" fill="white"/>
<path d="M457.423 451.624L457.504 456.479C457.507 456.637 457.555 456.794 457.644 456.939C457.733 457.083 457.862 457.214 458.023 457.321C459.189 458.281 462.17 459.03 466.042 459.474C469.945 459.885 473.896 460.014 477.835 459.86L479.455 459.778L481.075 459.661C488.3 459.088 493.015 457.649 492.998 456.151L492.901 451.319C492.901 452.817 488.187 454.244 480.978 454.829L479.358 454.946L477.738 455.028C473.794 455.205 469.834 455.076 465.928 454.642C462.056 454.209 459.076 453.472 457.909 452.489C457.596 452.258 457.421 451.947 457.423 451.624Z" fill="#DBDBDB"/>
<path d="M479.374 454.97L479.471 459.825L481.091 459.708L480.994 454.864L479.374 454.97Z" fill="#DBDBDB"/>
<path d="M472.538 447.95L470.918 448.032L469.298 448.149L477.722 455.052L479.342 454.97L480.962 454.864L472.538 447.95Z" fill="#DBDBDB"/>
<path d="M469.314 448.102L469.395 452.946L477.835 459.849L477.738 455.005L469.314 448.102Z" fill="#DBDBDB"/>
<path d="M484.38 448.289C480.483 447.867 476.536 447.738 472.603 447.903L481.027 454.818L479.407 454.923L477.787 455.005L469.363 448.102C460.825 448.78 455.771 450.664 458.023 452.478C459.189 453.425 462.17 454.186 466.042 454.63C469.945 455.042 473.897 455.167 477.835 455.005L479.455 454.923L481.075 454.818C489.645 454.139 494.683 452.244 492.415 450.442C491.184 449.482 488.187 448.734 484.38 448.289Z" fill="white"/>
<path d="M627.361 345.926H683.494C687.138 345.926 690.632 346.971 693.208 348.832C695.784 350.692 697.232 353.216 697.232 355.847V445.072C697.232 446.055 696.691 446.999 695.728 447.694C694.765 448.39 693.458 448.78 692.096 448.78H618.84C617.478 448.78 616.172 448.39 615.209 447.694C614.246 446.999 613.705 446.055 613.705 445.072V355.836C613.709 353.216 615.147 350.705 617.705 348.848C620.264 346.992 623.735 345.941 627.361 345.926Z" fill="#2AC5C5"/>
<path d="M679.639 332.869H631.233V348.886H679.639V332.869Z" fill="#2AC5C5"/>
<path d="M697.232 379.423H613.64V420.127H697.232V379.423Z" fill="#EBEBEB"/>
<path d="M697.232 411.809H613.64V415.494H697.232V411.809Z" fill="#455A64"/>
<path d="M697.232 384.068H613.64V387.753H697.232V384.068Z" fill="#455A64"/>
<path d="M683.008 321.66H627.863V336.496H683.008V321.66Z" fill="#455A64"/>
<path d="M685.892 336.484H624.964V340.871H685.892V336.484Z" fill="#37474F"/>
<path d="M632.27 323.731H631.557C631.056 323.731 630.65 324.024 630.65 324.386V333.77C630.65 334.131 631.056 334.425 631.557 334.425H632.27C632.771 334.425 633.177 334.131 633.177 333.77V324.386C633.177 324.024 632.771 323.731 632.27 323.731Z" fill="#37474F"/>
<path d="M636.968 323.731H636.255C635.754 323.731 635.348 324.024 635.348 324.386V333.77C635.348 334.131 635.754 334.425 636.255 334.425H636.968C637.469 334.425 637.875 334.131 637.875 333.77V324.386C637.875 324.024 637.469 323.731 636.968 323.731Z" fill="#37474F"/>
<path d="M640.953 323.731H641.682C641.918 323.731 642.145 323.799 642.312 323.92C642.479 324.04 642.573 324.204 642.573 324.375V333.735C642.573 333.908 642.477 334.075 642.307 334.198C642.137 334.321 641.906 334.39 641.666 334.39H640.937C640.696 334.39 640.465 334.321 640.295 334.198C640.125 334.075 640.03 333.908 640.03 333.735V324.375C640.032 324.289 640.057 324.204 640.105 324.125C640.152 324.046 640.221 323.974 640.307 323.915C640.392 323.855 640.494 323.808 640.605 323.776C640.715 323.745 640.834 323.73 640.953 323.731Z" fill="#37474F"/>
<path d="M646.38 323.731H645.667C645.166 323.731 644.76 324.024 644.76 324.386V333.77C644.76 334.131 645.166 334.425 645.667 334.425H646.38C646.881 334.425 647.287 334.131 647.287 333.77V324.386C647.287 324.024 646.881 323.731 646.38 323.731Z" fill="#37474F"/>
<path d="M651.094 323.731H650.381C649.88 323.731 649.474 324.024 649.474 324.386V333.77C649.474 334.131 649.88 334.425 650.381 334.425H651.094C651.595 334.425 652.001 334.131 652.001 333.77V324.386C652.001 324.024 651.595 323.731 651.094 323.731Z" fill="#37474F"/>
<path d="M655.063 323.731H655.792C656.033 323.731 656.264 323.8 656.434 323.923C656.604 324.046 656.699 324.212 656.699 324.386V333.746C656.699 333.92 656.604 334.087 656.434 334.209C656.264 334.332 656.033 334.401 655.792 334.401H655.063C654.827 334.401 654.6 334.334 654.433 334.213C654.266 334.092 654.172 333.929 654.172 333.758V324.398C654.17 324.312 654.191 324.226 654.235 324.146C654.279 324.066 654.344 323.993 654.426 323.931C654.509 323.869 654.608 323.82 654.717 323.785C654.827 323.751 654.944 323.732 655.063 323.731Z" fill="#37474F"/>
<path d="M660.49 323.731H659.777C659.276 323.731 658.87 324.024 658.87 324.386V333.77C658.87 334.131 659.276 334.425 659.777 334.425H660.49C660.991 334.425 661.397 334.131 661.397 333.77V324.386C661.397 324.024 660.991 323.731 660.49 323.731Z" fill="#37474F"/>
<path d="M665.204 323.731H664.492C663.991 323.731 663.584 324.024 663.584 324.386V333.77C663.584 334.131 663.991 334.425 664.492 334.425H665.204C665.705 334.425 666.112 334.131 666.112 333.77V324.386C666.112 324.024 665.705 323.731 665.204 323.731Z" fill="#37474F"/>
<path d="M669.19 323.731H669.919C670.159 323.731 670.39 323.8 670.56 323.923C670.73 324.046 670.826 324.212 670.826 324.386V333.746C670.826 333.92 670.73 334.087 670.56 334.209C670.39 334.332 670.159 334.401 669.919 334.401H669.19C668.953 334.401 668.727 334.334 668.56 334.213C668.392 334.092 668.299 333.929 668.299 333.758V324.398C668.296 324.312 668.318 324.226 668.361 324.146C668.405 324.066 668.47 323.993 668.553 323.931C668.636 323.869 668.734 323.82 668.844 323.785C668.953 323.751 669.07 323.732 669.19 323.731Z" fill="#37474F"/>
<path d="M674.6 323.731H673.888C673.387 323.731 672.98 324.024 672.98 324.386V333.77C672.98 334.131 673.387 334.425 673.888 334.425H674.6C675.101 334.425 675.508 334.131 675.508 333.77V324.386C675.508 324.024 675.101 323.731 674.6 323.731Z" fill="#37474F"/>
<path d="M679.315 323.731H678.602C678.101 323.731 677.695 324.024 677.695 324.386V333.77C677.695 334.131 678.101 334.425 678.602 334.425H679.315C679.816 334.425 680.222 334.131 680.222 333.77V324.386C680.222 324.024 679.816 323.731 679.315 323.731Z" fill="#37474F"/>
<path d="M279.256 473.271L279.723 439.354L273.519 439.309L273.052 473.226L279.256 473.271Z" fill="#2AC5C5"/>
<path opacity="0.1" d="M279.256 473.271L279.723 439.354L273.519 439.309L273.052 473.226L279.256 473.271Z" fill="black"/>
<path d="M237.193 466.975L237.479 446.209L231.274 446.164L230.988 466.931L237.193 466.975Z" fill="#2AC5C5"/>
<path opacity="0.1" d="M237.193 466.975L237.479 446.209L231.274 446.164L230.988 466.931L237.193 466.975Z" fill="black"/>
<path d="M273.224 462.342L273.376 451.321L237.414 451.062L237.262 462.083L273.224 462.342Z" fill="#2AC5C5"/>
<path opacity="0.2" d="M267.397 462.294L269.519 451.285L273.359 451.32L273.197 462.329L267.397 462.294Z" fill="black"/>
<path d="M411.35 457.31C417.587 457.205 423.824 457.182 430.078 457.158H448.789L467.5 457.381L476.847 457.556C479.974 457.638 483.084 457.696 486.211 457.813C483.084 457.872 479.974 457.884 476.847 457.93H467.483H448.772L430.061 457.708C423.824 457.579 417.587 457.462 411.35 457.31Z" fill="#263238"/>
<path d="M406.893 469.383L407.228 445.106L279.659 444.19L279.325 468.466L406.893 469.383Z" fill="#2AC5C5"/>
<path opacity="0.6" d="M406.893 469.383L407.228 445.106L279.659 444.19L279.325 468.466L406.893 469.383Z" fill="white"/>
<path d="M406.94 466.19L407.186 448.302L285.66 447.429L285.414 465.317L406.94 466.19Z" fill="#2AC5C5"/>
<path d="M393.976 450.454L394.038 445.938L393.293 445.933L393.231 450.449L393.976 450.454Z" fill="#263238"/>
<path d="M391.49 450.467L391.552 445.951L390.807 445.945L390.745 450.461L391.49 450.467Z" fill="#263238"/>
<path d="M388.971 450.444L389.034 445.928L388.289 445.922L388.226 450.438L388.971 450.444Z" fill="#263238"/>
<path d="M386.469 450.432L386.531 445.916L385.786 445.911L385.724 450.427L386.469 450.432Z" fill="#263238"/>
<path d="M383.912 453.703L384.02 445.876L383.275 445.871L383.167 453.698L383.912 453.703Z" fill="#263238"/>
<path d="M381.577 450.397L381.639 445.881L380.894 445.876L380.832 450.392L381.577 450.397Z" fill="#263238"/>
<path d="M379.058 450.374L379.121 445.858L378.376 445.853L378.313 450.369L379.058 450.374Z" fill="#263238"/>
<path d="M376.556 450.34L376.618 445.824L375.873 445.818L375.811 450.334L376.556 450.34Z" fill="#263238"/>
<path d="M374 450.316L374.062 445.799L373.317 445.794L373.254 450.31L374 450.316Z" fill="#263238"/>
<path d="M371.481 453.623L371.589 445.796L370.843 445.791L370.736 453.617L371.481 453.623Z" fill="#263238"/>
<path d="M369.162 450.306L369.224 445.79L368.479 445.784L368.417 450.3L369.162 450.306Z" fill="#263238"/>
<path d="M366.627 450.259L366.689 445.743L365.944 445.737L365.882 450.253L366.627 450.259Z" fill="#263238"/>
<path d="M364.125 450.247L364.187 445.731L363.442 445.726L363.38 450.242L364.125 450.247Z" fill="#263238"/>
<path d="M361.622 450.259L361.685 445.743L360.94 445.738L360.877 450.254L361.622 450.259Z" fill="#263238"/>
<path d="M359.065 453.542L359.173 445.715L358.428 445.71L358.32 453.537L359.065 453.542Z" fill="#263238"/>
<path d="M356.73 450.213L356.793 445.697L356.047 445.691L355.985 450.207L356.73 450.213Z" fill="#263238"/>
<path d="M354.212 450.178L354.274 445.662L353.529 445.657L353.467 450.173L354.212 450.178Z" fill="#263238"/>
<path d="M351.709 450.179L351.772 445.663L351.027 445.657L350.964 450.173L351.709 450.179Z" fill="#263238"/>
<path d="M349.191 450.132L349.253 445.616L348.508 445.61L348.446 450.126L349.191 450.132Z" fill="#263238"/>
<path d="M346.65 453.438L346.758 445.611L346.013 445.606L345.905 453.433L346.65 453.438Z" fill="#263238"/>
<path d="M344.299 450.121L344.361 445.605L343.616 445.6L343.554 450.116L344.299 450.121Z" fill="#263238"/>
<path d="M341.78 450.086L341.843 445.57L341.097 445.564L341.035 450.08L341.78 450.086Z" fill="#263238"/>
<path d="M339.294 450.086L339.357 445.57L338.611 445.565L338.549 450.081L339.294 450.086Z" fill="#263238"/>
<path d="M336.776 450.04L336.838 445.524L336.093 445.519L336.031 450.035L336.776 450.04Z" fill="#263238"/>
<path d="M334.219 453.358L334.327 445.531L333.582 445.525L333.474 453.352L334.219 453.358Z" fill="#263238"/>
<path d="M331.884 450.029L331.946 445.513L331.201 445.507L331.138 450.023L331.884 450.029Z" fill="#263238"/>
<path d="M329.381 450.017L329.444 445.501L328.698 445.496L328.636 450.012L329.381 450.017Z" fill="#263238"/>
<path d="M326.879 449.994L326.941 445.478L326.196 445.473L326.134 449.989L326.879 449.994Z" fill="#263238"/>
<path d="M324.344 449.959L324.407 445.443L323.662 445.438L323.599 449.953L324.344 449.959Z" fill="#263238"/>
<path d="M321.804 453.277L321.911 445.45L321.166 445.445L321.058 453.272L321.804 453.277Z" fill="#263238"/>
<path d="M319.452 449.925L319.514 445.409L318.769 445.403L318.707 449.919L319.452 449.925Z" fill="#263238"/>
<path d="M316.95 449.913L317.012 445.397L316.267 445.392L316.205 449.908L316.95 449.913Z" fill="#263238"/>
<path d="M314.432 449.89L314.494 445.374L313.749 445.369L313.686 449.885L314.432 449.89Z" fill="#263238"/>
<path d="M311.929 449.878L311.992 445.362L311.246 445.357L311.184 449.873L311.929 449.878Z" fill="#263238"/>
<path d="M309.388 453.174L309.496 445.347L308.751 445.341L308.643 453.168L309.388 453.174Z" fill="#263238"/>
<path d="M307.037 449.844L307.099 445.328L306.354 445.323L306.292 449.839L307.037 449.844Z" fill="#263238"/>
<path d="M304.519 449.821L304.581 445.305L303.836 445.299L303.773 449.815L304.519 449.821Z" fill="#263238"/>
<path d="M302 449.786L302.062 445.27L301.317 445.265L301.255 449.781L302 449.786Z" fill="#263238"/>
<path d="M299.514 449.809L299.576 445.293L298.831 445.288L298.769 449.804L299.514 449.809Z" fill="#263238"/>
<path d="M296.941 453.081L297.048 445.254L296.303 445.249L296.195 453.075L296.941 453.081Z" fill="#263238"/>
<path d="M294.605 449.752L294.668 445.236L293.922 445.23L293.86 449.746L294.605 449.752Z" fill="#263238"/>
<path d="M292.103 449.752L292.165 445.236L291.42 445.23L291.358 449.746L292.103 449.752Z" fill="#263238"/>
<path d="M289.601 449.717L289.663 445.201L288.918 445.196L288.856 449.712L289.601 449.717Z" fill="#263238"/>
<path d="M287.083 449.717L287.145 445.201L286.4 445.196L286.337 449.712L287.083 449.717Z" fill="#263238"/>
<path d="M284.525 453L284.633 445.173L283.888 445.168L283.78 452.995L284.525 453Z" fill="#263238"/>
<path d="M406.893 469.373L407.227 445.097L397.605 445.028L397.271 469.304L406.893 469.373Z" fill="#263238"/>
<path d="M417.974 465.529L418.2 449.126L407.184 449.047L406.958 465.449L417.974 465.529Z" fill="#2AC5C5"/>
<path d="M431.244 459.51L431.293 455.286L418.106 454.432L418.025 460.177L431.244 459.51Z" fill="#2AC5C5"/>
<path opacity="0.1" d="M418.025 460.177L418.106 454.444L421.848 454.678L421.2 460.013L418.025 460.177Z" fill="black"/>
</g>
<defs>
<clipPath id="clip0_73_2">
<rect width="800" height="484" fill="white"/>
</clipPath>
</defs>
</svg>
