<svg width="54" height="62" viewBox="0 0 54 62" fill="none" xmlns="http://www.w3.org/2000/svg">
<path d="M43.6545 27.2023C44.8245 26.9439 45.6345 28.4681 44.9145 29.5531L29.277 52.4156C28.4895 53.5781 26.8695 52.8289 27.0045 51.3823L28.5795 31.7489C28.6245 31.1031 29.052 30.5606 29.6145 30.4314L43.6545 27.2023ZM48.69 19.8682C49.185 20.4882 48.915 21.4957 48.2175 21.6765L29.2275 26.0424C27.99 26.3265 27.18 24.5957 28.08 23.5624L39.375 10.594C39.8925 9.99986 40.725 10.0257 41.22 10.6199L48.69 19.8682ZM33.0547 8.2432C34.1122 8.3982 34.5397 9.87069 33.7972 10.749L25.7872 19.9457C25.3147 20.4882 24.5497 20.514 24.0322 19.9974L12.0172 7.72653C11.0722 6.7707 11.7922 4.9882 13.0297 5.16903L33.0547 8.2432ZM24.12 26.0217C24.7275 26.6417 25.02 27.5459 24.975 28.45L23.04 55.4717C22.9275 57.0217 21.06 57.3317 20.565 55.885L5.15248 10.2375C4.65748 8.79086 6.18748 7.5767 7.19998 8.61003L24.12 26.0217Z" fill="black"/>
</svg>
