<svg width="500" height="500" viewBox="0 0 500 500" fill="none" xmlns="http://www.w3.org/2000/svg">
<g clip-path="url(#clip0_73_4)">
<rect width="500" height="500" fill="white"/>
<path d="M99 403.08C177.37 444.02 304.44 444.02 382.8 403.08C461.16 362.14 461.17 295.76 382.8 254.82C304.43 213.88 177.37 213.88 99 254.82C20.63 295.76 20.65 362.14 99 403.08Z" fill="#F0F0F0"/>
<path d="M267.46 419.5L413.46 335.23C413.721 335.141 413.948 334.973 414.109 334.749C414.269 334.525 414.356 334.256 414.356 333.98C414.356 333.704 414.269 333.435 414.109 333.211C413.948 332.987 413.721 332.819 413.46 332.73L336.55 288.32C335.879 287.98 335.137 287.803 334.385 287.803C333.633 287.803 332.891 287.98 332.22 288.32L186.22 372.6C185.959 372.689 185.732 372.857 185.571 373.081C185.411 373.305 185.324 373.574 185.324 373.85C185.324 374.126 185.411 374.395 185.571 374.619C185.732 374.843 185.959 375.011 186.22 375.1L263.13 419.5C263.801 419.84 264.543 420.017 265.295 420.017C266.047 420.017 266.789 419.84 267.46 419.5Z" fill="#E6E6E6"/>
<path d="M62.31 301.85C59.5 304.49 54.38 304.02 52.19 303.68C49.2969 303.309 46.6613 301.828 44.84 299.55C43.9573 298.406 43.3987 297.046 43.2227 295.612C43.0468 294.178 43.26 292.723 43.84 291.4C44.37 290.3 45.23 289.17 44.92 287.98C44.61 286.79 43.39 286.26 42.35 285.69C39.16 283.93 36.35 280.61 37.03 276.69C37.71 272.77 42.19 272.03 42.19 272.03C40.5303 269.477 39.5715 266.531 39.41 263.49C39.29 260.18 39.86 256.82 40.67 256.36C41.48 255.9 50.16 259.55 52.32 266.47C53.3679 265.316 54.7712 264.544 56.3074 264.278C57.8436 264.012 59.4247 264.266 60.8 265C63.65 266.64 66.08 270.69 64.36 276.65C62.64 282.61 65.27 281.2 66.89 286.16C67.89 289.16 66.45 292.89 65.38 295.69C64.8659 297.208 64.2547 298.691 63.55 300.13C63.239 300.771 62.8195 301.353 62.31 301.85Z" fill="#2AC5C5"/>
<path d="M61.21 303.17C61.0824 303.17 60.9596 303.122 60.8666 303.034C60.7737 302.947 60.7177 302.827 60.71 302.7C59.57 283.4 48.71 266.22 43.46 261.7C43.3592 261.614 43.2968 261.491 43.2865 261.359C43.2762 261.227 43.3188 261.096 43.405 260.995C43.4912 260.894 43.6139 260.832 43.7461 260.821C43.8783 260.811 44.0092 260.854 44.11 260.94C49.5 265.54 60.55 283.04 61.71 302.63C61.7155 302.696 61.7075 302.762 61.6866 302.825C61.6656 302.888 61.6322 302.946 61.5883 302.995C61.5444 303.045 61.4908 303.085 61.431 303.113C61.3711 303.141 61.3062 303.157 61.24 303.16L61.21 303.17Z" fill="white"/>
<path d="M410.2 310.94C410.59 306.15 414.28 297.99 419.74 292.17C425.2 286.35 433.95 283.55 439.35 285.89C444.35 288.08 443.27 294.81 436.64 298.8C430.01 302.79 420.13 307.67 416.75 315.22L410.2 324.28V310.94Z" fill="#2AC5C5"/>
<path opacity="0.2" d="M410.2 310.94C410.59 306.15 414.28 297.99 419.74 292.17C425.2 286.35 433.95 283.55 439.35 285.89C444.35 288.08 443.27 294.81 436.64 298.8C430.01 302.79 420.13 307.67 416.75 315.22L410.2 324.28V310.94Z" fill="black"/>
<path d="M410.2 319.51H410.13C410.001 319.491 409.884 319.421 409.806 319.316C409.727 319.211 409.693 319.08 409.71 318.95C412.23 300.25 431.4 288.76 437.14 287.66C437.273 287.635 437.41 287.664 437.521 287.74C437.633 287.816 437.71 287.933 437.735 288.065C437.76 288.198 437.732 288.335 437.656 288.447C437.58 288.558 437.463 288.635 437.33 288.66C431.76 289.73 413.15 300.9 410.7 319.1C410.677 319.216 410.614 319.32 410.523 319.395C410.432 319.469 410.318 319.51 410.2 319.51Z" fill="white"/>
<path d="M410.92 332.48C411.92 329.86 416.08 325.14 422.13 322.81C428.18 320.48 432.72 318.41 434.89 314.66C437.06 310.91 433.26 307.23 427.16 307.49C421.06 307.75 410.92 314.14 410.16 324.28L410.92 332.48Z" fill="#2AC5C5"/>
<path d="M410.48 328H410.38C410.316 327.987 410.255 327.961 410.2 327.925C410.146 327.888 410.099 327.841 410.063 327.786C410.027 327.731 410.002 327.67 409.989 327.605C409.977 327.541 409.977 327.474 409.99 327.41C411.79 318.35 425.13 310.54 430.23 310.04C430.296 310.034 430.362 310.04 430.425 310.059C430.488 310.078 430.547 310.109 430.598 310.151C430.649 310.193 430.692 310.244 430.723 310.303C430.754 310.361 430.773 310.424 430.78 310.49C430.787 310.556 430.78 310.622 430.761 310.685C430.742 310.748 430.711 310.807 430.669 310.858C430.627 310.909 430.576 310.952 430.518 310.983C430.459 311.014 430.396 311.034 430.33 311.04C425.44 311.52 412.69 318.98 410.97 327.62C410.945 327.73 410.882 327.828 410.793 327.897C410.703 327.967 410.593 328.003 410.48 328Z" fill="white"/>
<path d="M402.79 332.48C402.27 331.26 399.63 330.23 396.13 331.22C394.816 331.589 393.433 331.635 392.098 331.354C390.763 331.074 389.515 330.476 388.46 329.61C387.324 328.486 386.616 327.001 386.46 325.41C386.3 324.09 386.46 322.08 385.73 320.96C385.409 320.573 385.009 320.259 384.558 320.039C384.106 319.818 383.612 319.696 383.11 319.68C382.107 319.653 381.114 319.481 380.16 319.17C379.475 318.869 378.906 318.353 378.54 317.7C377.66 316.13 378.11 314.16 377.66 312.43C377.32 311.197 376.541 310.13 375.47 309.43C373.96 308.43 370.17 307.33 371.79 304.79C373.18 302.61 376.62 302.52 378.79 303.22C381.282 304.205 383.654 305.469 385.86 306.99C386.505 307.404 387.196 307.739 387.92 307.99C389.45 308.48 391.11 307.79 392.64 307.56C394.296 307.236 396.01 307.392 397.58 308.01C401.45 309.73 400.04 312.85 402.82 313.79C402.82 313.79 405.51 315.59 405.13 321.25C404.788 325.071 404.002 328.84 402.79 332.48Z" fill="#2AC5C5"/>
<path opacity="0.2" d="M402.79 332.48C402.27 331.26 399.63 330.23 396.13 331.22C394.816 331.589 393.433 331.635 392.098 331.354C390.763 331.074 389.515 330.476 388.46 329.61C387.324 328.486 386.616 327.001 386.46 325.41C386.3 324.09 386.46 322.08 385.73 320.96C385.409 320.573 385.009 320.259 384.558 320.039C384.106 319.818 383.612 319.696 383.11 319.68C382.107 319.653 381.114 319.481 380.16 319.17C379.475 318.869 378.906 318.353 378.54 317.7C377.66 316.13 378.11 314.16 377.66 312.43C377.32 311.197 376.541 310.13 375.47 309.43C373.96 308.43 370.17 307.33 371.79 304.79C373.18 302.61 376.62 302.52 378.79 303.22C381.282 304.205 383.654 305.469 385.86 306.99C386.505 307.404 387.196 307.739 387.92 307.99C389.45 308.48 391.11 307.79 392.64 307.56C394.296 307.236 396.01 307.392 397.58 308.01C401.45 309.73 400.04 312.85 402.82 313.79C402.82 313.79 405.51 315.59 405.13 321.25C404.788 325.071 404.002 328.84 402.79 332.48Z" fill="black"/>
<path d="M404.28 327.44C404.17 327.441 404.063 327.405 403.976 327.338C403.889 327.271 403.827 327.177 403.8 327.07C401.87 320 379.42 306.38 375.21 305.89C375.078 305.872 374.958 305.804 374.876 305.7C374.794 305.595 374.756 305.462 374.77 305.33C374.792 305.2 374.862 305.083 374.965 305.002C375.069 304.921 375.199 304.881 375.33 304.89C379.74 305.41 402.7 319.22 404.76 326.81C404.778 326.873 404.783 326.939 404.775 327.004C404.768 327.069 404.747 327.132 404.714 327.189C404.681 327.246 404.638 327.296 404.585 327.335C404.533 327.375 404.474 327.404 404.41 327.42C404.369 327.436 404.324 327.443 404.28 327.44Z" fill="white"/>
<path d="M382.27 315.16C382.204 315.173 382.137 315.173 382.071 315.16C382.005 315.147 381.943 315.122 381.887 315.084C381.831 315.047 381.784 315 381.746 314.944C381.709 314.888 381.683 314.826 381.67 314.76C381.657 314.695 381.657 314.627 381.67 314.561C381.683 314.496 381.709 314.433 381.746 314.377C381.783 314.322 381.831 314.274 381.886 314.237C381.942 314.199 382.004 314.173 382.07 314.16C384.597 313.088 387.326 312.576 390.07 312.66C390.135 312.665 390.199 312.683 390.257 312.713C390.316 312.743 390.367 312.785 390.409 312.835C390.451 312.885 390.483 312.944 390.502 313.006C390.521 313.069 390.527 313.135 390.52 313.2C390.507 313.331 390.443 313.452 390.342 313.536C390.241 313.62 390.111 313.661 389.98 313.65C387.397 313.584 384.829 314.072 382.45 315.08C382.397 315.12 382.335 315.147 382.27 315.16Z" fill="white"/>
<path d="M395.08 317.29C394.966 317.291 394.855 317.252 394.766 317.182C394.677 317.111 394.615 317.011 394.59 316.9C394.243 314.51 394.406 312.073 395.07 309.75C395.107 309.618 395.195 309.505 395.315 309.438C395.435 309.37 395.577 309.353 395.71 309.39C395.843 309.427 395.955 309.516 396.023 309.636C396.09 309.756 396.107 309.898 396.07 310.03C395.461 312.195 395.305 314.462 395.61 316.69C395.625 316.755 395.626 316.821 395.614 316.886C395.602 316.951 395.577 317.013 395.541 317.068C395.504 317.124 395.457 317.171 395.402 317.207C395.347 317.244 395.285 317.268 395.22 317.28L395.08 317.29Z" fill="white"/>
<path d="M366.36 121L365.05 124.28L363.61 127.9L351.34 158.7L349.87 162.37L333.33 140.11C336.678 138.177 339.458 135.395 341.389 132.046C343.321 128.696 344.335 124.896 344.33 121.03V108.32L355.33 101.96V114.67C355.333 115.635 355.525 116.59 355.897 117.481C356.269 118.372 356.813 119.181 357.497 119.861C358.181 120.542 358.993 121.081 359.886 121.448C360.778 121.815 361.735 122.003 362.7 122C362.916 122.015 363.134 122.015 363.35 122C363.441 122.206 363.545 122.406 363.66 122.6L366.36 121Z" fill="#E0E0E0"/>
<path d="M366.36 121C365.449 121.558 364.423 121.9 363.36 122C363.451 122.206 363.555 122.406 363.67 122.6L359 125.27L363.59 127.93L366.34 129.52L373.69 125.28L366.36 121Z" fill="#E0E0E0"/>
<g style="mix-blend-mode:multiply" opacity="0.5">
<path d="M366.36 121C365.449 121.558 364.423 121.9 363.36 122C363.451 122.206 363.555 122.406 363.67 122.6L359 125.27L363.59 127.93L366.34 129.52L373.69 125.28L366.36 121Z" fill="#E0E0E0"/>
</g>
<path d="M373.71 125.28L357.22 166.62L351.34 158.7L340.67 144.35C344.017 142.417 346.796 139.637 348.727 136.29C350.658 132.942 351.673 129.144 351.67 125.28V112.56L355.35 110.44L362.68 106.2V118.92C362.676 119.979 362.901 121.026 363.34 121.99C363.431 122.196 363.535 122.396 363.65 122.59C364.023 123.23 364.492 123.81 365.04 124.31C366.397 125.579 368.182 126.293 370.04 126.31C371.333 126.301 372.601 125.945 373.71 125.28Z" fill="#EBEBEB"/>
<path d="M358.09 127.93C360.09 126.76 361.76 127.7 361.76 130.05C361.692 131.323 361.324 132.561 360.686 133.665C360.048 134.768 359.159 135.705 358.09 136.4C356.09 137.57 354.42 136.62 354.42 134.28C354.491 133.008 354.86 131.77 355.497 130.667C356.135 129.564 357.023 128.626 358.09 127.93Z" fill="#E0E0E0"/>
<g style="mix-blend-mode:multiply" opacity="0.5">
<path d="M358.09 127.93C360.09 126.76 361.76 127.7 361.76 130.05C361.692 131.323 361.324 132.561 360.686 133.665C360.048 134.768 359.159 135.705 358.09 136.4C356.09 137.57 354.42 136.62 354.42 134.28C354.491 133.008 354.86 131.77 355.497 130.667C356.135 129.564 357.023 128.626 358.09 127.93Z" fill="#E0E0E0"/>
</g>
<path d="M357.22 166.62L357.62 165.6V143.04L356.75 143.54V165.99L357.22 166.62Z" fill="#E0E0E0"/>
<path d="M362.69 106.2L355.35 101.96L344.34 108.31L351.68 112.56L362.69 106.2Z" fill="#E0E0E0"/>
<g style="mix-blend-mode:multiply" opacity="0.5">
<path d="M362.69 106.2L355.35 101.96L344.34 108.31L351.68 112.56L362.69 106.2Z" fill="#E0E0E0"/>
</g>
<path d="M340.67 144.35L333.33 140.1L349.88 162.37L357.22 166.62L340.67 144.35Z" fill="#E0E0E0"/>
<g style="mix-blend-mode:multiply" opacity="0.5">
<path d="M340.67 144.35L333.33 140.1L349.88 162.37L357.22 166.62L340.67 144.35Z" fill="#E0E0E0"/>
</g>
<path d="M344.34 112.56L366.36 99.8501V91.3701L344.34 104.08V112.56Z" fill="#EBEBEB"/>
<path d="M344.34 112.56L337 108.32V99.8501L344.34 104.08V112.56Z" fill="#E0E0E0"/>
<path d="M366.36 91.3699L359.02 87.1299L337 99.8499L344.34 104.08L366.36 91.3699Z" fill="#F5F5F5"/>
<path d="M342.74 173.58C339.711 173.616 336.727 172.85 334.09 171.36C327.84 167.75 324.39 160.17 324.39 150.03H325.3C325.3 159.83 328.58 167.13 334.55 170.57C340.52 174.01 348.47 173.21 356.96 168.31C374.67 158.08 389.08 133.13 389.08 112.68H389.98C389.98 133.42 375.37 158.68 357.41 169.09C352.25 172.07 347.25 173.58 342.74 173.58Z" fill="#EBEBEB"/>
<path d="M324.85 148.09C325.78 147.55 326.54 147.99 326.54 149.09C326.508 149.678 326.338 150.25 326.044 150.76C325.751 151.271 325.342 151.706 324.85 152.03C323.91 152.57 323.15 152.13 323.15 151.03C323.182 150.44 323.353 149.867 323.648 149.356C323.943 148.845 324.355 148.411 324.85 148.09Z" fill="#EBEBEB"/>
<path d="M389.53 110.72C390.47 110.18 391.23 110.62 391.23 111.72C391.2 112.31 391.03 112.884 390.734 113.395C390.438 113.906 390.026 114.34 389.53 114.66C388.59 115.2 387.83 114.77 387.83 113.66C387.862 113.071 388.033 112.497 388.328 111.987C388.623 111.476 389.035 111.042 389.53 110.72Z" fill="#EBEBEB"/>
<path d="M324.85 185.57C325.78 185.03 326.54 185.47 326.54 186.57C326.508 187.158 326.338 187.73 326.044 188.24C325.751 188.751 325.342 189.186 324.85 189.51C323.91 190.05 323.15 189.61 323.15 188.51C323.182 187.92 323.353 187.347 323.648 186.836C323.943 186.325 324.355 185.891 324.85 185.57Z" fill="#EBEBEB"/>
<path d="M389.53 148.15C390.47 147.61 391.23 148.05 391.23 149.15C391.198 149.739 391.027 150.312 390.732 150.823C390.437 151.334 390.025 151.768 389.53 152.09C388.59 152.63 387.83 152.19 387.83 151.09C387.862 150.501 388.033 149.927 388.328 149.416C388.623 148.905 389.035 148.472 389.53 148.15Z" fill="#EBEBEB"/>
<path d="M389.3 149.734L324.63 187.102L325.08 187.881L389.75 150.514L389.3 149.734Z" fill="#EBEBEB"/>
<path d="M183 69.1299V91.6499L181 92.7899V85.6899C181 81.8599 177.89 80.5599 174 82.7799L164.45 88.2899V121.9C164.45 126.34 167.17 128.37 170.51 126.44L176.45 123.01H176.51L183.01 126.76L150.51 145.52L146.06 143L144 144.18V141.74L150 138.28C153.35 136.35 156.07 131.18 156.07 126.74V93.1299L146.52 98.6499C142.67 100.87 139.52 105.77 139.52 109.59V116.69L137.47 117.91V95.3999L183 69.1299Z" fill="#E0E0E0"/>
<g style="mix-blend-mode:multiply" opacity="0.5">
<path d="M183 69.1299V91.6499L181 92.7899V85.6899C181 81.8599 177.89 80.5599 174 82.7799L164.45 88.2899V121.9C164.45 126.34 167.17 128.37 170.51 126.44L176.45 123.01H176.51L183.01 126.76L150.51 145.52L146.06 143L144 144.18V141.74L150 138.28C153.35 136.35 156.07 131.18 156.07 126.74V93.1299L146.52 98.6499C142.67 100.87 139.52 105.77 139.52 109.59V116.69L137.47 117.91V95.3999L183 69.1299Z" fill="#E0E0E0"/>
</g>
<path d="M187.4 96.5398L180.9 92.7898V81.5698L187.4 82.7998V96.5398Z" fill="#E0E0E0"/>
<g style="mix-blend-mode:multiply" opacity="0.5">
<path d="M187.4 96.5398L180.9 92.7898V81.5698L187.4 82.7998V96.5398Z" fill="#E0E0E0"/>
</g>
<path d="M189.45 72.8799V95.3999L187.45 96.5399V89.4399C187.45 85.6199 184.34 84.3099 180.45 86.5299L170.9 92.0499V125.65C170.9 130.09 173.62 132.12 176.96 130.19L182.96 126.73V129.17L150.46 147.93V145.49L156.46 142.03C159.81 140.1 162.53 134.93 162.53 130.5V96.8899L153 102.4C149.16 104.62 146.05 109.52 146.05 113.35V120.45L144 121.66V99.1499L189.45 72.8799Z" fill="#EBEBEB"/>
<path d="M182.95 69.1299L189.45 72.8799L143.95 99.1499L137.45 95.3999L182.95 69.1299Z" fill="#F5F5F5"/>
<path d="M137.45 95.3999L143.95 99.1499V121.67L137.45 117.91V95.3999Z" fill="#E0E0E0"/>
<path d="M143.95 141.74L150.45 145.49V147.93L143.95 144.18V141.74Z" fill="#E0E0E0"/>
<path d="M155.01 303.05L146.88 298.36L155.01 296.01V303.05Z" fill="#E0E0E0"/>
<g style="mix-blend-mode:multiply">
<path d="M155.01 296.01V303.05L146.88 298.36" fill="#37474F"/>
</g>
<path d="M106.26 324.15V331.63L61.58 305.83V298.36L106.26 324.15Z" fill="#E0E0E0"/>
<g style="mix-blend-mode:multiply">
<path d="M106.26 324.15V331.63L61.58 305.83V298.36L106.26 324.15Z" fill="#37474F"/>
</g>
<path d="M57.52 239.72L102.2 265.52V326.5L57.52 300.7V239.72Z" fill="#37474F"/>
<path d="M102.2 265.52L163.13 230.34V291.32L102.2 326.5V265.52Z" fill="#455A64"/>
<path d="M163.13 230.34L118.45 204.55L57.52 239.72L102.2 265.52L163.13 230.34Z" fill="#455A64"/>
<path d="M106.26 267.87L159.07 237.38V251.45L106.26 281.94V267.87Z" fill="#37474F"/>
<g style="mix-blend-mode:multiply" opacity="0.5">
<path d="M126.57 257.31C126.57 257.96 128.51 257.37 130.9 255.99L138.49 251.61C140.88 250.23 142.82 248.61 142.82 247.93V246.76L126.57 256.14V257.31Z" fill="#263238"/>
</g>
<path d="M106.26 286.63L159.07 256.14V270.21L106.26 300.7V286.63Z" fill="#37474F"/>
<g style="mix-blend-mode:multiply" opacity="0.5">
<path d="M126.57 276.08C126.57 276.72 128.51 276.13 130.9 274.75L138.49 270.37C140.88 268.99 142.82 267.37 142.82 266.7V265.52L126.57 274.9V276.08Z" fill="#263238"/>
</g>
<path d="M106.26 305.39L159.07 274.9V288.98L106.26 319.46V305.39Z" fill="#37474F"/>
<g style="mix-blend-mode:multiply" opacity="0.5">
<path d="M126.57 294.84C126.57 295.49 128.51 294.89 130.9 293.51L138.49 289.13C140.88 287.75 142.82 286.13 142.82 285.46V284.28L126.57 293.67V294.84Z" fill="#263238"/>
</g>
<path d="M106.26 331.63L110.33 329.29V321.81L106.26 324.15V331.63Z" fill="#37474F"/>
<path d="M155.01 303.05L159.07 300.7V293.67L155.01 296.01V303.05Z" fill="#37474F"/>
<path d="M102.53 255.23L145.81 230.23C146.331 229.892 146.764 229.436 147.075 228.899C147.386 228.362 147.566 227.759 147.6 227.14V212C147.566 211.38 147.386 210.777 147.075 210.24C146.764 209.703 146.331 209.247 145.81 208.91L115.91 191.65C115.359 191.369 114.749 191.222 114.13 191.222C113.511 191.222 112.901 191.369 112.35 191.65L69.06 216.65C68.5401 216.987 68.1077 217.443 67.7983 217.98C67.4889 218.518 67.3112 219.121 67.28 219.74V234.94C67.322 235.552 67.5044 236.147 67.8131 236.677C68.1217 237.208 68.5484 237.66 69.06 238L99 255.23C99.5479 255.504 100.152 255.647 100.765 255.647C101.378 255.647 101.982 255.504 102.53 255.23Z" fill="#2AC5C5"/>
<path opacity="0.6" d="M102.53 255.23L145.81 230.23C146.331 229.892 146.764 229.436 147.075 228.899C147.386 228.362 147.566 227.759 147.6 227.14V212C147.566 211.38 147.386 210.777 147.075 210.24C146.764 209.703 146.331 209.247 145.81 208.91L115.91 191.65C115.359 191.369 114.749 191.222 114.13 191.222C113.511 191.222 112.901 191.369 112.35 191.65L69.06 216.65C68.5401 216.987 68.1077 217.443 67.7983 217.98C67.4889 218.518 67.3112 219.121 67.28 219.74V234.94C67.322 235.552 67.5044 236.147 67.8131 236.677C68.1217 237.208 68.5484 237.66 69.06 238L99 255.23C99.5479 255.504 100.152 255.647 100.765 255.647C101.378 255.647 101.982 255.504 102.53 255.23Z" fill="white"/>
<path d="M146.77 209.74C146.502 209.379 146.162 209.079 145.77 208.86L115.87 191.6C115.319 191.319 114.709 191.172 114.09 191.172C113.471 191.172 112.861 191.319 112.31 191.6L69.02 216.6C68.5001 216.937 68.0677 217.394 67.7583 217.931C67.4489 218.468 67.2712 219.071 67.24 219.69V220L98.24 237.78L146.77 209.74Z" fill="#2AC5C5"/>
<path opacity="0.7" d="M146.77 209.74C146.502 209.379 146.162 209.079 145.77 208.86L115.87 191.6C115.319 191.319 114.709 191.172 114.09 191.172C113.471 191.172 112.861 191.319 112.31 191.6L69.02 216.6C68.5001 216.937 68.0677 217.394 67.7583 217.931C67.4489 218.468 67.2712 219.071 67.24 219.69V220L98.24 237.78L146.77 209.74Z" fill="white"/>
<path d="M100.74 254.2V239C100.713 238.384 100.542 237.783 100.239 237.247C99.9371 236.71 99.5125 236.252 99 235.91L69.1 218.65C68.1 218.08 67.32 218.54 67.32 219.65V234.85C67.3438 235.474 67.5136 236.084 67.8158 236.631C68.1179 237.178 68.5441 237.647 69.06 238L99 255.23C100 255.8 100.74 255.34 100.74 254.2Z" fill="#2AC5C5"/>
<path d="M107.44 248.53V246.6L140.91 227.28V229.21L107.44 248.53Z" fill="#E0E0E0"/>
<g style="mix-blend-mode:multiply" opacity="0.5">
<path d="M107.44 248.53V246.6L140.91 227.28V229.21L107.44 248.53Z" fill="#2AC5C5"/>
</g>
<path d="M109.94 247.09L123.46 254.89C123.68 255.003 123.923 255.062 124.17 255.062C124.417 255.062 124.66 255.003 124.88 254.89L150.23 240.26C150.436 240.216 150.621 240.103 150.754 239.939C150.887 239.775 150.959 239.571 150.959 239.36C150.959 239.149 150.887 238.944 150.754 238.78C150.621 238.617 150.436 238.503 150.23 238.46L136.72 230.66L109.94 246.11V247.09Z" fill="#E0E0E0"/>
<g style="mix-blend-mode:multiply" opacity="0.5">
<path d="M124.17 237.9V255.06C124.418 255.069 124.663 255.01 124.88 254.89L150.23 240.26C150.436 240.216 150.621 240.103 150.754 239.939C150.887 239.775 150.959 239.571 150.959 239.36C150.959 239.149 150.887 238.945 150.754 238.781C150.621 238.617 150.436 238.504 150.23 238.46L147.6 236.94H125.83L124.17 237.9Z" fill="#E0E0E0"/>
</g>
<path d="M123.46 253.92C123.68 254.033 123.923 254.092 124.17 254.092C124.417 254.092 124.66 254.033 124.88 253.92L150.23 239.29C150.316 239.259 150.39 239.203 150.443 239.129C150.496 239.055 150.524 238.966 150.524 238.875C150.524 238.784 150.496 238.695 150.443 238.62C150.39 238.546 150.316 238.49 150.23 238.46L136.72 230.66L109.94 246.11L123.46 253.92Z" fill="#F5F5F5"/>
<g opacity="0.5">
<path d="M123.46 253.92C123.68 254.033 123.923 254.092 124.17 254.092C124.417 254.092 124.66 254.033 124.88 253.92L150.23 239.29C150.316 239.259 150.39 239.203 150.443 239.129C150.496 239.055 150.524 238.966 150.524 238.875C150.524 238.784 150.496 238.695 150.443 238.62C150.39 238.546 150.316 238.49 150.23 238.46L136.72 230.66L109.94 246.11L123.46 253.92Z" fill="white"/>
</g>
<path d="M77.32 215.69L110.78 196.36L112.42 197.31L78.96 216.64L77.32 215.69Z" fill="#E0E0E0"/>
<g style="mix-blend-mode:multiply" opacity="0.5">
<path d="M77.32 215.69L110.78 196.36L112.42 197.31L78.96 216.64L77.32 215.69Z" fill="#2AC5C5"/>
</g>
<path d="M77.32 215.69L75.77 208.83L109.23 189.51L110.78 196.36L77.32 215.69Z" fill="#E0E0E0"/>
<path d="M78.09 216.14L76.54 209.29L110.01 189.97L111.56 196.82L78.09 216.14Z" fill="#2AC5C5"/>
<path opacity="0.6" d="M78.09 216.14L76.54 209.29L110.01 189.97L111.56 196.82L78.09 216.14Z" fill="white"/>
<path d="M76.54 209.29L75.77 208.83L77.32 215.69L78.09 216.14L76.54 209.29Z" fill="#2AC5C5"/>
<path d="M75.77 208.83L76.54 209.29L110.01 189.97L109.23 189.51L75.77 208.83Z" fill="#2AC5C5"/>
<path opacity="0.8" d="M75.77 208.83L76.54 209.29L110.01 189.97L109.23 189.51L75.77 208.83Z" fill="white"/>
<g opacity="0.5">
<path d="M85.44 220.38L105.65 232.05C106.195 232.361 106.647 232.811 106.962 233.354C107.276 233.896 107.441 234.513 107.44 235.14V239.14C107.44 240.05 108.08 240.42 108.86 239.96L139.48 222.29C139.894 222.019 140.238 221.654 140.485 221.225C140.732 220.796 140.874 220.314 140.9 219.82V215.82C140.9 215.195 140.736 214.582 140.424 214.041C140.111 213.5 139.661 213.051 139.12 212.74L118.9 201.05C118.458 200.828 117.97 200.713 117.475 200.713C116.98 200.713 116.492 200.828 116.05 201.05L85.44 218.73C85.267 218.788 85.1166 218.899 85.0101 219.047C84.9035 219.195 84.8462 219.373 84.8462 219.555C84.8462 219.737 84.9035 219.915 85.0101 220.063C85.1166 220.211 85.267 220.322 85.44 220.38Z" fill="white"/>
</g>
<path d="M110.39 198.49L80.27 215.88L79.89 214.2L75.24 193.68L105.36 176.3L110.01 196.81L110.39 198.49Z" fill="#F5F5F5"/>
<g opacity="0.5">
<path d="M110.39 198.49L80.27 215.88L79.89 214.2L75.24 193.68L105.36 176.3L110.01 196.81L110.39 198.49Z" fill="white" stroke="#E0E0E0" stroke-width="0.25" stroke-miterlimit="10"/>
</g>
<path d="M110.78 215.69C108.94 216.75 108.94 218.5 110.78 219.58C111.82 220.112 112.972 220.39 114.14 220.39C115.308 220.39 116.46 220.112 117.5 219.58C119.37 218.5 119.37 216.76 117.5 215.68C116.458 215.154 115.306 214.881 114.139 214.883C112.971 214.885 111.821 215.161 110.78 215.69Z" fill="#EBEBEB"/>
<path d="M91 206.14C90.6168 205.864 90.2996 205.507 90.0714 205.093C89.8431 204.68 89.7094 204.221 89.68 203.75C89.1267 200.597 90.6167 197.893 94.15 195.64L94.07 195.24C93.9767 194.7 93.7967 194.367 93.53 194.24C93.27 194.12 92.89 194.24 92.41 194.53C92.0966 194.728 91.8079 194.963 91.55 195.23C91.31 195.49 91.04 195.81 90.75 196.18C90.6354 196.375 90.4863 196.548 90.31 196.69C90.2218 196.739 90.1207 196.759 90.0205 196.748C89.9203 196.738 89.8258 196.696 89.75 196.63C89.5046 196.483 89.2878 196.294 89.11 196.07C88.9512 195.884 88.8351 195.666 88.77 195.43C88.7592 195.005 88.9011 194.59 89.17 194.26C89.5285 193.706 89.9552 193.198 90.44 192.75C90.9617 192.249 91.5311 191.8 92.14 191.41C93.7133 190.403 94.9233 190.07 95.77 190.41C96.2423 190.649 96.6429 191.01 96.9309 191.454C97.219 191.898 97.3843 192.411 97.41 192.94L98.22 197.54C98.3112 198.126 98.4347 198.707 98.59 199.28C98.69 199.66 98.82 200.07 98.97 200.52C99.0431 200.684 99.1001 200.855 99.14 201.03C99.14 201.3 98.91 201.7 98.32 202.23C97.824 202.688 97.2924 203.106 96.73 203.48C96.49 203.63 96.3 203.64 96.17 203.48C95.9752 203.243 95.8138 202.981 95.69 202.7C95.525 203.269 95.2719 203.809 94.94 204.3C94.5708 204.879 94.0793 205.371 93.5 205.74C93.1603 206.03 92.7472 206.221 92.3062 206.291C91.8652 206.362 91.4132 206.31 91 206.14ZM94.67 201.7C94.8455 201.416 94.9739 201.105 95.05 200.78L94.53 197.78C93.8611 198.116 93.3175 198.658 92.9792 199.325C92.6408 199.993 92.5254 200.752 92.65 201.49C92.6636 201.671 92.7152 201.848 92.8013 202.008C92.8875 202.168 93.0062 202.309 93.15 202.42C93.292 202.494 93.4532 202.523 93.6121 202.504C93.7711 202.484 93.9203 202.416 94.04 202.31C94.2803 202.151 94.4847 201.943 94.64 201.7H94.67Z" fill="#E0E0E0"/>
<path d="M197.66 233.2C197.063 232.787 196.572 232.24 196.224 231.603C195.877 230.965 195.684 230.256 195.66 229.53V202.8C195.697 202.062 195.926 201.347 196.324 200.724C196.722 200.101 197.276 199.593 197.93 199.25L234 182.59C234.684 182.304 235.422 182.167 236.163 182.188C236.904 182.208 237.633 182.386 238.3 182.71C238.897 183.123 239.388 183.67 239.736 184.308C240.083 184.945 240.276 185.655 240.3 186.38V213.11C240.261 213.848 240.031 214.562 239.633 215.185C239.236 215.807 238.683 216.315 238.03 216.66L202 233.32C201.31 233.612 200.566 233.752 199.817 233.732C199.068 233.711 198.333 233.53 197.66 233.2Z" fill="#455A64"/>
<path d="M203.75 205L196.31 200.71C195.891 201.332 195.655 202.06 195.63 202.81V229.54C195.654 230.265 195.847 230.975 196.194 231.612C196.542 232.25 197.033 232.797 197.63 233.21C198.297 233.534 199.026 233.712 199.767 233.733C200.508 233.753 201.246 233.616 201.93 233.33L203.72 232.5L203.75 205Z" fill="#263238"/>
<path d="M202 201.6L238 184.93C238.238 184.776 238.516 184.693 238.8 184.692C239.084 184.691 239.362 184.772 239.601 184.925C239.841 185.078 240.031 185.296 240.149 185.554C240.268 185.812 240.31 186.099 240.27 186.38V213.11C240.231 213.848 240.001 214.563 239.603 215.185C239.206 215.807 238.653 216.315 238 216.66L202 233.32C201.762 233.475 201.484 233.557 201.2 233.558C200.916 233.559 200.638 233.478 200.399 233.325C200.159 233.173 199.969 232.954 199.851 232.696C199.732 232.438 199.69 232.151 199.73 231.87V205.14C199.769 204.404 199.998 203.69 200.396 203.07C200.794 202.449 201.347 201.943 202 201.6Z" fill="#37474F"/>
<path d="M209.92 275.27V336.48C209.906 336.762 209.825 337.037 209.684 337.282C209.544 337.527 209.347 337.736 209.11 337.89L206.92 339.15C206.669 339.278 206.392 339.345 206.11 339.345C205.828 339.345 205.551 339.278 205.3 339.15L203.11 337.89C202.875 337.734 202.679 337.525 202.539 337.281C202.398 337.036 202.316 336.762 202.3 336.48V275.27C202.3 274.541 202.59 273.841 203.105 273.326C203.621 272.81 204.321 272.52 205.05 272.52H207.17C207.899 272.52 208.599 272.81 209.115 273.326C209.63 273.841 209.92 274.541 209.92 275.27Z" fill="#263238"/>
<path d="M204.21 272.52C204.714 272.52 205.197 272.72 205.553 273.077C205.91 273.433 206.11 273.916 206.11 274.42V338.79C206.11 339.25 205.79 339.43 205.39 339.21L203.08 337.87C202.853 337.722 202.664 337.523 202.528 337.288C202.393 337.054 202.314 336.791 202.3 336.52V274.42C202.303 273.915 202.505 273.432 202.863 273.076C203.221 272.72 203.705 272.52 204.21 272.52Z" fill="#37474F"/>
<path d="M251.14 296.76V359.76C251.122 360.042 251.039 360.315 250.897 360.558C250.754 360.801 250.557 361.007 250.32 361.16L248.14 362.42C247.887 362.549 247.608 362.615 247.325 362.615C247.042 362.615 246.763 362.549 246.51 362.42L244.33 361.16C244.095 361.007 243.899 360.8 243.758 360.557C243.617 360.314 243.536 360.041 243.52 359.76V296.76C243.52 296.513 243.618 296.275 243.792 296.099C243.966 295.923 244.202 295.823 244.45 295.82H250.2C250.449 295.82 250.688 295.919 250.865 296.096C251.041 296.272 251.14 296.511 251.14 296.76Z" fill="#263238"/>
<path d="M244.45 295.82H246.39C246.639 295.82 246.878 295.919 247.055 296.096C247.231 296.272 247.33 296.511 247.33 296.76V362C247.33 362.51 246.97 362.72 246.52 362.46L244.34 361.2C244.105 361.047 243.909 360.84 243.768 360.597C243.627 360.354 243.546 360.081 243.53 359.8V296.8C243.525 296.675 243.544 296.55 243.588 296.433C243.632 296.316 243.698 296.208 243.784 296.117C243.87 296.025 243.973 295.952 244.087 295.901C244.201 295.85 244.325 295.823 244.45 295.82Z" fill="#37474F"/>
<path d="M202.3 274V274.84C202.335 275.61 202.531 276.363 202.876 277.052C203.22 277.741 203.706 278.35 204.3 278.84L245.3 307.4C245.917 307.802 246.63 308.034 247.365 308.072C248.101 308.111 248.834 307.955 249.49 307.62L301 277.79C301.642 277.38 302.177 276.822 302.56 276.162C302.943 275.503 303.162 274.762 303.2 274V273.13C303.161 272.393 302.931 271.678 302.533 271.056C302.136 270.434 301.583 269.925 300.93 269.58L250.25 246.08C249.538 245.798 248.774 245.67 248.009 245.704C247.243 245.739 246.494 245.935 245.81 246.28L204.47 270.17C203.828 270.588 203.296 271.154 202.918 271.821C202.54 272.487 202.328 273.235 202.3 274Z" fill="#37474F"/>
<path d="M204.47 270.21L245.81 246.32C246.494 245.975 247.243 245.779 248.009 245.744C248.774 245.71 249.538 245.838 250.25 246.12L300.93 269.62C302.18 270.2 302.23 271.23 301.03 271.92L249.49 301.68C248.835 302.017 248.102 302.174 247.367 302.137C246.631 302.101 245.918 301.87 245.3 301.47L204.3 272.93C204.047 272.794 203.839 272.589 203.7 272.338C203.56 272.087 203.496 271.802 203.514 271.516C203.532 271.23 203.631 270.954 203.801 270.723C203.97 270.492 204.202 270.314 204.47 270.21Z" fill="#455A64"/>
<path d="M218.68 247.88C214.35 254.43 212.88 264.88 217.05 273.03C219.05 276.96 238.05 298.7 251.84 296.91C275.55 293.81 297.6 262.27 297.6 262.27L265.77 245.1L218.68 247.88Z" fill="#263238"/>
<path d="M326.33 322.43C337.33 331.27 344.4 332.18 347.24 333.98C350.08 335.78 349.94 340.75 344.71 343.23C339.48 345.71 333.16 345.87 328.71 343.23C324.26 340.59 320.64 336.54 316.36 334.86C312.08 333.18 310.04 332.95 308.74 330.02C307.44 327.09 307.9 317.31 307.9 317.31L326.33 322.43Z" fill="#263238"/>
<path d="M318.21 306.8C318.43 310.95 318.44 314.63 322.33 318.72C323.585 320.038 324.921 321.277 326.33 322.43C332.77 327.71 337.96 331.78 338.88 332.5C339.8 333.22 336.41 337.06 331.26 336.3C326.11 335.54 320.38 329.63 316.26 326.23C314.44 324.72 312.69 323.37 311.31 322.33C309.458 320.952 308.177 318.941 307.71 316.68L306.37 310.3L318.21 306.8Z" fill="#FFA8A7" stroke="#FFA8A7" stroke-miterlimit="10"/>
<path d="M298.22 338.63C309.22 347.47 316.28 348.38 319.13 350.18C321.98 351.98 321.83 356.95 316.6 359.43C311.37 361.91 305.05 362.07 300.6 359.43C296.15 356.79 292.53 352.74 288.25 351.06C283.97 349.38 281.93 349.14 280.62 346.22C279.31 343.3 279.78 333.51 279.78 333.51L298.22 338.63Z" fill="#263238"/>
<path d="M290.09 323C290.31 327.15 290.33 330.83 294.22 334.92C295.476 336.238 296.811 337.477 298.22 338.63C304.65 343.91 309.85 347.98 310.76 348.7C311.67 349.42 308.3 353.26 303.14 352.5C297.98 351.74 292.26 345.83 288.14 342.43C286.32 340.92 284.57 339.57 283.19 338.53C281.341 337.149 280.061 335.139 279.59 332.88L278.25 326.5L290.09 323Z" fill="#FFA8A7" stroke="#FFA8A7" stroke-miterlimit="10"/>
<path d="M260.62 342V415C260.637 415.301 260.725 415.593 260.876 415.854C261.027 416.114 261.237 416.336 261.49 416.5L263.82 417.84C264.088 417.978 264.384 418.05 264.685 418.05C264.986 418.05 265.282 417.978 265.55 417.84L267.88 416.5C268.133 416.336 268.343 416.114 268.494 415.854C268.645 415.593 268.733 415.301 268.75 415V342C268.75 341.735 268.645 341.48 268.457 341.293C268.27 341.105 268.015 341 267.75 341H261.62C261.355 341 261.1 341.105 260.913 341.293C260.725 341.48 260.62 341.735 260.62 342Z" fill="#2AC5C5"/>
<path d="M267.75 341H265.68C265.415 341 265.16 341.105 264.973 341.293C264.785 341.48 264.68 341.735 264.68 342V417.37C264.68 417.92 265.07 418.15 265.55 417.87L267.88 416.53C268.133 416.366 268.343 416.144 268.494 415.884C268.645 415.623 268.733 415.331 268.75 415.03V342C268.75 341.735 268.645 341.48 268.457 341.293C268.27 341.105 268.015 341 267.75 341Z" fill="#2AC5C5"/>
<path opacity="0.6" d="M267.75 341H265.68C265.415 341 265.16 341.105 264.973 341.293C264.785 341.48 264.68 341.735 264.68 342V417.37C264.68 417.92 265.07 418.15 265.55 417.87L267.88 416.53C268.133 416.366 268.343 416.144 268.494 415.884C268.645 415.623 268.733 415.331 268.75 415.03V342C268.75 341.735 268.645 341.48 268.457 341.293C268.27 341.105 268.015 341 267.75 341Z" fill="white"/>
<path d="M402.79 260V333C402.807 333.301 402.895 333.593 403.046 333.854C403.197 334.114 403.407 334.336 403.66 334.5L405.99 335.84C406.258 335.978 406.554 336.05 406.855 336.05C407.156 336.05 407.452 335.978 407.72 335.84L410.05 334.5C410.303 334.336 410.513 334.114 410.664 333.854C410.815 333.593 410.903 333.301 410.92 333V260C410.92 259.735 410.815 259.48 410.627 259.293C410.44 259.105 410.185 259 409.92 259H403.79C403.525 259 403.27 259.105 403.083 259.293C402.895 259.48 402.79 259.735 402.79 260Z" fill="#2AC5C5"/>
<path d="M409.92 259H407.85C407.585 259 407.33 259.105 407.143 259.293C406.955 259.48 406.85 259.735 406.85 260V335.36C406.85 335.92 407.24 336.14 407.72 335.86L410.05 334.52C410.303 334.356 410.513 334.134 410.664 333.874C410.815 333.613 410.903 333.321 410.92 333.02V260C410.92 259.735 410.815 259.48 410.627 259.293C410.44 259.105 410.185 259 409.92 259Z" fill="#2AC5C5"/>
<path opacity="0.6" d="M409.92 259H407.85C407.585 259 407.33 259.105 407.143 259.293C406.955 259.48 406.85 259.735 406.85 260V335.36C406.85 335.92 407.24 336.14 407.72 335.86L410.05 334.52C410.303 334.356 410.513 334.134 410.664 333.874C410.815 333.613 410.903 333.321 410.92 333.02V260C410.92 259.735 410.815 259.48 410.627 259.293C410.44 259.105 410.185 259 409.92 259Z" fill="white"/>
<path d="M187.5 299.82V372.82C187.517 373.121 187.605 373.414 187.756 373.674C187.907 373.935 188.117 374.156 188.37 374.32L190.7 375.66C190.968 375.798 191.264 375.87 191.565 375.87C191.866 375.87 192.162 375.798 192.43 375.66L194.76 374.32C195.013 374.156 195.223 373.935 195.374 373.674C195.525 373.414 195.613 373.121 195.63 372.82V299.82C195.63 299.555 195.525 299.301 195.337 299.113C195.15 298.926 194.895 298.82 194.63 298.82H188.5C188.235 298.82 187.98 298.926 187.793 299.113C187.605 299.301 187.5 299.555 187.5 299.82Z" fill="#2AC5C5"/>
<path d="M194.63 298.82H192.57C192.305 298.82 192.05 298.926 191.863 299.113C191.675 299.301 191.57 299.555 191.57 299.82V375.19C191.57 375.74 191.95 375.97 192.43 375.69L194.76 374.35C195.013 374.186 195.223 373.965 195.374 373.704C195.525 373.444 195.613 373.151 195.63 372.85V299.85C195.634 299.716 195.611 299.583 195.563 299.458C195.514 299.334 195.441 299.22 195.348 299.124C195.255 299.028 195.143 298.951 195.02 298.899C194.896 298.847 194.764 298.82 194.63 298.82Z" fill="#2AC5C5"/>
<path opacity="0.6" d="M194.63 298.82H192.57C192.305 298.82 192.05 298.926 191.863 299.113C191.675 299.301 191.57 299.555 191.57 299.82V375.19C191.57 375.74 191.95 375.97 192.43 375.69L194.76 374.35C195.013 374.186 195.223 373.965 195.374 373.704C195.525 373.444 195.613 373.151 195.63 372.85V299.85C195.634 299.716 195.611 299.583 195.563 299.458C195.514 299.334 195.441 299.22 195.348 299.124C195.255 299.028 195.143 298.951 195.02 298.899C194.896 298.847 194.764 298.82 194.63 298.82Z" fill="white"/>
<path d="M183.44 299.14V298.45C183.475 297.85 183.649 297.266 183.95 296.745C184.25 296.224 184.668 295.781 185.17 295.45L332 210.68C332.538 210.409 333.132 210.268 333.735 210.268C334.338 210.268 334.932 210.409 335.47 210.68L413.25 255.59C413.754 255.919 414.173 256.362 414.473 256.883C414.774 257.404 414.948 257.989 414.98 258.59V259.28C414.945 259.88 414.771 260.464 414.47 260.985C414.17 261.506 413.752 261.949 413.25 262.28L266.41 347.05C265.874 347.321 265.281 347.463 264.68 347.463C264.079 347.463 263.486 347.321 262.95 347.05L185.17 302.14C184.666 301.811 184.247 301.368 183.947 300.847C183.646 300.325 183.472 299.741 183.44 299.14Z" fill="#2AC5C5"/>
<path opacity="0.6" d="M183.44 299.14V298.45C183.475 297.85 183.649 297.266 183.95 296.745C184.25 296.224 184.668 295.781 185.17 295.45L332 210.68C332.538 210.409 333.132 210.268 333.735 210.268C334.338 210.268 334.932 210.409 335.47 210.68L413.25 255.59C413.754 255.919 414.173 256.362 414.473 256.883C414.774 257.404 414.948 257.989 414.98 258.59V259.28C414.945 259.88 414.771 260.464 414.47 260.985C414.17 261.506 413.752 261.949 413.25 262.28L266.41 347.05C265.874 347.321 265.281 347.463 264.68 347.463C264.079 347.463 263.486 347.321 262.95 347.05L185.17 302.14C184.666 301.811 184.247 301.368 183.947 300.847C183.646 300.325 183.472 299.741 183.44 299.14Z" fill="white"/>
<path d="M264.68 249.55L185.17 295.45C184.668 295.781 184.25 296.225 183.95 296.745C183.649 297.266 183.475 297.85 183.44 298.45V299.14C183.472 299.741 183.646 300.326 183.947 300.847C184.247 301.368 184.666 301.811 185.17 302.14L263 347.05C263.534 347.329 264.128 347.47 264.73 347.46L264.68 249.55Z" fill="#2AC5C5"/>
<path d="M185.17 297.45L263 342.36C263.536 342.631 264.129 342.773 264.73 342.773C265.331 342.773 265.924 342.631 266.46 342.36L413.3 257.59C413.507 257.517 413.686 257.382 413.813 257.203C413.94 257.024 414.008 256.809 414.008 256.59C414.008 256.37 413.94 256.156 413.813 255.977C413.686 255.798 413.507 255.663 413.3 255.59L335.52 210.68C334.982 210.409 334.388 210.268 333.785 210.268C333.182 210.268 332.588 210.409 332.05 210.68L185.17 295.45C184.963 295.523 184.784 295.658 184.657 295.837C184.53 296.016 184.462 296.23 184.462 296.45C184.462 296.67 184.53 296.884 184.657 297.063C184.784 297.242 184.963 297.377 185.17 297.45Z" fill="#2AC5C5"/>
<path opacity="0.7" d="M185.17 297.45L263 342.36C263.536 342.631 264.129 342.773 264.73 342.773C265.331 342.773 265.924 342.631 266.46 342.36L413.3 257.59C413.507 257.517 413.686 257.382 413.813 257.203C413.94 257.024 414.008 256.809 414.008 256.59C414.008 256.37 413.94 256.156 413.813 255.977C413.686 255.798 413.507 255.663 413.3 255.59L335.52 210.68C334.982 210.409 334.388 210.268 333.785 210.268C333.182 210.268 332.588 210.409 332.05 210.68L185.17 295.45C184.963 295.523 184.784 295.658 184.657 295.837C184.53 296.016 184.462 296.23 184.462 296.45C184.462 296.67 184.53 296.884 184.657 297.063C184.784 297.242 184.963 297.377 185.17 297.45Z" fill="white"/>
<path d="M280.94 257.58V257.93C280.955 258.23 281.041 258.522 281.191 258.783C281.34 259.043 281.549 259.265 281.8 259.43L296.32 267.81C296.588 267.945 296.885 268.016 297.185 268.016C297.485 268.016 297.782 267.945 298.05 267.81L345.05 240.4C345.303 240.234 345.514 240.011 345.665 239.749C345.816 239.486 345.904 239.192 345.92 238.89V238.82C345.903 238.519 345.815 238.227 345.664 237.966C345.513 237.705 345.303 237.484 345.05 237.32L330.57 228.94C330.299 228.809 330.001 228.741 329.7 228.741C329.399 228.741 329.101 228.809 328.83 228.94L281.83 256.08C281.573 256.241 281.359 256.461 281.204 256.722C281.049 256.983 280.959 257.277 280.94 257.58Z" fill="#37474F"/>
<path d="M280.94 257.58V257.93C280.955 258.23 281.041 258.522 281.191 258.783C281.34 259.044 281.549 259.265 281.8 259.43L296.32 267.81C296.584 267.953 296.88 268.025 297.18 268.02V253.33H286.56L281.8 256.08C281.549 256.245 281.34 256.467 281.191 256.727C281.041 256.988 280.955 257.28 280.94 257.58Z" fill="#263238"/>
<path d="M345.06 238.32L298.06 265.47C297.792 265.605 297.495 265.676 297.195 265.676C296.895 265.676 296.598 265.605 296.33 265.47L281.81 257.09C281.706 257.054 281.617 256.986 281.553 256.897C281.49 256.807 281.456 256.7 281.456 256.59C281.456 256.48 281.49 256.373 281.553 256.284C281.617 256.194 281.706 256.127 281.81 256.09L328.81 228.95C329.081 228.819 329.379 228.751 329.68 228.751C329.981 228.751 330.279 228.819 330.55 228.95L345.03 237.33C345.54 237.6 345.54 238.05 345.06 238.32Z" fill="#455A64"/>
<path d="M303 253.23L301.52 254.08C301.45 254.08 301.45 254.18 301.52 254.21L303.11 255.14C303.146 255.155 303.186 255.163 303.225 255.163C303.264 255.163 303.304 255.155 303.34 255.14L304.82 254.28C304.89 254.28 304.89 254.18 304.82 254.15L303.23 253.23C303.195 253.211 303.155 253.201 303.115 253.201C303.075 253.201 303.035 253.211 303 253.23ZM305.62 256.45L307.11 255.6C307.17 255.6 307.17 255.5 307.11 255.47L305.51 254.54C305.436 254.511 305.354 254.511 305.28 254.54L303.8 255.4C303.73 255.4 303.73 255.49 303.8 255.53L305.39 256.45C305.421 256.464 305.455 256.472 305.49 256.472C305.525 256.472 305.559 256.464 305.59 256.45H305.62ZM310.41 253.69L312.92 252.24C312.99 252.24 312.99 252.14 312.92 252.11L311.33 251.18C311.294 251.165 311.254 251.157 311.215 251.157C311.176 251.157 311.136 251.165 311.1 251.18L308.59 252.63C308.53 252.63 308.53 252.73 308.59 252.76L310.19 253.69C310.251 253.712 310.319 253.712 310.38 253.69H310.41ZM307.79 255.2L309.27 254.35C309.34 254.35 309.34 254.25 309.27 254.21L307.68 253.29C307.644 253.275 307.604 253.267 307.565 253.267C307.526 253.267 307.486 253.275 307.45 253.29L305.96 254.15C305.9 254.15 305.9 254.24 305.96 254.28L307.56 255.2C307.591 255.214 307.625 255.222 307.66 255.222C307.695 255.222 307.729 255.214 307.76 255.2H307.79ZM313.61 251.84L315.09 250.99C315.102 250.983 315.113 250.973 315.12 250.961C315.127 250.948 315.131 250.934 315.131 250.92C315.131 250.906 315.127 250.892 315.12 250.879C315.113 250.867 315.102 250.857 315.09 250.85L313.49 249.93C313.455 249.915 313.418 249.908 313.38 249.908C313.342 249.908 313.305 249.915 313.27 249.93L311.78 250.79C311.72 250.79 311.72 250.88 311.78 250.92L313.38 251.84C313.411 251.854 313.445 251.862 313.48 251.862C313.515 251.862 313.549 251.854 313.58 251.84H313.61ZM315.78 250.59L317.26 249.74C317.273 249.733 317.283 249.723 317.29 249.711C317.297 249.698 317.301 249.684 317.301 249.67C317.301 249.656 317.297 249.642 317.29 249.629C317.283 249.617 317.273 249.607 317.26 249.6L315.66 248.68C315.624 248.665 315.584 248.657 315.545 248.657C315.506 248.657 315.466 248.665 315.43 248.68L313.95 249.54C313.89 249.54 313.89 249.63 313.95 249.67L315.55 250.59C315.581 250.604 315.615 250.612 315.65 250.612C315.685 250.612 315.719 250.604 315.75 250.59H315.78ZM309.5 246.84L308.02 247.69C308.007 247.697 307.997 247.707 307.99 247.719C307.983 247.732 307.979 247.746 307.979 247.76C307.979 247.774 307.983 247.788 307.99 247.801C307.997 247.813 308.007 247.823 308.02 247.83L309.62 248.75C309.655 248.765 309.692 248.773 309.73 248.773C309.768 248.773 309.805 248.765 309.84 248.75L311.33 247.89C311.39 247.89 311.39 247.8 311.33 247.76L309.73 246.84C309.691 246.815 309.646 246.802 309.6 246.802C309.554 246.802 309.509 246.815 309.47 246.84H309.5ZM311.67 245.59L310.19 246.44C310.12 246.44 310.12 246.54 310.19 246.57L311.78 247.5C311.816 247.515 311.856 247.523 311.895 247.523C311.934 247.523 311.974 247.515 312.01 247.5L313.49 246.64C313.56 246.64 313.56 246.54 313.49 246.51L311.9 245.59C311.861 245.565 311.816 245.552 311.77 245.552C311.724 245.552 311.679 245.565 311.64 245.59H311.67ZM313.84 244.33L312.35 245.19C312.29 245.19 312.29 245.29 312.35 245.32L313.95 246.24C313.985 246.259 314.025 246.269 314.065 246.269C314.105 246.269 314.145 246.259 314.18 246.24L315.66 245.39C315.72 245.39 315.72 245.29 315.66 245.26L314.06 244.33C314.021 244.311 313.978 244.301 313.935 244.301C313.892 244.301 313.849 244.311 313.81 244.33H313.84ZM316 243.08L314.52 243.94C314.46 243.94 314.46 244.03 314.52 244.07L316.12 244.99C316.155 245.009 316.195 245.019 316.235 245.019C316.275 245.019 316.315 245.009 316.35 244.99L317.83 244.14C317.89 244.14 317.89 244.04 317.83 244.01L316.23 243.08C316.194 243.065 316.154 243.057 316.115 243.057C316.076 243.057 316.036 243.065 316 243.08ZM305.14 252L303.65 252.86C303.59 252.86 303.59 252.96 303.65 252.99L305.25 253.91C305.285 253.929 305.325 253.939 305.365 253.939C305.405 253.939 305.445 253.929 305.48 253.91L307 253C307.06 253 307.06 252.9 307 252.87L305.4 251.94C305.355 251.928 305.308 251.927 305.262 251.937C305.217 251.948 305.175 251.969 305.14 252ZM307.3 248.12L304 250C303.93 250 303.93 250.09 304 250.13L307.87 252.37C307.905 252.389 307.945 252.399 307.985 252.399C308.025 252.399 308.065 252.389 308.1 252.37L309.81 251.37C309.88 251.37 309.88 251.28 309.81 251.24L307.76 250.05C307.7 250.05 307.7 249.96 307.76 249.92L309.13 249.13C309.19 249.13 309.19 249.04 309.13 249L307.53 248.08C307.494 248.062 307.454 248.054 307.414 248.056C307.374 248.057 307.334 248.069 307.3 248.09V248.12ZM317.91 249.37L319.4 248.51C319.46 248.51 319.46 248.42 319.4 248.38L317.8 247.46C317.765 247.441 317.725 247.431 317.685 247.431C317.645 247.431 317.605 247.441 317.57 247.46L316.09 248.32C316.02 248.32 316.02 248.41 316.09 248.45L317.68 249.37C317.718 249.385 317.759 249.39 317.799 249.385C317.839 249.379 317.877 249.364 317.91 249.34V249.37ZM320.08 248.12L321.56 247.26C321.63 247.26 321.63 247.17 321.56 247.13L319.97 246.21C319.935 246.191 319.895 246.181 319.855 246.181C319.815 246.181 319.775 246.191 319.74 246.21L318.25 247.06C318.237 247.067 318.227 247.077 318.22 247.089C318.213 247.102 318.209 247.116 318.209 247.13C318.209 247.144 318.213 247.158 318.22 247.171C318.227 247.183 318.237 247.193 318.25 247.2L319.85 248.12C319.888 248.135 319.929 248.14 319.969 248.135C320.009 248.129 320.047 248.114 320.08 248.09V248.12ZM331.37 234.35C331.335 234.335 331.298 234.328 331.26 234.328C331.222 234.328 331.185 234.335 331.15 234.35L329.66 235.21C329.6 235.21 329.6 235.31 329.66 235.34L331.26 236.26C331.295 236.279 331.335 236.289 331.375 236.289C331.415 236.289 331.455 236.279 331.49 236.26L332.97 235.41C333.03 235.41 333.03 235.31 332.97 235.28L331.37 234.35ZM337.42 238.11L338.9 237.25C338.97 237.25 338.97 237.16 338.9 237.12L337.31 236.2C337.275 236.181 337.235 236.171 337.195 236.171C337.155 236.171 337.115 236.181 337.08 236.2L335.59 237.05C335.577 237.057 335.567 237.067 335.56 237.079C335.553 237.092 335.549 237.106 335.549 237.12C335.549 237.134 335.553 237.148 335.56 237.161C335.567 237.173 335.577 237.183 335.59 237.19L337.19 238.11C337.268 238.13 337.35 238.119 337.42 238.08V238.11ZM334.23 235.34C334.194 235.325 334.154 235.317 334.115 235.317C334.076 235.317 334.036 235.325 334 235.34L332.51 236.2C332.45 236.2 332.45 236.29 332.51 236.33L334.11 237.25C334.145 237.269 334.185 237.279 334.225 237.279C334.265 237.279 334.305 237.269 334.34 237.25L335.82 236.4C335.89 236.4 335.89 236.3 335.82 236.26L334.23 235.34ZM327.72 233.7L326.24 234.55C326.18 234.55 326.18 234.65 326.24 234.68L327.84 235.6C327.875 235.619 327.915 235.629 327.955 235.629C327.995 235.629 328.035 235.619 328.07 235.6L329.55 234.75C329.61 234.75 329.61 234.65 329.55 234.62L327.95 233.7C327.917 233.676 327.879 233.661 327.839 233.655C327.799 233.65 327.758 233.655 327.72 233.67V233.7ZM330.12 232.44C330.046 232.411 329.964 232.411 329.89 232.44L328.41 233.3C328.34 233.3 328.34 233.4 328.41 233.43L330 234.35C330.035 234.369 330.075 234.379 330.115 234.379C330.155 234.379 330.195 234.369 330.23 234.35L331.72 233.5C331.78 233.5 331.78 233.4 331.72 233.37L330.12 232.44ZM335.25 239.36L336.74 238.5C336.8 238.5 336.8 238.41 336.74 238.37L335.14 237.45C335.105 237.431 335.065 237.421 335.025 237.421C334.985 237.421 334.945 237.431 334.91 237.45L333.43 238.31C333.36 238.31 333.36 238.4 333.43 238.44L335.02 239.36C335.058 239.375 335.099 239.38 335.139 239.375C335.179 239.369 335.217 239.354 335.25 239.33V239.36ZM324.41 245.62L325.9 244.76C325.96 244.76 325.96 244.66 325.9 244.63L324.3 243.71C324.265 243.691 324.225 243.681 324.185 243.681C324.145 243.681 324.105 243.691 324.07 243.71L322.59 244.56C322.53 244.56 322.53 244.66 322.59 244.69L324.19 245.62C324.227 245.63 324.265 245.633 324.303 245.628C324.341 245.623 324.377 245.61 324.41 245.59V245.62ZM333.08 240.62L334.57 239.76C334.63 239.76 334.63 239.67 334.57 239.63L332.97 238.71C332.935 238.691 332.895 238.681 332.855 238.681C332.815 238.681 332.775 238.691 332.74 238.71L331.26 239.57C331.2 239.57 331.2 239.66 331.26 239.7L332.86 240.62C332.897 240.634 332.937 240.637 332.975 240.63C333.014 240.623 333.05 240.606 333.08 240.58V240.62ZM322.25 246.88L323.73 246.02C323.79 246.02 323.79 245.93 323.73 245.89L322.13 244.97C322.097 244.951 322.059 244.941 322.02 244.941C321.981 244.941 321.943 244.951 321.91 244.97L320.42 245.82C320.408 245.827 320.397 245.837 320.39 245.849C320.383 245.862 320.379 245.876 320.379 245.89C320.379 245.904 320.383 245.918 320.39 245.931C320.397 245.943 320.408 245.953 320.42 245.96L322.02 246.88C322.059 246.889 322.1 246.89 322.139 246.883C322.179 246.876 322.216 246.862 322.25 246.84V246.88ZM326.58 244.37L328.07 243.52C328.13 243.52 328.13 243.42 328.07 243.39L326.47 242.46C326.396 242.431 326.314 242.431 326.24 242.46L324.76 243.32C324.69 243.32 324.69 243.42 324.76 243.45L326.35 244.37C326.389 244.383 326.43 244.387 326.47 244.38C326.51 244.373 326.548 244.356 326.58 244.33V244.37ZM328.75 243.12L330.23 242.27C330.3 242.27 330.3 242.17 330.23 242.14L328.64 241.21C328.604 241.195 328.564 241.187 328.525 241.187C328.486 241.187 328.446 241.195 328.41 241.21L326.92 242.07C326.86 242.07 326.86 242.16 326.92 242.2L328.52 243.12C328.559 243.133 328.6 243.137 328.64 243.13C328.68 243.123 328.718 243.106 328.75 243.08V243.12ZM330.92 241.87L332.4 241.02C332.412 241.013 332.423 241.003 332.43 240.991C332.437 240.978 332.441 240.964 332.441 240.95C332.441 240.936 332.437 240.922 332.43 240.909C332.423 240.897 332.412 240.887 332.4 240.88L330.8 239.96C330.764 239.945 330.724 239.937 330.685 239.937C330.646 239.937 330.606 239.945 330.57 239.96L329.09 240.82C329.03 240.82 329.03 240.91 329.09 240.95L330.69 241.87C330.729 241.883 330.77 241.887 330.81 241.88C330.85 241.873 330.888 241.856 330.92 241.83V241.87ZM320.31 240.62L318.83 241.48C318.76 241.48 318.76 241.57 318.83 241.61L320.42 242.53C320.455 242.549 320.495 242.559 320.535 242.559C320.575 242.559 320.615 242.549 320.65 242.53L322.13 241.67C322.2 241.67 322.2 241.58 322.13 241.54L320.54 240.62C320.508 240.594 320.47 240.577 320.43 240.57C320.39 240.563 320.349 240.567 320.31 240.58V240.62ZM300.8 259.22L302.28 258.36C302.35 258.36 302.35 258.27 302.28 258.23L300.69 257.31C300.655 257.291 300.615 257.281 300.575 257.281C300.535 257.281 300.495 257.291 300.46 257.31L298.98 258.17C298.91 258.17 298.91 258.26 298.98 258.3L300.57 259.22C300.605 259.239 300.645 259.249 300.685 259.249C300.725 259.249 300.765 259.239 300.8 259.22ZM303.43 257.7L304.91 256.85C304.97 256.85 304.97 256.75 304.91 256.72L303.31 255.79C303.274 255.775 303.234 255.767 303.195 255.767C303.156 255.767 303.116 255.775 303.08 255.79L301.6 256.65C301.54 256.65 301.54 256.75 301.6 256.78L303.2 257.7C303.235 257.719 303.275 257.729 303.315 257.729C303.355 257.729 303.395 257.719 303.43 257.7ZM298.63 260.47L300.12 259.61C300.18 259.61 300.18 259.52 300.12 259.48L298.52 258.56C298.485 258.541 298.445 258.531 298.405 258.531C298.365 258.531 298.325 258.541 298.29 258.56L296.81 259.42C296.75 259.42 296.75 259.51 296.81 259.55L298.41 260.47C298.443 260.489 298.481 260.5 298.52 260.5C298.559 260.5 298.597 260.489 298.63 260.47ZM310.16 249.08L308.67 249.93C308.61 249.93 308.61 250.03 308.67 250.06L310.27 250.99C310.306 251.005 310.346 251.013 310.385 251.013C310.424 251.013 310.464 251.005 310.5 250.99L311.98 250.13C312.04 250.13 312.04 250.03 311.98 250L310.38 249.08C310.347 249.061 310.309 249.051 310.27 249.051C310.231 249.051 310.193 249.061 310.16 249.08ZM296.24 261.72C296.275 261.739 296.315 261.749 296.355 261.749C296.395 261.749 296.435 261.739 296.47 261.72L297.95 260.87C297.963 260.863 297.973 260.853 297.98 260.841C297.987 260.828 297.991 260.814 297.991 260.8C297.991 260.786 297.987 260.772 297.98 260.759C297.973 260.747 297.963 260.737 297.95 260.73L296.35 259.81C296.314 259.795 296.274 259.787 296.235 259.787C296.196 259.787 296.156 259.795 296.12 259.81L294.64 260.67C294.58 260.67 294.58 260.76 294.64 260.8L296.24 261.72ZM318.14 241.83L316.66 242.69C316.59 242.69 316.59 242.78 316.66 242.82L318.25 243.74C318.285 243.759 318.325 243.769 318.365 243.769C318.405 243.769 318.445 243.759 318.48 243.74L319.97 242.89C319.983 242.883 319.993 242.873 320 242.861C320.007 242.848 320.011 242.834 320.011 242.82C320.011 242.806 320.007 242.792 320 242.779C319.993 242.767 319.983 242.757 319.97 242.75L318.37 241.83C318.296 241.801 318.214 241.801 318.14 241.83ZM291.56 257.18L290.08 258.03C290.067 258.037 290.057 258.047 290.05 258.059C290.043 258.072 290.039 258.086 290.039 258.1C290.039 258.114 290.043 258.128 290.05 258.141C290.057 258.153 290.067 258.163 290.08 258.17L291.68 259.09C291.715 259.105 291.752 259.113 291.79 259.113C291.828 259.113 291.865 259.105 291.9 259.09L293.39 258.23C293.45 258.23 293.45 258.14 293.39 258.1L291.79 257.18C291.755 257.161 291.715 257.151 291.675 257.151C291.635 257.151 291.595 257.161 291.56 257.18ZM296.01 257.24L294.53 258.1C294.46 258.1 294.46 258.19 294.53 258.23L296.12 259.15C296.155 259.169 296.195 259.179 296.235 259.179C296.275 259.179 296.315 259.169 296.35 259.15L297.84 258.3C297.9 258.3 297.9 258.2 297.84 258.17L296.24 257.24C296.202 257.224 296.161 257.216 296.12 257.216C296.079 257.216 296.038 257.224 296 257.24H296.01ZM294 260.4C294.035 260.419 294.075 260.429 294.115 260.429C294.155 260.429 294.195 260.419 294.23 260.4L295.71 259.55C295.77 259.55 295.77 259.45 295.71 259.42L294.11 258.49C294.074 258.475 294.034 258.467 293.995 258.467C293.956 258.467 293.916 258.475 293.88 258.49L292.4 259.35C292.34 259.35 292.34 259.45 292.4 259.48L294 260.4ZM293.54 260.67L289.66 258.43C289.625 258.411 289.585 258.401 289.545 258.401C289.505 258.401 289.465 258.411 289.43 258.43L287.95 259.28C287.938 259.287 287.927 259.297 287.92 259.309C287.913 259.322 287.909 259.336 287.909 259.35C287.909 259.364 287.913 259.378 287.92 259.391C287.927 259.403 287.938 259.413 287.95 259.42L291.83 261.66C291.866 261.675 291.906 261.683 291.945 261.683C291.984 261.683 292.024 261.675 292.06 261.66L293.54 260.8C293.56 260.76 293.56 260.7 293.5 260.67H293.54ZM298.54 257.9L300.02 257.05C300.09 257.05 300.09 256.95 300.02 256.91L298.43 255.99C298.394 255.975 298.354 255.967 298.315 255.967C298.276 255.967 298.236 255.975 298.2 255.99L296.71 256.85C296.65 256.85 296.65 256.94 296.71 256.98L298.31 257.9C298.343 257.916 298.379 257.924 298.415 257.924C298.451 257.924 298.487 257.916 298.52 257.9H298.54ZM314.85 248.48L316.34 247.63C316.4 247.63 316.4 247.53 316.34 247.5L314.74 246.57C314.666 246.541 314.584 246.541 314.51 246.57L313.03 247.43C312.96 247.43 312.96 247.53 313.03 247.56L314.62 248.48C314.653 248.496 314.689 248.504 314.725 248.504C314.761 248.504 314.797 248.496 314.83 248.48H314.85ZM294 255.93C293.965 255.911 293.925 255.901 293.885 255.901C293.845 255.901 293.805 255.911 293.77 255.93L292.29 256.78C292.22 256.78 292.22 256.88 292.29 256.91L293.88 257.84C293.916 257.855 293.956 257.863 293.995 257.863C294.034 257.863 294.074 257.855 294.11 257.84L295.59 256.98C295.66 256.98 295.66 256.88 295.59 256.85L294 255.93ZM312.71 249.74L314.19 248.88C314.25 248.88 314.25 248.78 314.19 248.75L312.59 247.83C312.555 247.811 312.515 247.801 312.475 247.801C312.435 247.801 312.395 247.811 312.36 247.83L310.88 248.68C310.82 248.68 310.82 248.78 310.88 248.81L312.48 249.74C312.542 249.761 312.608 249.761 312.67 249.74H312.71ZM329.25 235.57C329.214 235.555 329.174 235.547 329.135 235.547C329.096 235.547 329.056 235.555 329.02 235.57L327.54 236.43C327.47 236.43 327.47 236.53 327.54 236.56L329.13 237.48C329.165 237.499 329.205 237.509 329.245 237.509C329.285 237.509 329.325 237.499 329.36 237.48L330.84 236.63C330.91 236.63 330.91 236.53 330.84 236.5L329.25 235.57ZM332.25 238.47L333.74 237.62C333.752 237.613 333.763 237.603 333.77 237.591C333.777 237.578 333.781 237.564 333.781 237.55C333.781 237.536 333.777 237.522 333.77 237.509C333.763 237.497 333.752 237.487 333.74 237.48L332.14 236.56C332.104 236.545 332.064 236.537 332.025 236.537C331.986 236.537 331.946 236.545 331.91 236.56L330.43 237.42C330.36 237.42 330.36 237.51 330.43 237.55L332.02 238.47C332.069 238.486 332.121 238.486 332.17 238.47H332.25ZM326.89 236.83L325.41 237.68C325.34 237.68 325.34 237.78 325.41 237.81L327 238.74C327.036 238.755 327.076 238.763 327.115 238.763C327.154 238.763 327.194 238.755 327.23 238.74L328.72 237.88C328.78 237.88 328.78 237.78 328.72 237.75L327.12 236.83C327.077 236.793 327.022 236.773 326.965 236.773C326.908 236.773 326.853 236.793 326.81 236.83H326.89ZM324.72 238.08L323.24 238.93C323.227 238.937 323.217 238.947 323.21 238.959C323.203 238.972 323.199 238.986 323.199 239C323.199 239.014 323.203 239.028 323.21 239.041C323.217 239.053 323.227 239.063 323.24 239.07L324.84 239.99C324.876 240.005 324.916 240.013 324.955 240.013C324.994 240.013 325.034 240.005 325.07 239.99L326.55 239.13C326.61 239.13 326.61 239.04 326.55 239L324.95 238.08C324.907 238.043 324.852 238.023 324.795 238.023C324.738 238.023 324.683 238.043 324.64 238.08H324.72ZM322.56 239.33L321.07 240.19C321.01 240.19 321.01 240.28 321.07 240.32L322.67 241.24C322.705 241.259 322.745 241.269 322.785 241.269C322.825 241.269 322.865 241.259 322.9 241.24L324.38 240.38C324.44 240.38 324.44 240.29 324.38 240.25L322.78 239.33C322.739 239.292 322.686 239.271 322.63 239.271C322.574 239.271 322.521 239.292 322.48 239.33H322.56ZM330.08 239.72L331.57 238.87C331.63 238.87 331.63 238.77 331.57 238.74L329.97 237.81C329.934 237.795 329.894 237.787 329.855 237.787C329.816 237.787 329.776 237.795 329.74 237.81L328.26 238.67C328.2 238.67 328.2 238.77 328.26 238.8L329.86 239.72C329.905 239.735 329.955 239.735 330 239.72H330.08ZM327.84 241L329.32 240.14C329.38 240.14 329.38 240.04 329.32 240.01L327.72 239.09C327.685 239.071 327.645 239.061 327.605 239.061C327.565 239.061 327.525 239.071 327.49 239.09L326.01 239.94C325.95 239.94 325.95 240.04 326.01 240.07L327.61 241C327.646 241.015 327.686 241.023 327.725 241.023C327.764 241.023 327.804 241.015 327.84 241ZM319.17 246L320.65 245.14C320.71 245.14 320.71 245.05 320.65 245.01L319.05 244.09C319.017 244.071 318.979 244.061 318.94 244.061C318.901 244.061 318.863 244.071 318.83 244.09L317.34 244.95C317.28 244.95 317.28 245.04 317.34 245.08L318.94 246C318.975 246.019 319.015 246.029 319.055 246.029C319.095 246.029 319.135 246.019 319.17 246ZM321.33 244.75L322.82 243.89C322.88 243.89 322.88 243.8 322.82 243.76L321.22 242.84C321.185 242.821 321.145 242.811 321.105 242.811C321.065 242.811 321.025 242.821 320.99 242.84L319.51 243.7C319.45 243.7 319.45 243.79 319.51 243.83L321.11 244.75C321.145 244.766 321.184 244.773 321.223 244.77C321.261 244.766 321.298 244.752 321.33 244.73V244.75ZM317 247.25L318.48 246.4C318.55 246.4 318.55 246.3 318.48 246.26L316.89 245.34C316.854 245.325 316.814 245.317 316.775 245.317C316.736 245.317 316.696 245.325 316.66 245.34L315.17 246.2C315.11 246.2 315.11 246.29 315.17 246.33L316.77 247.25C316.807 247.266 316.847 247.273 316.888 247.27C316.928 247.266 316.966 247.252 317 247.23V247.25ZM325.67 242.25L327.15 241.39C327.22 241.39 327.22 241.3 327.15 241.26L325.56 240.34C325.525 240.321 325.485 240.311 325.445 240.311C325.405 240.311 325.365 240.321 325.33 240.34L323.84 241.19C323.827 241.197 323.817 241.207 323.81 241.219C323.803 241.232 323.799 241.246 323.799 241.26C323.799 241.274 323.803 241.288 323.81 241.301C323.817 241.313 323.827 241.323 323.84 241.33L325.44 242.25C325.516 242.273 325.599 242.266 325.67 242.23V242.25ZM323.5 243.5L324.99 242.64C325.05 242.64 325.05 242.55 324.99 242.51L323.39 241.59C323.355 241.571 323.315 241.561 323.275 241.561C323.235 241.561 323.195 241.571 323.16 241.59L321.68 242.44C321.61 242.44 321.61 242.54 321.68 242.58L323.27 243.5C323.308 243.512 323.348 243.516 323.387 243.513C323.426 243.51 323.465 243.498 323.5 243.48V243.5ZM325.56 234.94L324.07 235.79C324.01 235.79 324.01 235.89 324.07 235.92L325.67 236.85C325.706 236.865 325.746 236.873 325.785 236.873C325.824 236.873 325.864 236.865 325.9 236.85L327.38 235.99C327.44 235.99 327.44 235.89 327.38 235.86L325.78 234.94C325.748 234.918 325.711 234.904 325.673 234.9C325.634 234.897 325.595 234.904 325.56 234.92V234.94ZM337.76 235.94L339.36 236.87C339.396 236.885 339.436 236.893 339.475 236.893C339.514 236.893 339.554 236.885 339.59 236.87L341.07 236.01C341.13 236.01 341.13 235.91 341.07 235.88L339.47 234.96C339.435 234.941 339.395 234.931 339.355 234.931C339.315 234.931 339.275 234.941 339.24 234.96L337.76 235.81C337.7 235.81 337.7 235.87 337.76 235.9V235.94ZM334.68 235.09L336.28 236.01C336.315 236.029 336.355 236.039 336.395 236.039C336.435 236.039 336.475 236.029 336.51 236.01L338.79 234.69C338.85 234.69 338.85 234.6 338.79 234.56L337.19 233.64C337.155 233.621 337.115 233.611 337.075 233.611C337.035 233.611 336.995 233.621 336.96 233.64L334.68 234.96C334.62 235 334.62 235 334.68 235.05V235.09ZM340.19 237.74L341.79 238.66C341.823 238.679 341.861 238.689 341.9 238.689C341.939 238.689 341.977 238.679 342.01 238.66L343.84 237.61C343.9 237.61 343.9 237.51 343.84 237.48L342.24 236.56C342.205 236.541 342.165 236.531 342.125 236.531C342.085 236.531 342.045 236.541 342.01 236.56L340.19 237.56C340.13 237.61 340.13 237.66 340.19 237.7V237.74ZM338.79 238.55C338.755 238.531 338.715 238.521 338.675 238.521C338.635 238.521 338.595 238.531 338.56 238.55L337.08 239.4C337.01 239.4 337.01 239.5 337.08 239.54L338.67 240.46C338.706 240.475 338.746 240.483 338.785 240.483C338.824 240.483 338.864 240.475 338.9 240.46L340.39 239.6C340.45 239.6 340.45 239.51 340.39 239.47L338.79 238.55ZM331.79 234.1L333.39 235.02C333.425 235.039 333.465 235.049 333.505 235.049C333.545 235.049 333.585 235.039 333.62 235.02L336.47 233.38C336.483 233.373 336.493 233.363 336.5 233.351C336.507 233.338 336.511 233.324 336.511 233.31C336.511 233.296 336.507 233.282 336.5 233.269C336.493 233.257 336.483 233.247 336.47 233.24L334.87 232.32C334.796 232.291 334.714 232.291 334.64 232.32L331.79 233.97C331.77 234 331.77 234 331.83 234.06L331.79 234.1ZM330.54 232.19L332.13 233.11C332.165 233.129 332.205 233.139 332.245 233.139C332.285 233.139 332.325 233.129 332.36 233.11L334.19 232.11C334.25 232.11 334.25 232.01 334.19 231.98L332.59 231.05C332.516 231.021 332.434 231.021 332.36 231.05L330.58 232C330.51 232.05 330.51 232.11 330.58 232.15L330.54 232.19ZM322.63 247.85C322.595 247.835 322.558 247.828 322.52 247.828C322.482 247.828 322.445 247.835 322.41 247.85L320.92 248.71C320.86 248.71 320.86 248.8 320.92 248.84L322.52 249.76C322.555 249.779 322.595 249.789 322.635 249.789C322.675 249.789 322.715 249.779 322.75 249.76L324.23 248.91C324.243 248.903 324.253 248.893 324.26 248.881C324.267 248.868 324.271 248.854 324.271 248.84C324.271 248.826 324.267 248.812 324.26 248.799C324.253 248.787 324.243 248.777 324.23 248.77L322.63 247.85ZM326.97 245.35C326.935 245.331 326.895 245.321 326.855 245.321C326.815 245.321 326.775 245.331 326.74 245.35L325.26 246.21C325.19 246.21 325.19 246.3 325.26 246.34L326.85 247.26C326.885 247.279 326.925 247.289 326.965 247.289C327.005 247.289 327.045 247.279 327.08 247.26L328.57 246.4C328.63 246.4 328.63 246.31 328.57 246.27L326.97 245.35ZM336.58 239.8C336.545 239.781 336.505 239.771 336.465 239.771C336.425 239.771 336.385 239.781 336.35 239.8L334.87 240.66C334.81 240.66 334.81 240.75 334.87 240.79L336.47 241.71C336.505 241.729 336.545 241.739 336.585 241.739C336.625 241.739 336.665 241.729 336.7 241.71L338.18 240.85C338.24 240.85 338.24 240.76 338.18 240.72L336.58 239.8ZM324.8 246.6C324.765 246.581 324.725 246.571 324.685 246.571C324.645 246.571 324.605 246.581 324.57 246.6L323.09 247.46C323.03 247.46 323.03 247.55 323.09 247.59L324.69 248.51C324.725 248.529 324.765 248.539 324.805 248.539C324.845 248.539 324.885 248.529 324.92 248.51L326.4 247.65C326.46 247.65 326.46 247.56 326.4 247.52L324.8 246.6ZM329.14 244.1C329.105 244.081 329.065 244.071 329.025 244.071C328.985 244.071 328.945 244.081 328.91 244.1L327.43 244.95C327.36 244.95 327.36 245.05 327.43 245.09L329.02 246.01C329.056 246.025 329.096 246.033 329.135 246.033C329.174 246.033 329.214 246.025 329.25 246.01L330.73 245.15C330.8 245.15 330.8 245.06 330.73 245.02L329.14 244.1ZM329.39 232.1C329.426 232.115 329.466 232.123 329.505 232.123C329.544 232.123 329.584 232.115 329.62 232.1L331.9 230.78C331.97 230.78 331.97 230.69 331.9 230.65L330.31 229.73C330.275 229.711 330.235 229.701 330.195 229.701C330.155 229.701 330.115 229.711 330.08 229.73L327.84 231C327.77 231 327.77 231.1 327.84 231.14L329.39 232.1ZM332.25 242.34C332.214 242.325 332.174 242.317 332.135 242.317C332.096 242.317 332.056 242.325 332.02 242.34L330.54 243.2C330.47 243.2 330.47 243.29 330.54 243.33L332.13 244.25C332.165 244.269 332.205 244.279 332.245 244.279C332.285 244.279 332.325 244.269 332.36 244.25L333.84 243.4C333.91 243.4 333.91 243.3 333.84 243.26L332.25 242.34ZM334.41 241.09C334.377 241.071 334.339 241.061 334.3 241.061C334.261 241.061 334.223 241.071 334.19 241.09L332.7 241.95C332.64 241.95 332.64 242.04 332.7 242.08L334.3 243C334.335 243.019 334.375 243.029 334.415 243.029C334.455 243.029 334.495 243.019 334.53 243L336.01 242.14C336.07 242.14 336.07 242.05 336.01 242.01L334.41 241.09ZM289.28 255.2C289.315 255.219 289.355 255.229 289.395 255.229C289.435 255.229 289.475 255.219 289.51 255.2L293.16 253.09C293.22 253.09 293.22 253 293.16 252.96L291.56 252.04C291.525 252.021 291.485 252.011 291.445 252.011C291.405 252.011 291.365 252.021 291.33 252.04L287.68 254.15C287.62 254.15 287.62 254.24 287.68 254.28L289.28 255.2ZM294.07 252.44C294.144 252.47 294.226 252.47 294.3 252.44L295.78 251.58C295.85 251.58 295.85 251.48 295.78 251.45L294.19 250.53C294.155 250.511 294.115 250.501 294.075 250.501C294.035 250.501 293.995 250.511 293.96 250.53L292.47 251.38C292.41 251.38 292.41 251.48 292.47 251.51L294.07 252.44ZM323.39 236.17L321.91 237.02C321.84 237.02 321.84 237.12 321.91 237.16L323.5 238.08C323.536 238.095 323.576 238.103 323.615 238.103C323.654 238.103 323.694 238.095 323.73 238.08L325.21 237.22C325.28 237.22 325.28 237.13 325.21 237.09L323.62 236.17C323.585 236.151 323.545 236.141 323.505 236.141C323.465 236.141 323.425 236.151 323.39 236.17ZM298.39 249.93C298.423 249.949 298.461 249.96 298.5 249.96C298.539 249.96 298.577 249.949 298.61 249.93L300.1 249.08C300.113 249.073 300.123 249.063 300.13 249.051C300.137 249.038 300.141 249.024 300.141 249.01C300.141 248.996 300.137 248.982 300.13 248.969C300.123 248.957 300.113 248.947 300.1 248.94L298.5 248.02C298.426 247.991 298.344 247.991 298.27 248.02L296.79 248.88C296.73 248.88 296.73 248.97 296.79 249.01L298.39 249.93ZM287.09 256.45C287.125 256.469 287.165 256.479 287.205 256.479C287.245 256.479 287.285 256.469 287.32 256.45L288.8 255.6C288.87 255.6 288.87 255.5 288.8 255.47L287.21 254.54C287.174 254.525 287.134 254.517 287.095 254.517C287.056 254.517 287.016 254.525 286.98 254.54L285.5 255.4C285.43 255.4 285.43 255.49 285.5 255.53L287.09 256.45ZM283.33 256.78L287.21 259.02C287.243 259.039 287.281 259.049 287.32 259.049C287.359 259.049 287.397 259.039 287.43 259.02L288.92 258.17C288.933 258.163 288.943 258.153 288.95 258.141C288.957 258.128 288.961 258.114 288.961 258.1C288.961 258.086 288.957 258.072 288.95 258.059C288.943 258.047 288.933 258.037 288.92 258.03L285.04 255.79C284.966 255.761 284.884 255.761 284.81 255.79L283.33 256.65C283.28 256.69 283.28 256.75 283.35 256.78H283.33ZM306.49 245.26C306.525 245.275 306.562 245.283 306.6 245.283C306.638 245.283 306.675 245.275 306.71 245.26L308.54 244.2C308.6 244.2 308.6 244.11 308.54 244.07L306.94 243.15C306.905 243.131 306.865 243.121 306.825 243.121C306.785 243.121 306.745 243.131 306.71 243.15L304.89 244.15C304.83 244.15 304.83 244.25 304.89 244.28L306.49 245.26ZM301 248.42C301.036 248.435 301.076 248.443 301.115 248.443C301.154 248.443 301.194 248.435 301.23 248.42L303.51 247.1C303.57 247.1 303.57 247.01 303.51 246.97L301.91 246.05C301.875 246.031 301.835 246.021 301.795 246.021C301.755 246.021 301.715 246.031 301.68 246.05L299.4 247.36C299.387 247.367 299.377 247.377 299.37 247.389C299.363 247.402 299.359 247.416 299.359 247.43C299.359 247.444 299.363 247.458 299.37 247.471C299.377 247.483 299.387 247.493 299.4 247.5L301 248.42ZM311.49 242.36C311.525 242.379 311.565 242.389 311.605 242.389C311.645 242.389 311.685 242.379 311.72 242.36L324 235.31C324.06 235.31 324.06 235.22 324 235.18L322.4 234.26C322.365 234.241 322.325 234.231 322.285 234.231C322.245 234.231 322.205 234.241 322.17 234.26L309.97 241.31C309.9 241.31 309.9 241.4 309.97 241.44L311.49 242.36ZM324.39 234.92C324.425 234.935 324.462 234.943 324.5 234.943C324.538 234.943 324.575 234.935 324.61 234.92L326.44 233.86C326.5 233.86 326.5 233.77 326.44 233.73L324.84 232.81C324.805 232.791 324.765 232.781 324.725 232.781C324.685 232.781 324.645 232.791 324.61 232.81L322.79 233.86C322.72 233.86 322.72 233.96 322.79 233.99L324.39 234.92ZM309 243.81C309.036 243.825 309.076 243.833 309.115 243.833C309.154 243.833 309.194 243.825 309.23 243.81L311.06 242.75C311.12 242.75 311.12 242.66 311.06 242.62L309.46 241.7C309.425 241.681 309.385 241.671 309.345 241.671C309.305 241.671 309.265 241.681 309.23 241.7L307.41 242.75C307.34 242.75 307.34 242.85 307.41 242.89L309 243.81ZM326.91 233.47C326.946 233.485 326.986 233.493 327.025 233.493C327.064 233.493 327.104 233.485 327.14 233.47L328.97 232.41C329.03 232.41 329.03 232.32 328.97 232.28L327.37 231.36C327.335 231.341 327.295 231.331 327.255 231.331C327.215 231.331 327.175 231.341 327.14 231.36L325.32 232.36C325.25 232.36 325.25 232.46 325.32 232.5L326.91 233.47ZM304 246.71C304.035 246.725 304.072 246.733 304.11 246.733C304.148 246.733 304.185 246.725 304.22 246.71L306.05 245.65C306.11 245.65 306.11 245.56 306.05 245.52L304.45 244.6C304.415 244.581 304.375 244.571 304.335 244.571C304.295 244.571 304.255 244.581 304.22 244.6L302.4 245.65C302.34 245.65 302.34 245.75 302.4 245.78L304 246.71ZM296.24 251.18C296.275 251.199 296.315 251.209 296.355 251.209C296.395 251.209 296.435 251.199 296.47 251.18L297.95 250.33C298.01 250.33 298.01 250.23 297.95 250.2L296.35 249.27C296.314 249.255 296.274 249.247 296.235 249.247C296.196 249.247 296.156 249.255 296.12 249.27L294.64 250.13C294.58 250.13 294.58 250.23 294.64 250.26L296.24 251.18ZM291.45 254.61L289.96 255.47C289.9 255.47 289.9 255.56 289.96 255.6L291.56 256.52C291.595 256.539 291.635 256.549 291.675 256.549C291.715 256.549 291.755 256.539 291.79 256.52L293.27 255.66C293.34 255.66 293.34 255.57 293.27 255.53L291.68 254.61C291.645 254.591 291.605 254.581 291.565 254.581C291.525 254.581 291.485 254.591 291.45 254.61ZM300.8 254.48L299.32 255.33C299.307 255.337 299.297 255.347 299.29 255.359C299.283 255.372 299.279 255.386 299.279 255.4C299.279 255.414 299.283 255.428 299.29 255.441C299.297 255.453 299.307 255.463 299.32 255.47L300.92 256.39C300.955 256.405 300.992 256.413 301.03 256.413C301.068 256.413 301.105 256.405 301.14 256.39L302.63 255.53C302.69 255.53 302.69 255.44 302.63 255.4L301.03 254.48C300.995 254.461 300.955 254.451 300.915 254.451C300.875 254.451 300.835 254.461 300.8 254.48ZM306.05 246.18L301.71 248.68C301.65 248.68 301.65 248.78 301.71 248.81L303.31 249.74C303.384 249.77 303.466 249.77 303.54 249.74L307.87 247.23C307.94 247.23 307.94 247.14 307.87 247.1L306.28 246.18C306.245 246.161 306.205 246.151 306.165 246.151C306.125 246.151 306.085 246.161 306.05 246.18ZM293.84 253.36C293.805 253.341 293.765 253.331 293.725 253.331C293.685 253.331 293.645 253.341 293.61 253.36L292.13 254.21C292.117 254.217 292.107 254.227 292.1 254.239C292.093 254.252 292.089 254.266 292.089 254.28C292.089 254.294 292.093 254.308 292.1 254.321C292.107 254.333 292.117 254.343 292.13 254.35L293.73 255.27C293.766 255.285 293.806 255.293 293.845 255.293C293.884 255.293 293.924 255.285 293.96 255.27L295.44 254.41C295.5 254.41 295.5 254.32 295.44 254.28L293.84 253.36ZM295.9 254.67L294.41 255.53C294.35 255.53 294.35 255.63 294.41 255.66L296.01 256.58C296.045 256.599 296.085 256.609 296.125 256.609C296.165 256.609 296.205 256.599 296.24 256.58L297.72 255.73C297.78 255.73 297.78 255.63 297.72 255.6L296.12 254.67C296.085 254.655 296.048 254.648 296.01 254.648C295.972 254.648 295.935 254.655 295.9 254.67ZM308.22 244.93L306.73 245.78C306.718 245.787 306.707 245.797 306.7 245.809C306.693 245.822 306.689 245.836 306.689 245.85C306.689 245.864 306.693 245.878 306.7 245.891C306.707 245.903 306.718 245.913 306.73 245.92L308.33 246.84C308.404 246.87 308.486 246.87 308.56 246.84L310 246C310.06 246 310.06 245.91 310 245.87L308.4 244.95C308.373 244.934 308.343 244.924 308.312 244.921C308.281 244.917 308.25 244.92 308.22 244.93ZM298.63 250.59C298.595 250.575 298.558 250.568 298.52 250.568C298.482 250.568 298.445 250.575 298.41 250.59L296.92 251.45C296.86 251.45 296.86 251.54 296.92 251.58L298.52 252.5C298.555 252.519 298.595 252.529 298.635 252.529C298.675 252.529 298.715 252.519 298.75 252.5L300.23 251.65C300.243 251.643 300.253 251.633 300.26 251.621C300.267 251.608 300.271 251.594 300.271 251.58C300.271 251.566 300.267 251.552 300.26 251.539C300.253 251.527 300.243 251.517 300.23 251.51L298.63 250.59ZM319.05 238.67L317.57 239.53C317.51 239.53 317.51 239.62 317.57 239.66L319.17 240.58C319.205 240.599 319.245 240.609 319.285 240.609C319.325 240.609 319.365 240.599 319.4 240.58L320.88 239.72C320.94 239.72 320.94 239.63 320.88 239.59L319.28 238.67C319.245 238.651 319.205 238.641 319.165 238.641C319.125 238.641 319.085 238.651 319.05 238.67ZM316.89 239.92L315.4 240.78C315.34 240.78 315.34 240.87 315.4 240.91L317 241.83C317.035 241.849 317.075 241.859 317.115 241.859C317.155 241.859 317.195 241.849 317.23 241.83L318.71 240.98C318.722 240.973 318.733 240.963 318.74 240.951C318.747 240.938 318.751 240.924 318.751 240.91C318.751 240.896 318.747 240.882 318.74 240.869C318.733 240.857 318.722 240.847 318.71 240.84L317.11 239.92C317.075 239.905 317.038 239.898 317 239.898C316.962 239.898 316.925 239.905 316.89 239.92ZM321.22 237.42L319.74 238.28C319.67 238.28 319.67 238.37 319.74 238.41L321.33 239.33C321.365 239.349 321.405 239.359 321.445 239.359C321.485 239.359 321.525 239.349 321.56 239.33L323.05 238.47C323.11 238.47 323.11 238.38 323.05 238.34L321.45 237.42C321.415 237.401 321.375 237.391 321.335 237.391C321.295 237.391 321.255 237.401 321.22 237.42ZM312.55 242.42L311.07 243.28C311.01 243.28 311.01 243.38 311.07 243.41L312.67 244.33C312.703 244.349 312.741 244.36 312.78 244.36C312.819 244.36 312.857 244.349 312.89 244.33L314.38 243.48C314.44 243.48 314.44 243.38 314.38 243.35L312.78 242.42C312.706 242.391 312.624 242.391 312.55 242.42ZM314.72 241.17L313.24 242.03C313.17 242.03 313.17 242.12 313.24 242.16L314.83 243.08C314.865 243.099 314.905 243.109 314.945 243.109C314.985 243.109 315.025 243.099 315.06 243.08L316.54 242.23C316.61 242.23 316.61 242.13 316.54 242.1L314.95 241.17C314.914 241.155 314.874 241.147 314.835 241.147C314.796 241.147 314.756 241.155 314.72 241.17ZM310.38 243.68L308.9 244.53C308.84 244.53 308.84 244.63 308.9 244.66L310.5 245.59C310.536 245.605 310.576 245.613 310.615 245.613C310.654 245.613 310.694 245.605 310.73 245.59L312.21 244.73C312.27 244.73 312.27 244.63 312.21 244.6L310.61 243.68C310.575 243.661 310.535 243.651 310.495 243.651C310.455 243.651 310.415 243.661 310.38 243.68ZM310.38 254.89C310.347 254.871 310.309 254.861 310.27 254.861C310.231 254.861 310.193 254.871 310.16 254.89L308.67 255.75C308.61 255.75 308.61 255.84 308.67 255.88L310.27 256.8C310.305 256.819 310.345 256.829 310.385 256.829C310.425 256.829 310.465 256.819 310.5 256.8L311.98 255.94C312.04 255.94 312.04 255.85 311.98 255.81L310.38 254.89ZM306.05 257.39C305.976 257.361 305.894 257.361 305.82 257.39L304.34 258.25C304.28 258.25 304.28 258.34 304.34 258.38L305.94 259.3C305.973 259.319 306.011 259.329 306.05 259.329C306.089 259.329 306.127 259.319 306.16 259.3L307.65 258.45C307.71 258.45 307.71 258.35 307.65 258.32L306.05 257.39ZM313.05 253.39C313.014 253.375 312.974 253.367 312.935 253.367C312.896 253.367 312.856 253.375 312.82 253.39L311.34 254.25C311.28 254.25 311.28 254.34 311.34 254.38L312.94 255.3C312.975 255.319 313.015 255.329 313.055 255.329C313.095 255.329 313.135 255.319 313.17 255.3L314.65 254.45C314.662 254.443 314.673 254.433 314.68 254.421C314.687 254.408 314.691 254.394 314.691 254.38C314.691 254.366 314.687 254.352 314.68 254.339C314.673 254.327 314.662 254.317 314.65 254.31L313.05 253.39ZM308.24 256.17C308.204 256.155 308.164 256.147 308.125 256.147C308.086 256.147 308.046 256.155 308.01 256.17L306.53 257.03C306.46 257.03 306.46 257.12 306.53 257.16L308.12 258.08C308.155 258.099 308.195 258.109 308.235 258.109C308.275 258.109 308.315 258.099 308.35 258.08L309.83 257.23C309.9 257.23 309.9 257.13 309.83 257.09L308.24 256.17ZM317.39 250.89C317.355 250.871 317.315 250.861 317.275 250.861C317.235 250.861 317.195 250.871 317.16 250.89L315.68 251.75C315.61 251.75 315.61 251.84 315.68 251.88L317.27 252.8C317.305 252.819 317.345 252.829 317.385 252.829C317.425 252.829 317.465 252.819 317.5 252.8L318.98 251.94C319.05 251.94 319.05 251.85 318.98 251.81L317.39 250.89ZM315.22 252.14C315.185 252.121 315.145 252.111 315.105 252.111C315.065 252.111 315.025 252.121 314.99 252.14L313.51 253C313.44 253 313.44 253.09 313.51 253.13L315.1 254.05C315.135 254.069 315.175 254.079 315.215 254.079C315.255 254.079 315.295 254.069 315.33 254.05L316.82 253.19C316.88 253.19 316.88 253.1 316.82 253.06L315.22 252.14ZM294.22 261.09C294.184 261.075 294.144 261.067 294.105 261.067C294.066 261.067 294.026 261.075 293.99 261.09L292.5 261.95C292.44 261.95 292.44 262.04 292.5 262.08L294.1 263C294.135 263.019 294.175 263.029 294.215 263.029C294.255 263.029 294.295 263.019 294.33 263L295.81 262.15C295.88 262.15 295.88 262.05 295.81 262.02L294.22 261.09ZM289.31 255.89L287.83 256.75C287.76 256.75 287.76 256.84 287.83 256.88L289.42 257.8C289.455 257.819 289.495 257.829 289.535 257.829C289.575 257.829 289.615 257.819 289.65 257.8L291.14 256.94C291.2 256.94 291.2 256.85 291.14 256.81L289.54 255.89C289.504 255.86 289.461 255.842 289.414 255.836C289.368 255.831 289.322 255.839 289.28 255.86L289.31 255.89ZM319.59 249.64C319.557 249.621 319.519 249.611 319.48 249.611C319.441 249.611 319.403 249.621 319.37 249.64L317.88 250.49C317.867 250.497 317.857 250.507 317.85 250.519C317.843 250.532 317.839 250.546 317.839 250.56C317.839 250.574 317.843 250.588 317.85 250.601C317.857 250.613 317.867 250.623 317.88 250.63L319.48 251.55C319.516 251.565 319.556 251.573 319.595 251.573C319.634 251.573 319.674 251.565 319.71 251.55L321.19 250.69C321.25 250.69 321.25 250.6 321.19 250.56L319.59 249.64Z" fill="#E0E0E0"/>
<path d="M297.54 263C297.505 262.981 297.465 262.971 297.425 262.971C297.385 262.971 297.345 262.981 297.31 263L295.83 263.86C295.77 263.86 295.77 263.95 295.83 263.99L296.25 264.23C296.285 264.249 296.325 264.259 296.365 264.259C296.405 264.259 296.445 264.249 296.48 264.23L297.97 263.38C298.03 263.38 298.03 263.28 297.97 263.25L297.54 263Z" fill="#E0E0E0"/>
<path d="M299.71 261.75C299.675 261.731 299.635 261.721 299.595 261.721C299.555 261.721 299.515 261.731 299.48 261.75L298 262.61C297.93 262.61 297.93 262.7 298 262.74L298.42 262.98C298.455 262.999 298.495 263.009 298.535 263.009C298.575 263.009 298.615 262.999 298.65 262.98L300.13 262.13C300.2 262.13 300.2 262.03 300.13 261.99L299.71 261.75Z" fill="#E0E0E0"/>
<path d="M301.87 260.5C301.837 260.481 301.799 260.471 301.76 260.471C301.721 260.471 301.683 260.481 301.65 260.5L300.16 261.35C300.147 261.357 300.137 261.367 300.13 261.38C300.123 261.392 300.119 261.406 300.119 261.42C300.119 261.434 300.123 261.449 300.13 261.461C300.137 261.473 300.147 261.483 300.16 261.49L300.59 261.73C300.625 261.749 300.665 261.76 300.705 261.76C300.745 261.76 300.785 261.749 300.82 261.73L302.3 260.87C302.36 260.87 302.36 260.78 302.3 260.74L301.87 260.5Z" fill="#E0E0E0"/>
<path d="M304 259.25C303.965 259.231 303.925 259.221 303.885 259.221C303.845 259.221 303.805 259.231 303.77 259.25L302.29 260.1C302.23 260.1 302.23 260.2 302.29 260.23L302.72 260.48C302.753 260.499 302.791 260.51 302.83 260.51C302.869 260.51 302.907 260.499 302.94 260.48L304.43 259.62C304.49 259.62 304.49 259.53 304.43 259.49L304 259.25Z" fill="#E0E0E0"/>
<path d="M220.87 288.91L272 259.43C272.268 259.293 272.564 259.221 272.865 259.221C273.166 259.221 273.462 259.293 273.73 259.43L304.49 277.19C304.743 277.354 304.954 277.575 305.105 277.836C305.256 278.097 305.344 278.389 305.36 278.69V279C305.345 279.302 305.259 279.595 305.107 279.856C304.956 280.117 304.744 280.338 304.49 280.5L253.37 310C253.102 310.138 252.806 310.21 252.505 310.21C252.204 310.21 251.908 310.138 251.64 310L220.87 292.24C220.618 292.077 220.408 291.855 220.258 291.594C220.109 291.334 220.024 291.041 220.01 290.74V290.39C220.028 290.094 220.116 289.805 220.265 289.549C220.414 289.292 220.621 289.073 220.87 288.91Z" fill="#37474F"/>
<path d="M220 290.41V290.76C220.015 291.06 220.101 291.352 220.251 291.613C220.4 291.874 220.609 292.095 220.86 292.26L251.64 310C251.903 310.144 252.2 310.217 252.5 310.21V287.72H222.94L220.87 288.91C220.617 289.074 220.406 289.295 220.255 289.556C220.104 289.816 220.016 290.109 220 290.41Z" fill="#263238"/>
<path d="M220.87 288.91L272 259.43C272.268 259.293 272.564 259.221 272.865 259.221C273.166 259.221 273.462 259.293 273.73 259.43L304.49 277.19C304.97 277.46 304.97 277.91 304.49 278.19L253.42 307.68C253.15 307.81 252.854 307.877 252.555 307.877C252.256 307.877 251.96 307.81 251.69 307.68L220.92 289.91C220.39 289.64 220.39 289.19 220.87 288.91Z" fill="#455A64"/>
<path d="M263.82 268.81C264.09 268.675 264.388 268.604 264.69 268.604C264.992 268.604 265.29 268.675 265.56 268.81C269.37 270.98 284.41 279.7 288.19 281.89C288.67 282.16 288.67 282.61 288.19 282.89C283.19 285.76 258.32 300.12 253.37 302.99C253.102 303.125 252.805 303.196 252.505 303.196C252.205 303.196 251.908 303.125 251.64 302.99L229 289.91C228.896 289.874 228.807 289.806 228.743 289.716C228.68 289.627 228.646 289.52 228.646 289.41C228.646 289.3 228.68 289.193 228.743 289.104C228.807 289.014 228.896 288.946 229 288.91L263.82 268.81Z" fill="#E0E0E0"/>
<path d="M280 270.32C278.48 271.2 278.48 272.63 280 273.5C280.854 273.934 281.797 274.16 282.755 274.16C283.712 274.16 284.656 273.934 285.51 273.5C287.03 272.63 287.03 271.2 285.51 270.32C284.655 269.891 283.712 269.667 282.755 269.667C281.798 269.667 280.855 269.891 280 270.32Z" fill="#E0E0E0"/>
<path d="M288.56 273.63L286.09 275.07C285.37 275.48 285.24 276.07 285.8 276.4C286.172 276.558 286.576 276.625 286.979 276.597C287.382 276.57 287.773 276.447 288.12 276.24L290.59 274.8C291.31 274.39 291.43 273.8 290.87 273.47C290.5 273.313 290.097 273.245 289.696 273.273C289.294 273.301 288.905 273.423 288.56 273.63Z" fill="#E0E0E0"/>
<path d="M291.44 275.3L289 276.74C288.28 277.16 288.16 277.74 288.72 278.08C289.092 278.233 289.494 278.297 289.895 278.268C290.296 278.238 290.685 278.116 291.03 277.91L293.5 276.47C294.22 276.06 294.35 275.47 293.79 275.14C293.413 274.98 293.004 274.911 292.596 274.939C292.187 274.966 291.791 275.09 291.44 275.3Z" fill="#E0E0E0"/>
<path d="M294.33 277L291.86 278.44C291.14 278.86 291.01 279.44 291.57 279.78C291.943 279.932 292.346 279.997 292.749 279.969C293.151 279.941 293.541 279.822 293.89 279.62L296.36 278.17C297.07 277.76 297.2 277.17 296.64 276.84C296.269 276.687 295.867 276.622 295.466 276.65C295.066 276.678 294.677 276.797 294.33 277Z" fill="#E0E0E0"/>
<path d="M272 264.09L269.53 265.54C268.81 265.95 268.69 266.54 269.25 266.87C269.621 267.025 270.023 267.091 270.424 267.064C270.825 267.036 271.214 266.915 271.56 266.71L274.03 265.27C274.75 264.85 274.88 264.27 274.32 263.93C273.947 263.778 273.544 263.713 273.141 263.741C272.739 263.768 272.349 263.888 272 264.09Z" fill="#E0E0E0"/>
<path d="M274.86 265.77L272.39 267.21C271.67 267.62 271.54 268.21 272.1 268.54C272.473 268.695 272.876 268.761 273.279 268.734C273.682 268.706 274.072 268.585 274.42 268.38L276.89 266.94C277.61 266.53 277.73 265.94 277.17 265.6C276.798 265.447 276.396 265.383 275.995 265.412C275.594 265.442 275.205 265.564 274.86 265.77Z" fill="#E0E0E0"/>
<path d="M277.74 267.44L275.27 268.88C274.55 269.29 274.43 269.88 274.99 270.22C275.362 270.373 275.764 270.437 276.165 270.408C276.566 270.378 276.955 270.256 277.3 270.05L279.77 268.61C280.49 268.2 280.62 267.61 280.06 267.28C279.688 267.123 279.284 267.055 278.881 267.083C278.478 267.111 278.087 267.233 277.74 267.44Z" fill="#E0E0E0"/>
<path d="M328.81 277.19L328.56 277.05C328.307 276.886 328.097 276.664 327.946 276.404C327.795 276.143 327.707 275.851 327.69 275.55V226C327.707 225.699 327.795 225.407 327.946 225.146C328.097 224.886 328.307 224.664 328.56 224.5L395.72 185.5C395.988 185.362 396.284 185.291 396.585 185.291C396.886 185.291 397.182 185.362 397.45 185.5L397.86 185.74C398.113 185.904 398.324 186.125 398.475 186.386C398.626 186.646 398.714 186.939 398.73 187.24V236.83C398.715 237.131 398.629 237.425 398.477 237.686C398.326 237.947 398.114 238.168 397.86 238.33L330.54 277.2C330.272 277.336 329.975 277.406 329.674 277.405C329.373 277.403 329.077 277.329 328.81 277.19Z" fill="#E0E0E0"/>
<path d="M345.92 235.48L328 225.1C327.842 225.356 327.752 225.649 327.74 225.95V275.55C327.757 275.851 327.845 276.143 327.996 276.404C328.147 276.664 328.357 276.886 328.61 277.05L328.86 277.19C329.128 277.328 329.424 277.4 329.725 277.4C330.026 277.4 330.322 277.328 330.59 277.19L345.97 268.31L345.92 235.48Z" fill="#37474F"/>
<path d="M397.86 238.32L330.54 277.19C330.06 277.47 329.67 277.24 329.67 276.69V227.1C329.685 226.799 329.771 226.505 329.923 226.245C330.074 225.984 330.286 225.763 330.54 225.6L397.86 186.73C398.34 186.45 398.73 186.73 398.73 187.23V236.82C398.715 237.121 398.629 237.415 398.477 237.676C398.326 237.937 398.114 238.158 397.86 238.32Z" fill="#455A64"/>
<path d="M366.24 258.93L365.19 262.8L364 267L358.34 263.73C358.481 263.465 358.692 263.244 358.95 263.09L364.75 259.73L366.24 258.93Z" fill="#E0E0E0"/>
<path d="M378.29 262.66C378.31 262.941 378.256 263.221 378.133 263.474C378.01 263.727 377.823 263.943 377.59 264.1L367.08 270.17C366.81 270.315 366.506 270.384 366.2 270.37L365.2 262.81L364.79 259.81L362.16 240.23L374.16 233.3C374.329 233.565 374.444 233.861 374.5 234.17L378.29 262.66Z" fill="#37474F"/>
<path d="M374.15 233.26L362.15 240.19L360.56 239.19C360.684 238.911 360.889 238.678 361.15 238.52L371.65 232.46C371.912 232.326 372.201 232.257 372.495 232.257C372.789 232.257 373.078 232.326 373.34 232.46L373.5 232.56C373.766 232.743 373.987 232.982 374.15 233.26Z" fill="#E0E0E0"/>
<path d="M366.2 270.37C365.918 270.368 365.641 270.299 365.39 270.17L358.98 266.47C358.727 266.306 358.517 266.085 358.366 265.824C358.215 265.563 358.127 265.271 358.11 264.97V264.62C358.121 264.319 358.21 264.026 358.37 263.77L364 267L363.15 260.66L363.02 259.71L360.41 240C360.386 239.731 360.438 239.461 360.56 239.22L362.15 240.22L364.78 259.8L365.19 262.8L366.2 270.37Z" fill="#263238"/>
<path d="M359.13 223.09C359.69 222.76 360.13 223.09 360.13 223.75V230.63C360.118 230.993 360.022 231.349 359.848 231.669C359.675 231.988 359.429 232.263 359.13 232.47C358.56 232.8 358.13 232.47 358.13 231.81V224.92C358.142 224.558 358.238 224.204 358.412 223.886C358.585 223.568 358.832 223.295 359.13 223.09Z" fill="#37474F"/>
<path d="M362.85 221C363.41 220.68 363.85 221 363.85 221.67V228.55C363.838 228.913 363.741 229.269 363.567 229.588C363.394 229.907 363.148 230.182 362.85 230.39C362.29 230.71 361.85 230.39 361.85 229.72V222.8C361.868 222.444 361.968 222.096 362.141 221.784C362.315 221.472 362.557 221.204 362.85 221Z" fill="#37474F"/>
<path d="M366.58 218.84C367.14 218.52 367.58 218.84 367.58 219.5V226.38C367.571 226.744 367.475 227.101 367.302 227.42C367.128 227.74 366.88 228.014 366.58 228.22C366.02 228.55 365.58 228.22 365.58 227.56V220.68C365.589 220.316 365.685 219.959 365.858 219.64C366.032 219.32 366.28 219.046 366.58 218.84Z" fill="#37474F"/>
<path d="M370.3 216.71C370.86 216.39 371.3 216.71 371.3 217.38V224.26C371.289 224.624 371.193 224.98 371.019 225.299C370.846 225.619 370.599 225.893 370.3 226.1C369.74 226.42 369.3 226.1 369.3 225.44V218.55C369.312 218.187 369.409 217.831 369.583 217.512C369.756 217.192 370.002 216.918 370.3 216.71Z" fill="#37474F"/>
<path d="M264.64 216.69C264.64 216.69 286.64 226.96 291.7 228.44C296.76 229.92 300.78 230.3 305.3 231.66C310.24 233.15 320.14 237.85 321.55 239.66C322.96 241.47 320.74 243.89 316.68 244.28C312.62 244.67 305.38 242.55 304.12 242.54C302.86 242.53 303.81 243.02 305.3 244.89C306.79 246.76 307.3 249.06 306.08 250.03C305.3 250.65 304.13 248.91 301.9 247.91C299.98 247.04 297.74 244.73 295.63 242.19C293.52 239.65 291.95 238.52 286.1 236.99C279.47 235.25 262.59 231.11 262.59 231.11L264.64 216.69Z" fill="#FFA8A7" stroke="#FFA8A7" stroke-miterlimit="10"/>
<path d="M256.56 177.71C260.08 177.16 264.29 177.8 266.01 179.96C267.73 182.12 269.71 185.47 267.9 193.26L256.56 177.71Z" fill="#FFA8A7" stroke="#FFA8A7" stroke-miterlimit="10"/>
<path d="M256.56 177.71C260.193 181.306 263.336 185.364 265.91 189.78C269.56 195.83 270.41 198.32 270.1 203.78C269.79 209.47 267.47 214.18 266.49 218.72C265.23 224.55 265.39 234.47 265.77 245.12C265.77 245.12 255.62 257.76 239.83 257.3C224.04 256.84 218.68 247.9 218.68 247.9L228.14 230.79L223.43 212.79L228.2 183.2L242.43 179.63L256.56 177.71Z" fill="#2AC5C5"/>
<path d="M231.56 197.59C231.845 205.287 231.01 212.984 229.08 220.44L234.48 236.85L228.14 230.77L223.43 212.77L231.56 197.59Z" fill="#2AC5C5"/>
<path opacity="0.2" d="M231.56 197.59C231.845 205.287 231.01 212.984 229.08 220.44L234.48 236.85L228.14 230.77L223.43 212.77L231.56 197.59Z" fill="black"/>
<path d="M251.17 171.43L245.17 171.1C242.503 170.952 239.892 170.28 237.485 169.122C235.078 167.964 232.923 166.343 231.143 164.352C229.362 162.361 227.992 160.039 227.109 157.518C226.227 154.997 225.85 152.327 226 149.66C226.348 143.48 229.136 137.691 233.751 133.566C238.366 129.44 244.43 127.316 250.61 127.66C256.791 128.011 262.58 130.801 266.705 135.417C270.83 140.034 272.954 146.099 272.61 152.28C272.306 157.662 269.876 162.703 265.855 166.295C261.835 169.886 256.552 171.733 251.17 171.43Z" fill="#263238"/>
<path d="M265.72 137.93C267.2 138.93 270.94 144.09 269.85 157.93C268.93 169.65 265.78 172.36 263.85 173.09C261.92 173.82 258.24 173.09 254.69 172.31L254.38 178.03C254.38 178.03 258.03 182.9 256.03 185.46C254.54 187.35 250.15 188.14 246.44 186.63C243.425 185.471 240.936 183.253 239.44 180.39L240.39 163.39C240.39 163.39 237.79 166.49 233.99 163.64C230.19 160.79 230.39 154.29 232.82 152.09C235.25 149.89 240.16 150.9 240.9 154.17C241.684 149.205 244.131 144.653 247.84 141.26C254 135.43 262.86 137 265.72 137.93Z" fill="#FFA8A7" stroke="#FFA8A7" stroke-miterlimit="10"/>
<path d="M257.31 149L254 150.3C253.828 149.848 253.836 149.347 254.022 148.901C254.208 148.454 254.558 148.096 255 147.9C255.223 147.812 255.462 147.771 255.702 147.779C255.942 147.788 256.177 147.845 256.394 147.948C256.611 148.051 256.804 148.198 256.961 148.379C257.119 148.56 257.238 148.771 257.31 149Z" fill="#263238"/>
<path d="M257.74 154.27C257.743 154.669 257.588 155.053 257.308 155.337C257.029 155.622 256.649 155.785 256.25 155.79C255.85 155.777 255.472 155.607 255.197 155.317C254.922 155.027 254.772 154.64 254.78 154.24C254.777 153.841 254.932 153.458 255.212 153.173C255.491 152.888 255.871 152.725 256.27 152.72C256.67 152.733 257.048 152.903 257.323 153.193C257.598 153.484 257.748 153.87 257.74 154.27Z" fill="#263238"/>
<path d="M266.51 149.1L269.51 151.17C269.781 150.763 269.883 150.266 269.795 149.785C269.708 149.304 269.437 148.876 269.04 148.59C268.843 148.449 268.62 148.349 268.383 148.298C268.146 148.247 267.901 148.245 267.664 148.293C267.426 148.341 267.201 148.437 267.003 148.576C266.804 148.715 266.636 148.893 266.51 149.1Z" fill="#263238"/>
<path d="M257.58 164.23L260.94 165.52C260.866 165.746 260.747 165.954 260.591 166.132C260.434 166.311 260.243 166.456 260.03 166.558C259.816 166.661 259.583 166.72 259.346 166.73C259.109 166.741 258.872 166.703 258.65 166.62C258.196 166.439 257.83 166.088 257.63 165.642C257.431 165.196 257.413 164.689 257.58 164.23Z" fill="#F28F8F" stroke="#F28F8F" stroke-miterlimit="10"/>
<path d="M268.63 153.8C268.618 154.091 268.521 154.371 268.351 154.607C268.181 154.842 267.946 155.022 267.674 155.125C267.402 155.228 267.106 155.248 266.823 155.183C266.539 155.119 266.281 154.972 266.081 154.762C265.88 154.552 265.746 154.287 265.694 154.001C265.643 153.716 265.677 153.421 265.792 153.154C265.907 152.887 266.098 152.66 266.342 152.501C266.585 152.342 266.869 152.259 267.16 152.26C267.358 152.264 267.553 152.307 267.734 152.387C267.915 152.466 268.079 152.581 268.216 152.724C268.352 152.867 268.459 153.036 268.53 153.221C268.601 153.406 268.635 153.602 268.63 153.8Z" fill="#263238"/>
<path d="M261.52 152.56L261.26 161.45L266.01 160.26L261.52 152.56Z" fill="#F28F8F" stroke="#F28F8F" stroke-miterlimit="10"/>
<path d="M254.67 172.29C251.67 171.79 245.83 169.64 244.67 167.56C244.67 167.56 244.67 168.94 246.5 170.91C248.33 172.88 254.6 174.58 254.6 174.58L254.67 172.29Z" fill="#F28F8F" stroke="#F28F8F" stroke-miterlimit="10"/>
<path d="M230.71 129.89C235.44 132.44 233.05 136.56 230.32 141.63C227.59 146.7 225.57 150.8 220.84 148.26C216.11 145.72 214.48 139.54 217.21 134.47C219.94 129.4 226 127.35 230.71 129.89Z" fill="#263238"/>
<path d="M237.46 154.3L237.83 147.72L241.72 147.94L241.14 158.41C240.628 158.382 240.127 158.253 239.666 158.032C239.204 157.81 238.79 157.499 238.449 157.118C238.107 156.736 237.844 156.291 237.674 155.807C237.504 155.324 237.432 154.812 237.46 154.3Z" fill="#263238"/>
<path d="M265.72 137.93C265.72 137.93 264.37 157.45 237.63 151.23C237.63 151.23 238.12 140.58 247.31 136.16C258.33 130.86 265.72 137.93 265.72 137.93Z" fill="#2AC5C5"/>
<path d="M265.72 137.93C258.435 145.837 248.363 150.606 237.63 151.23C237.63 151.23 235.81 140.8 245.21 135.31C254.61 129.82 264.32 134 265.72 137.93Z" fill="#263238"/>
<path d="M260.12 284.89C260.066 284.89 260.013 284.872 259.97 284.84C259.927 284.807 259.895 284.762 259.88 284.71L259.27 282.36C259.255 282.296 259.265 282.229 259.299 282.173C259.332 282.117 259.387 282.076 259.45 282.06C259.482 282.051 259.515 282.049 259.547 282.053C259.58 282.057 259.611 282.068 259.639 282.085C259.667 282.102 259.691 282.124 259.711 282.151C259.73 282.178 259.743 282.208 259.75 282.24L260.37 284.58C260.386 284.645 260.375 284.713 260.342 284.771C260.308 284.829 260.254 284.871 260.19 284.89H260.12Z" fill="#263238"/>
<path d="M255.73 278.8L258.94 283.26C259.045 283.401 259.191 283.505 259.357 283.559C259.524 283.614 259.703 283.615 259.87 283.564C260.038 283.513 260.185 283.411 260.293 283.272C260.4 283.134 260.462 282.965 260.47 282.79L260.63 277.26L255.73 278.8Z" fill="#37474F"/>
<path d="M251.4 246.89C251.286 246.65 251.102 246.45 250.871 246.317C250.641 246.185 250.375 246.127 250.11 246.15C248.48 246.09 246.11 247.47 246.62 248.79L255.73 278.79C256.208 279.052 256.743 279.194 257.288 279.204C257.833 279.215 258.372 279.093 258.86 278.85C259.628 278.555 260.259 277.985 260.63 277.25L251.4 246.89Z" fill="#455A64"/>
<path d="M249.13 244.49C249.089 244.353 249.022 244.225 248.932 244.114C248.842 244.002 248.731 243.91 248.605 243.842C248.479 243.774 248.341 243.731 248.199 243.716C248.056 243.701 247.912 243.714 247.775 243.755C247.638 243.796 247.51 243.863 247.399 243.953C247.287 244.043 247.195 244.154 247.127 244.28C247.059 244.406 247.016 244.544 247.001 244.686C246.986 244.829 246.999 244.973 247.04 245.11L247.77 247.51C247.807 247.599 247.865 247.677 247.941 247.736C248.016 247.796 248.105 247.835 248.2 247.85C248.464 247.898 248.735 247.883 248.992 247.807C249.25 247.73 249.485 247.594 249.68 247.41C249.755 247.348 249.811 247.267 249.843 247.175C249.875 247.083 249.88 246.985 249.86 246.89L249.13 244.49Z" fill="#37474F"/>
<path d="M228.2 183.16C222.11 184.48 218.85 187.99 217.11 195.59C215.37 203.19 207.6 238.27 206.73 241.74C205.86 245.21 207.11 247.2 211.15 251.37C214.79 255.12 232.74 268.16 234.15 270.09C235.56 272.02 240.82 275.56 243.64 277.09C246.46 278.62 249.69 279 253 279C255.28 279 259 276.69 261.82 276.41C264.64 276.13 265.42 273.51 263.71 272.52C262 271.53 252.48 267.87 252.48 267.87L251.67 264.87C251.67 264.87 250.94 263.68 247.12 263.6C243.3 263.52 242.29 264.95 237.46 260.54C232.46 255.96 220.35 240.99 220.35 240.99L229.47 210.04C229.47 210.04 235.11 190.22 228.2 183.16Z" fill="#FFA8A7" stroke="#FFA8A7" stroke-miterlimit="10"/>
</g>
<defs>
<clipPath id="clip0_73_4">
<rect width="500" height="500" fill="white"/>
</clipPath>
</defs>
</svg>
